<svg width="237" height="36" viewBox="0 0 237 36" fill="none" xmlns="http://www.w3.org/2000/svg">
<path d="M32.4972 15.8527L26.2469 21.3074L28.1192 29.4286C28.2183 29.8532 28.19 30.2975 28.038 30.7061C27.8859 31.1147 27.6167 31.4693 27.2642 31.7258C26.9116 31.9822 26.4913 32.129 26.0557 32.1479C25.6202 32.1667 25.1887 32.0568 24.8153 31.8317L17.7321 27.5355L10.6642 31.8317C10.2908 32.0568 9.85937 32.1667 9.42382 32.1479C8.98826 32.129 8.56793 31.9822 8.21537 31.7258C7.8628 31.4693 7.59365 31.1147 7.44157 30.7061C7.28949 30.2975 7.26122 29.8532 7.36029 29.4286L9.22983 21.3158L2.97817 15.8527C2.64752 15.5675 2.40842 15.191 2.29086 14.7705C2.1733 14.35 2.18252 13.9041 2.31735 13.4888C2.45219 13.0735 2.70664 12.7072 3.04879 12.436C3.39095 12.1647 3.80559 12.0005 4.2407 11.9639L12.4811 11.2502L15.6977 3.57801C15.8657 3.17544 16.149 2.83156 16.512 2.58969C16.875 2.34781 17.3015 2.21875 17.7377 2.21875C18.1739 2.21875 18.6004 2.34781 18.9634 2.58969C19.3264 2.83156 19.6097 3.17544 19.7777 3.57801L23.004 11.2502L31.2416 11.9639C31.6767 12.0005 32.0913 12.1647 32.4335 12.436C32.7757 12.7072 33.0301 13.0735 33.1649 13.4888C33.2998 13.9041 33.309 14.35 33.1914 14.7705C33.0739 15.191 32.8348 15.5675 32.5041 15.8527H32.4972Z" fill="#FFD55A"/>
<path d="M82.76 15.8529L76.5097 21.3077L78.3821 29.4289C78.4811 29.8534 78.4529 30.2978 78.3008 30.7063C78.1487 31.1149 77.8795 31.4696 77.527 31.726C77.1744 31.9825 76.7541 32.1293 76.3185 32.1481C75.883 32.167 75.4515 32.057 75.0781 31.832L67.995 27.5358L60.927 31.832C60.5536 32.057 60.1222 32.167 59.6866 32.1481C59.2511 32.1293 58.8307 31.9825 58.4782 31.726C58.1256 31.4696 57.8565 31.1149 57.7044 30.7063C57.5523 30.2978 57.524 29.8534 57.6231 29.4289L59.4926 21.316L53.241 15.8529C52.9103 15.5677 52.6712 15.1913 52.5537 14.7707C52.4361 14.3502 52.4453 13.9043 52.5802 13.489C52.715 13.0737 52.9695 12.7075 53.3116 12.4362C53.6538 12.1649 54.0684 12.0007 54.5035 11.9642L62.7439 11.2504L65.9605 3.57826C66.1285 3.17568 66.4118 2.83181 66.7748 2.58993C67.1378 2.34806 67.5643 2.21899 68.0005 2.21899C68.4367 2.21899 68.8632 2.34806 69.2262 2.58993C69.5892 2.83181 69.8725 3.17568 70.0405 3.57826L73.2668 11.2504L81.5044 11.9642C81.9395 12.0007 82.3542 12.1649 82.6963 12.4362C83.0385 12.7075 83.2929 13.0737 83.4278 13.489C83.5626 13.9043 83.5718 14.3502 83.4543 14.7707C83.3367 15.1913 83.0976 15.5677 82.7669 15.8529H82.76Z" fill="#FFD55A"/>
<path d="M133.02 15.8527L126.77 21.3074L128.642 29.4286C128.741 29.8532 128.713 30.2975 128.561 30.7061C128.409 31.1147 128.139 31.4693 127.787 31.7258C127.434 31.9822 127.014 32.129 126.578 32.1479C126.143 32.1667 125.711 32.0568 125.338 31.8317L118.255 27.5355L111.187 31.8317C110.814 32.0568 110.382 32.1667 109.947 32.1479C109.511 32.129 109.091 31.9822 108.738 31.7258C108.386 31.4693 108.116 31.1147 107.964 30.7061C107.812 30.2975 107.784 29.8532 107.883 29.4286L109.753 21.3158L103.501 15.8527C103.17 15.5675 102.931 15.191 102.814 14.7705C102.696 14.35 102.705 13.9041 102.84 13.4888C102.975 13.0735 103.229 12.7072 103.571 12.436C103.914 12.1647 104.328 12.0005 104.763 11.9639L113.004 11.2502L116.22 3.57801C116.388 3.17544 116.672 2.83156 117.035 2.58969C117.398 2.34781 117.824 2.21875 118.26 2.21875C118.697 2.21875 119.123 2.34781 119.486 2.58969C119.849 2.83156 120.132 3.17544 120.3 3.57801L123.527 11.2502L131.764 11.9639C132.199 12.0005 132.614 12.1647 132.956 12.436C133.298 12.7072 133.553 13.0735 133.688 13.4888C133.822 13.9041 133.832 14.35 133.714 14.7705C133.597 15.191 133.357 15.5675 133.027 15.8527H133.02Z" fill="#FFD55A"/>
<path d="M183.282 15.8529L177.032 21.3077L178.904 29.4289C179.003 29.8534 178.975 30.2978 178.823 30.7063C178.671 31.1149 178.401 31.4696 178.049 31.726C177.696 31.9825 177.276 32.1293 176.84 32.1481C176.405 32.167 175.973 32.057 175.6 31.832L168.517 27.5358L161.449 31.832C161.075 32.057 160.644 32.167 160.208 32.1481C159.773 32.1293 159.353 31.9825 159 31.726C158.647 31.4696 158.378 31.1149 158.226 30.7063C158.074 30.2978 158.046 29.8534 158.145 29.4289L160.014 21.316L153.763 15.8529C153.432 15.5677 153.193 15.1913 153.076 14.7707C152.958 14.3502 152.967 13.9043 153.102 13.489C153.237 13.0737 153.491 12.7075 153.833 12.4362C154.176 12.1649 154.59 12.0007 155.025 11.9642L163.266 11.2504L166.482 3.57826C166.65 3.17568 166.934 2.83181 167.297 2.58993C167.66 2.34806 168.086 2.21899 168.522 2.21899C168.959 2.21899 169.385 2.34806 169.748 2.58993C170.111 2.83181 170.394 3.17568 170.562 3.57826L173.789 11.2504L182.026 11.9642C182.461 12.0007 182.876 12.1649 183.218 12.4362C183.56 12.7075 183.815 13.0737 183.95 13.489C184.084 13.9043 184.094 14.3502 183.976 14.7707C183.859 15.1913 183.619 15.5677 183.289 15.8529H183.282Z" fill="#FFD55A"/>
<path d="M233.541 15.8529L227.291 21.3077L229.163 29.4289C229.262 29.8534 229.234 30.2978 229.082 30.7063C228.93 31.1149 228.66 31.4696 228.308 31.726C227.955 31.9825 227.535 32.1293 227.099 32.1481C226.664 32.167 226.232 32.057 225.859 31.832L218.776 27.5358L211.708 31.832C211.334 32.057 210.903 32.167 210.467 32.1481C210.032 32.1293 209.612 31.9825 209.259 31.726C208.906 31.4696 208.637 31.1149 208.485 30.7063C208.333 30.2978 208.305 29.8534 208.404 29.4289L210.273 21.316L204.022 15.8529C203.691 15.5677 203.452 15.1913 203.334 14.7707C203.217 14.3502 203.226 13.9043 203.361 13.489C203.496 13.0737 203.75 12.7075 204.092 12.4362C204.435 12.1649 204.849 12.0007 205.284 11.9642L213.525 11.2504L216.741 3.57826C216.909 3.17568 217.193 2.83181 217.556 2.58993C217.919 2.34806 218.345 2.21899 218.781 2.21899C219.218 2.21899 219.644 2.34806 220.007 2.58993C220.37 2.83181 220.653 3.17568 220.821 3.57826L224.048 11.2504L232.285 11.9642C232.72 12.0007 233.135 12.1649 233.477 12.4362C233.819 12.7075 234.074 13.0737 234.209 13.489C234.343 13.9043 234.353 14.3502 234.235 14.7707C234.118 15.1913 233.878 15.5677 233.548 15.8529H233.541Z" fill="#FFD55A"/>
</svg>
