<svg width="509" height="551" viewBox="0 0 509 551" fill="none" xmlns="http://www.w3.org/2000/svg">
<path opacity="0.7" d="M489.67 0H18.5203C8.29379 0 0.00354004 8.29025 0.00354004 18.5168V531.843C0.00354004 542.07 8.29379 550.36 18.5203 550.36H489.67C499.896 550.36 508.186 542.07 508.186 531.843V18.5168C508.186 8.29025 499.896 0 489.67 0Z" fill="white"/>
<path d="M36.0084 50.4069C36.0084 41.3166 43.3775 33.9475 52.4678 33.9475H464.981C474.071 33.9475 481.44 41.3166 481.44 50.4069V550.36H36.0084V50.4069Z" fill="white"/>
<path d="M478.354 94.6414H36.0084V185.168H478.354V94.6414Z" fill="#F6FAFF"/>
<path d="M379.621 339.522C387.588 339.522 394.047 333.063 394.047 325.096C394.047 317.129 387.588 310.67 379.621 310.67C371.654 310.67 365.196 317.129 365.196 325.096C365.196 333.063 371.654 339.522 379.621 339.522Z" fill="#3C3C3C"/>
<path d="M386.834 323.446C386.789 323.421 386.74 323.409 386.689 323.411C386.638 323.412 386.589 323.428 386.547 323.454L380.978 326.937C380.574 327.189 380.106 327.321 379.63 327.321C379.152 327.321 378.685 327.189 378.28 326.937L372.703 323.454C372.661 323.428 372.612 323.412 372.561 323.411C372.51 323.409 372.46 323.421 372.416 323.446C372.372 323.471 372.335 323.507 372.309 323.55C372.284 323.594 372.27 323.644 372.27 323.694V329.056C372.27 329.505 372.448 329.936 372.766 330.254C373.084 330.573 373.514 330.752 373.963 330.753H385.278C385.728 330.753 386.16 330.574 386.478 330.256C386.797 329.937 386.976 329.506 386.976 329.056V323.694C386.976 323.644 386.962 323.594 386.937 323.551C386.913 323.508 386.877 323.472 386.834 323.446Z" fill="white"/>
<path d="M385.277 319.438H373.963C373.513 319.438 373.082 319.617 372.763 319.936C372.445 320.254 372.266 320.686 372.266 321.136C372.266 321.15 372.27 321.164 372.277 321.177C372.285 321.189 372.295 321.199 372.307 321.207L379.171 325.497C379.306 325.583 379.464 325.627 379.623 325.627C379.784 325.627 379.94 325.583 380.076 325.497L386.942 321.207C386.952 321.198 386.961 321.188 386.966 321.176C386.972 321.163 386.974 321.149 386.974 321.136C386.974 320.686 386.795 320.254 386.478 319.936C386.159 319.617 385.728 319.438 385.277 319.438Z" fill="white"/>
<path d="M420.259 339.522C428.226 339.522 434.685 333.063 434.685 325.096C434.685 317.129 428.226 310.67 420.259 310.67C412.292 310.67 405.833 317.129 405.833 325.096C405.833 333.063 412.292 339.522 420.259 339.522Z" fill="#3C3C3C"/>
<path d="M426.553 328.473L424.152 326.073C423.728 325.65 423.153 325.411 422.553 325.411C421.953 325.411 421.378 325.65 420.953 326.073L420.398 326.629C419.795 327.176 419.411 327.923 419.318 328.732C419.298 328.973 419.312 329.216 419.356 329.455C417.844 328.723 416.624 327.502 415.894 325.989C416.415 326.071 416.948 326.02 417.443 325.839C417.938 325.658 418.38 325.354 418.725 324.956L419.28 324.402C419.49 324.191 419.656 323.942 419.77 323.667C419.884 323.393 419.942 323.099 419.942 322.802C419.942 322.505 419.884 322.211 419.77 321.936C419.656 321.661 419.49 321.412 419.28 321.203L416.88 318.801C416.684 318.605 416.444 318.461 416.179 318.382C415.915 318.302 415.634 318.288 415.363 318.344C415.093 318.398 414.84 318.52 414.627 318.696C414.414 318.871 414.248 319.098 414.144 319.354C413.467 321.011 413.296 322.832 413.65 324.587C414.004 326.341 414.87 327.952 416.136 329.217C417.848 330.909 420.154 331.866 422.561 331.883C423.74 331.881 424.907 331.652 425.998 331.209C426.254 331.105 426.481 330.939 426.658 330.726C426.834 330.513 426.955 330.26 427.009 329.99C427.064 329.719 427.052 329.439 426.971 329.174C426.892 328.91 426.748 328.669 426.553 328.473Z" fill="white"/>
<path d="M379.621 432.106C387.588 432.106 394.047 425.647 394.047 417.68C394.047 409.713 387.588 403.254 379.621 403.254C371.654 403.254 365.196 409.713 365.196 417.68C365.196 425.647 371.654 432.106 379.621 432.106Z" fill="#C39FFF"/>
<path d="M386.834 416.03C386.789 416.005 386.74 415.993 386.689 415.995C386.638 415.996 386.589 416.012 386.547 416.038L380.978 419.52C380.574 419.773 380.106 419.905 379.63 419.905C379.152 419.905 378.685 419.773 378.28 419.52L372.703 416.038C372.661 416.012 372.612 415.996 372.561 415.995C372.51 415.993 372.46 416.005 372.416 416.03C372.372 416.055 372.335 416.091 372.309 416.134C372.284 416.178 372.27 416.228 372.27 416.278V421.64C372.27 422.089 372.448 422.52 372.766 422.838C373.084 423.157 373.514 423.336 373.963 423.337H385.278C385.728 423.337 386.16 423.158 386.478 422.84C386.797 422.521 386.976 422.09 386.976 421.64V416.278C386.976 416.228 386.962 416.178 386.937 416.135C386.913 416.092 386.877 416.056 386.834 416.03Z" fill="white"/>
<path d="M385.277 412.022H373.963C373.513 412.022 373.082 412.201 372.763 412.52C372.445 412.838 372.266 413.27 372.266 413.72C372.266 413.734 372.27 413.748 372.277 413.761C372.285 413.773 372.295 413.783 372.307 413.791L379.171 418.081C379.306 418.167 379.464 418.211 379.623 418.211C379.784 418.211 379.94 418.167 380.076 418.081L386.942 413.791C386.952 413.782 386.961 413.772 386.966 413.76C386.972 413.747 386.974 413.733 386.974 413.72C386.974 413.27 386.795 412.838 386.478 412.52C386.159 412.201 385.728 412.022 385.277 412.022Z" fill="white"/>
<path d="M420.259 432.106C428.226 432.106 434.685 425.647 434.685 417.68C434.685 409.713 428.226 403.254 420.259 403.254C412.292 403.254 405.833 409.713 405.833 417.68C405.833 425.647 412.292 432.106 420.259 432.106Z" fill="#C39FFF"/>
<path d="M426.553 421.057L424.152 418.657C423.728 418.234 423.153 417.995 422.553 417.995C421.953 417.995 421.378 418.234 420.953 418.657L420.398 419.213C419.795 419.76 419.411 420.507 419.318 421.316C419.298 421.557 419.312 421.8 419.356 422.039C417.844 421.307 416.624 420.086 415.894 418.573C416.415 418.655 416.948 418.604 417.443 418.423C417.938 418.242 418.38 417.938 418.725 417.54L419.28 416.986C419.49 416.775 419.656 416.526 419.77 416.251C419.884 415.977 419.942 415.683 419.942 415.386C419.942 415.089 419.884 414.795 419.77 414.52C419.656 414.245 419.49 413.996 419.28 413.787L416.88 411.385C416.684 411.189 416.444 411.045 416.179 410.966C415.915 410.886 415.634 410.872 415.363 410.928C415.093 410.982 414.84 411.104 414.627 411.28C414.414 411.455 414.248 411.682 414.144 411.938C413.467 413.595 413.296 415.416 413.65 417.171C414.004 418.925 414.87 420.536 416.136 421.801C417.848 423.493 420.154 424.45 422.561 424.467C423.74 424.465 424.907 424.236 425.998 423.793C426.254 423.689 426.481 423.523 426.658 423.31C426.834 423.097 426.955 422.844 427.009 422.574C427.064 422.303 427.052 422.023 426.971 421.758C426.892 421.494 426.748 421.253 426.553 421.057Z" fill="white"/>
<path d="M379.621 524.69C387.588 524.69 394.047 518.231 394.047 510.264C394.047 502.297 387.588 495.838 379.621 495.838C371.654 495.838 365.196 502.297 365.196 510.264C365.196 518.231 371.654 524.69 379.621 524.69Z" fill="#D59FFF"/>
<path d="M386.834 508.614C386.789 508.589 386.74 508.577 386.689 508.579C386.638 508.58 386.589 508.596 386.547 508.622L380.978 512.104C380.574 512.357 380.106 512.489 379.63 512.489C379.152 512.489 378.685 512.357 378.28 512.104L372.703 508.622C372.661 508.596 372.612 508.58 372.561 508.579C372.51 508.577 372.46 508.589 372.416 508.614C372.372 508.639 372.335 508.675 372.309 508.718C372.284 508.762 372.27 508.812 372.27 508.862V514.224C372.27 514.673 372.448 515.104 372.766 515.422C373.084 515.741 373.514 515.92 373.963 515.921H385.278C385.728 515.921 386.16 515.742 386.478 515.424C386.797 515.105 386.976 514.674 386.976 514.224V508.862C386.976 508.812 386.962 508.762 386.937 508.719C386.913 508.676 386.877 508.64 386.834 508.614Z" fill="white"/>
<path d="M385.277 504.606H373.963C373.513 504.606 373.082 504.785 372.763 505.104C372.445 505.422 372.266 505.854 372.266 506.304C372.266 506.318 372.27 506.332 372.277 506.345C372.285 506.357 372.295 506.367 372.307 506.375L379.171 510.665C379.306 510.751 379.464 510.795 379.623 510.795C379.784 510.795 379.94 510.751 380.076 510.665L386.942 506.375C386.952 506.366 386.961 506.356 386.966 506.344C386.972 506.331 386.974 506.317 386.974 506.304C386.974 505.854 386.795 505.422 386.478 505.104C386.159 504.785 385.728 504.606 385.277 504.606Z" fill="white"/>
<path d="M420.259 524.69C428.226 524.69 434.685 518.231 434.685 510.264C434.685 502.297 428.226 495.838 420.259 495.838C412.292 495.838 405.833 502.297 405.833 510.264C405.833 518.231 412.292 524.69 420.259 524.69Z" fill="#D59FFF"/>
<path d="M426.553 513.641L424.152 511.241C423.728 510.818 423.153 510.579 422.553 510.579C421.953 510.579 421.378 510.818 420.953 511.241L420.398 511.797C419.795 512.344 419.411 513.091 419.318 513.9C419.298 514.141 419.312 514.384 419.356 514.623C417.844 513.891 416.624 512.67 415.894 511.157C416.415 511.239 416.948 511.188 417.443 511.007C417.938 510.826 418.38 510.522 418.725 510.124L419.28 509.57C419.49 509.359 419.656 509.11 419.77 508.835C419.884 508.561 419.942 508.267 419.942 507.97C419.942 507.673 419.884 507.379 419.77 507.104C419.656 506.829 419.49 506.58 419.28 506.371L416.88 503.968C416.684 503.773 416.444 503.629 416.179 503.55C415.915 503.47 415.634 503.456 415.363 503.512C415.093 503.566 414.84 503.688 414.627 503.864C414.414 504.039 414.248 504.266 414.144 504.522C413.467 506.179 413.296 508 413.65 509.755C414.004 511.509 414.87 513.12 416.136 514.385C417.848 516.077 420.154 517.034 422.561 517.051C423.74 517.049 424.907 516.82 425.998 516.377C426.254 516.273 426.481 516.107 426.658 515.894C426.834 515.681 426.955 515.428 427.009 515.158C427.064 514.887 427.052 514.607 426.971 514.342C426.892 514.078 426.748 513.837 426.553 513.641Z" fill="white"/>
<path d="M379.621 245.909C387.588 245.909 394.047 239.451 394.047 231.483C394.047 223.516 387.588 217.058 379.621 217.058C371.654 217.058 365.196 223.516 365.196 231.483C365.196 239.451 371.654 245.909 379.621 245.909Z" fill="#3C3C3C"/>
<path d="M386.834 229.833C386.789 229.809 386.74 229.796 386.689 229.798C386.638 229.799 386.589 229.815 386.547 229.842L380.978 233.324C380.574 233.576 380.106 233.708 379.63 233.708C379.152 233.708 378.685 233.576 378.28 233.324L372.703 229.842C372.661 229.815 372.612 229.799 372.561 229.798C372.51 229.796 372.46 229.809 372.416 229.833C372.372 229.858 372.335 229.894 372.309 229.937C372.284 229.981 372.27 230.031 372.27 230.081V235.443C372.27 235.892 372.448 236.323 372.766 236.641C373.084 236.96 373.514 237.139 373.963 237.14H385.278C385.728 237.14 386.16 236.961 386.478 236.643C386.797 236.324 386.976 235.893 386.976 235.443V230.081C386.976 230.031 386.962 229.981 386.937 229.938C386.913 229.895 386.877 229.859 386.834 229.833Z" fill="white"/>
<path d="M385.277 225.825H373.963C373.513 225.825 373.082 226.004 372.763 226.323C372.445 226.641 372.266 227.073 372.266 227.523C372.266 227.537 372.27 227.552 372.277 227.564C372.285 227.576 372.295 227.587 372.307 227.594L379.171 231.885C379.306 231.97 379.464 232.014 379.623 232.014C379.784 232.014 379.94 231.97 380.076 231.885L386.942 227.594C386.952 227.586 386.961 227.575 386.966 227.563C386.972 227.551 386.974 227.536 386.974 227.523C386.974 227.073 386.795 226.641 386.478 226.323C386.159 226.004 385.728 225.825 385.277 225.825Z" fill="white"/>
<path d="M420.259 245.909C428.226 245.909 434.685 239.451 434.685 231.483C434.685 223.516 428.226 217.058 420.259 217.058C412.292 217.058 405.833 223.516 405.833 231.483C405.833 239.451 412.292 245.909 420.259 245.909Z" fill="#3C3C3C"/>
<path d="M426.553 234.861L424.152 232.461C423.728 232.037 423.153 231.798 422.553 231.798C421.953 231.798 421.378 232.037 420.953 232.461L420.398 233.016C419.795 233.563 419.411 234.31 419.318 235.119C419.298 235.361 419.312 235.603 419.356 235.842C417.844 235.111 416.624 233.89 415.894 232.376C416.415 232.459 416.948 232.407 417.443 232.226C417.938 232.045 418.38 231.742 418.725 231.344L419.28 230.789C419.49 230.578 419.656 230.329 419.77 230.055C419.884 229.78 419.942 229.487 419.942 229.189C419.942 228.892 419.884 228.598 419.77 228.323C419.656 228.049 419.49 227.8 419.28 227.59L416.88 225.188C416.684 224.992 416.444 224.848 416.179 224.769C415.915 224.689 415.634 224.675 415.363 224.731C415.093 224.786 414.84 224.907 414.627 225.083C414.414 225.259 414.248 225.485 414.144 225.741C413.467 227.398 413.296 229.219 413.65 230.974C414.004 232.728 414.87 234.339 416.136 235.604C417.848 237.297 420.154 238.253 422.561 238.27C423.74 238.268 424.907 238.039 425.998 237.596C426.254 237.492 426.481 237.327 426.658 237.114C426.834 236.901 426.955 236.648 427.009 236.377C427.064 236.106 427.052 235.827 426.971 235.561C426.892 235.297 426.748 235.056 426.553 234.861Z" fill="white"/>
<path d="M61.7262 94.127H460.866" stroke="#EBEDF6" stroke-width="1.02871"/>
<path d="M61.7262 184.654H460.866" stroke="#EBEDF6" stroke-width="1.02871"/>
<path d="M61.7262 277.237H460.866" stroke="#EBEDF6" stroke-width="1.02871"/>
<path d="M61.7262 370.85H460.866" stroke="#EBEDF6" stroke-width="1.02871"/>
<path d="M61.7262 463.434H460.866" stroke="#EBEDF6" stroke-width="1.02871"/>
<path d="M380.083 153.258C388.05 153.258 394.509 146.8 394.509 138.833C394.509 130.866 388.05 124.407 380.083 124.407C372.116 124.407 365.658 130.866 365.658 138.833C365.658 146.8 372.116 153.258 380.083 153.258Z" fill="#3D3D3D"/>
<path d="M387.296 137.183C387.251 137.158 387.202 137.146 387.151 137.147C387.1 137.149 387.052 137.163 387.009 137.191L381.441 140.673C381.036 140.924 380.569 141.058 380.091 141.058C379.615 141.058 379.147 140.924 378.743 140.673L373.165 137.191C373.123 137.163 373.074 137.149 373.023 137.147C372.973 137.146 372.922 137.158 372.878 137.183C372.834 137.207 372.797 137.243 372.771 137.286C372.745 137.33 372.732 137.38 372.732 137.43V142.792C372.732 143.242 372.911 143.673 373.228 143.991C373.546 144.309 373.977 144.488 374.426 144.489H385.74C386.191 144.489 386.622 144.31 386.941 143.992C387.258 143.674 387.437 143.242 387.437 142.792V137.43C387.437 137.38 387.425 137.331 387.4 137.287C387.375 137.244 387.339 137.207 387.296 137.183Z" fill="white"/>
<path d="M385.739 133.175H374.426C373.975 133.175 373.544 133.354 373.225 133.672C372.907 133.991 372.728 134.422 372.728 134.872C372.728 134.887 372.732 134.901 372.739 134.913C372.747 134.926 372.757 134.936 372.769 134.943L379.634 139.234C379.769 139.318 379.926 139.364 380.087 139.364C380.246 139.364 380.403 139.318 380.538 139.234L387.404 134.943C387.415 134.935 387.423 134.924 387.428 134.911C387.435 134.899 387.438 134.886 387.437 134.872C387.437 134.422 387.258 133.991 386.94 133.672C386.622 133.354 386.19 133.175 385.739 133.175Z" fill="white"/>
<path d="M420.722 153.258C428.689 153.258 435.148 146.8 435.148 138.833C435.148 130.866 428.689 124.407 420.722 124.407C412.755 124.407 406.297 130.866 406.297 138.833C406.297 146.8 412.755 153.258 420.722 153.258Z" fill="#3D3D3D"/>
<path d="M425.218 140.192C425.072 140.046 424.899 139.93 424.709 139.851C424.518 139.772 424.314 139.732 424.108 139.732C423.901 139.732 423.697 139.772 423.506 139.851C423.316 139.93 423.143 140.046 422.997 140.192L422.756 140.434C421.441 139.33 420.224 138.113 419.121 136.797L419.363 136.556C419.657 136.261 419.822 135.862 419.822 135.446C419.822 135.03 419.657 134.63 419.363 134.336L418.029 133.002C417.73 132.717 417.332 132.558 416.918 132.558C416.505 132.558 416.108 132.717 415.808 133.002L415.077 133.733C414.721 134.092 414.499 134.563 414.448 135.066C414.398 135.57 414.522 136.075 414.8 136.497C416.973 139.772 419.779 142.578 423.053 144.752C423.477 145.026 423.981 145.147 424.483 145.097C424.985 145.046 425.455 144.827 425.816 144.474L426.547 143.744C426.841 143.45 427.007 143.05 427.007 142.634C427.007 142.217 426.841 141.818 426.547 141.524L425.218 140.192Z" fill="white"/>
<path d="M206.766 147.919H125.824C123.552 147.919 121.71 149.761 121.71 152.034C121.71 154.306 123.552 156.148 125.824 156.148H206.766C209.038 156.148 210.88 154.306 210.88 152.034C210.88 149.761 209.038 147.919 206.766 147.919Z" fill="#090909"/>
<path d="M122.182 134V123.239H128.855V124.637H123.805V127.916H128.376V129.308H123.805V134H122.182ZM130.624 134V125.93H132.142V127.212H132.226C132.374 126.777 132.633 126.436 133.004 126.187C133.379 125.935 133.803 125.809 134.276 125.809C134.374 125.809 134.489 125.812 134.622 125.819C134.759 125.826 134.866 125.835 134.943 125.846V127.348C134.88 127.331 134.768 127.311 134.607 127.29C134.445 127.266 134.284 127.254 134.123 127.254C133.752 127.254 133.421 127.332 133.13 127.49C132.843 127.644 132.615 127.86 132.447 128.136C132.279 128.41 132.195 128.721 132.195 129.072V134H130.624ZM139.413 134.163C138.656 134.163 137.996 133.989 137.432 133.643C136.868 133.296 136.43 132.811 136.118 132.187C135.807 131.564 135.651 130.835 135.651 130.002C135.651 129.164 135.807 128.432 136.118 127.805C136.43 127.178 136.868 126.691 137.432 126.345C137.996 125.998 138.656 125.825 139.413 125.825C140.169 125.825 140.83 125.998 141.394 126.345C141.958 126.691 142.395 127.178 142.707 127.805C143.019 128.432 143.175 129.164 143.175 130.002C143.175 130.835 143.019 131.564 142.707 132.187C142.395 132.811 141.958 133.296 141.394 133.643C140.83 133.989 140.169 134.163 139.413 134.163ZM139.418 132.844C139.908 132.844 140.315 132.714 140.637 132.455C140.959 132.196 141.197 131.851 141.352 131.42C141.509 130.989 141.588 130.515 141.588 129.996C141.588 129.481 141.509 129.009 141.352 128.578C141.197 128.143 140.959 127.795 140.637 127.532C140.315 127.269 139.908 127.138 139.418 127.138C138.924 127.138 138.514 127.269 138.189 127.532C137.866 127.795 137.626 128.143 137.469 128.578C137.315 129.009 137.238 129.481 137.238 129.996C137.238 130.515 137.315 130.989 137.469 131.42C137.626 131.851 137.866 132.196 138.189 132.455C138.514 132.714 138.924 132.844 139.418 132.844ZM146.499 129.208V134H144.928V125.93H146.436V127.243H146.536C146.722 126.816 147.013 126.473 147.408 126.213C147.808 125.954 148.31 125.825 148.916 125.825C149.466 125.825 149.948 125.94 150.361 126.171C150.774 126.399 151.095 126.739 151.323 127.191C151.55 127.642 151.664 128.201 151.664 128.867V134H150.093V129.056C150.093 128.471 149.941 128.014 149.636 127.685C149.331 127.352 148.913 127.185 148.38 127.185C148.016 127.185 147.692 127.264 147.408 127.422C147.128 127.579 146.906 127.811 146.741 128.115C146.58 128.417 146.499 128.781 146.499 129.208ZM157.538 125.93V127.191H153.13V125.93H157.538ZM154.312 123.996H155.883V131.63C155.883 131.935 155.929 132.165 156.02 132.319C156.111 132.469 156.228 132.573 156.372 132.629C156.519 132.681 156.678 132.707 156.85 132.707C156.976 132.707 157.086 132.699 157.181 132.681C157.276 132.664 157.349 132.65 157.402 132.639L157.685 133.937C157.594 133.972 157.465 134.007 157.297 134.042C157.129 134.081 156.918 134.102 156.666 134.105C156.253 134.112 155.868 134.039 155.51 133.884C155.153 133.73 154.864 133.492 154.643 133.17C154.423 132.848 154.312 132.443 154.312 131.956V123.996ZM162.668 134.163C161.873 134.163 161.188 133.993 160.613 133.653C160.042 133.31 159.601 132.828 159.289 132.208C158.981 131.585 158.827 130.855 158.827 130.017C158.827 129.191 158.981 128.462 159.289 127.832C159.601 127.201 160.035 126.709 160.592 126.355C161.153 126.001 161.808 125.825 162.557 125.825C163.013 125.825 163.454 125.9 163.881 126.05C164.309 126.201 164.692 126.438 165.032 126.76C165.372 127.082 165.64 127.501 165.836 128.016C166.032 128.527 166.13 129.149 166.13 129.881V130.438H159.715V129.261H164.591C164.591 128.847 164.507 128.481 164.339 128.163C164.17 127.84 163.934 127.586 163.629 127.401C163.328 127.215 162.974 127.122 162.568 127.122C162.127 127.122 161.741 127.231 161.412 127.448C161.086 127.662 160.834 127.942 160.655 128.289C160.48 128.632 160.393 129.005 160.393 129.408V130.327C160.393 130.867 160.487 131.326 160.676 131.704C160.869 132.082 161.137 132.371 161.48 132.571C161.824 132.767 162.225 132.865 162.683 132.865C162.981 132.865 163.253 132.823 163.498 132.739C163.743 132.651 163.955 132.522 164.134 132.35C164.312 132.179 164.449 131.967 164.543 131.714L166.03 131.982C165.911 132.42 165.698 132.804 165.389 133.133C165.085 133.459 164.701 133.713 164.239 133.895C163.78 134.074 163.256 134.163 162.668 134.163ZM169.444 129.208V134H167.873V125.93H169.381V127.243H169.481C169.667 126.816 169.957 126.473 170.353 126.213C170.753 125.954 171.255 125.825 171.861 125.825C172.411 125.825 172.893 125.94 173.306 126.171C173.719 126.399 174.04 126.739 174.268 127.191C174.495 127.642 174.609 128.201 174.609 128.867V134H173.038V129.056C173.038 128.471 172.886 128.014 172.581 127.685C172.276 127.352 171.858 127.185 171.325 127.185C170.961 127.185 170.637 127.264 170.353 127.422C170.073 127.579 169.851 127.811 169.686 128.115C169.525 128.417 169.444 128.781 169.444 129.208ZM179.737 134.158C179.086 134.158 178.504 133.991 177.993 133.658C177.485 133.322 177.086 132.844 176.795 132.224C176.508 131.601 176.364 130.853 176.364 129.981C176.364 129.108 176.509 128.362 176.8 127.742C177.094 127.122 177.497 126.648 178.009 126.318C178.52 125.989 179.1 125.825 179.748 125.825C180.249 125.825 180.651 125.909 180.956 126.077C181.264 126.241 181.503 126.434 181.671 126.655C181.842 126.875 181.975 127.07 182.07 127.238H182.165V123.239H183.736V134H182.201V132.744H182.07C181.975 132.916 181.839 133.112 181.66 133.333C181.485 133.553 181.243 133.746 180.935 133.911C180.627 134.075 180.228 134.158 179.737 134.158ZM180.084 132.818C180.536 132.818 180.918 132.699 181.229 132.461C181.545 132.219 181.783 131.884 181.944 131.457C182.109 131.03 182.191 130.532 182.191 129.965C182.191 129.404 182.11 128.914 181.949 128.494C181.788 128.073 181.552 127.746 181.24 127.511C180.928 127.276 180.543 127.159 180.084 127.159C179.611 127.159 179.217 127.282 178.902 127.527C178.586 127.772 178.348 128.107 178.187 128.53C178.03 128.954 177.951 129.432 177.951 129.965C177.951 130.504 178.031 130.989 178.192 131.42C178.354 131.851 178.592 132.193 178.907 132.445C179.226 132.693 179.618 132.818 180.084 132.818ZM190.02 134V123.239H196.766V124.637H191.643V127.916H196.414V129.308H191.643V132.602H196.829V134H190.02ZM200.379 129.208V134H198.808V125.93H200.316V127.243H200.416C200.602 126.816 200.893 126.473 201.288 126.213C201.688 125.954 202.19 125.825 202.796 125.825C203.346 125.825 203.828 125.94 204.241 126.171C204.655 126.399 204.975 126.739 205.203 127.191C205.43 127.642 205.544 128.201 205.544 128.867V134H203.973V129.056C203.973 128.471 203.821 128.014 203.516 127.685C203.211 127.352 202.793 127.185 202.26 127.185C201.896 127.185 201.572 127.264 201.288 127.422C201.008 127.579 200.786 127.811 200.621 128.115C200.46 128.417 200.379 128.781 200.379 129.208ZM211.035 137.195C210.394 137.195 209.842 137.11 209.38 136.942C208.921 136.774 208.546 136.552 208.255 136.275C207.965 135.998 207.747 135.695 207.604 135.366L208.954 134.809C209.049 134.963 209.175 135.126 209.332 135.298C209.494 135.473 209.711 135.622 209.984 135.744C210.261 135.867 210.616 135.928 211.051 135.928C211.646 135.928 212.138 135.783 212.527 135.492C212.916 135.205 213.11 134.746 213.11 134.116V132.529H213.01C212.916 132.7 212.779 132.891 212.601 133.102C212.425 133.312 212.184 133.494 211.875 133.648C211.567 133.802 211.166 133.879 210.672 133.879C210.035 133.879 209.46 133.73 208.949 133.433C208.441 133.131 208.038 132.688 207.74 132.103C207.446 131.515 207.299 130.791 207.299 129.933C207.299 129.075 207.444 128.34 207.735 127.727C208.029 127.114 208.432 126.644 208.944 126.318C209.455 125.989 210.035 125.825 210.683 125.825C211.184 125.825 211.588 125.909 211.897 126.077C212.205 126.241 212.445 126.434 212.616 126.655C212.791 126.875 212.926 127.07 213.021 127.238H213.136V125.93H214.676V134.179C214.676 134.872 214.515 135.441 214.193 135.886C213.87 136.331 213.434 136.66 212.884 136.874C212.338 137.088 211.721 137.195 211.035 137.195ZM211.019 132.576C211.471 132.576 211.853 132.471 212.164 132.261C212.48 132.047 212.718 131.742 212.879 131.347C213.044 130.947 213.126 130.469 213.126 129.912C213.126 129.369 213.045 128.891 212.884 128.478C212.723 128.065 212.487 127.742 212.175 127.511C211.863 127.276 211.478 127.159 211.019 127.159C210.546 127.159 210.152 127.282 209.837 127.527C209.522 127.769 209.283 128.098 209.122 128.515C208.965 128.931 208.886 129.397 208.886 129.912C208.886 130.441 208.966 130.905 209.128 131.305C209.289 131.704 209.527 132.016 209.842 132.24C210.161 132.464 210.553 132.576 211.019 132.576ZM216.783 134V125.93H218.354V134H216.783ZM217.576 124.684C217.303 124.684 217.068 124.593 216.872 124.411C216.68 124.226 216.583 124.005 216.583 123.749C216.583 123.49 216.68 123.269 216.872 123.087C217.068 122.901 217.303 122.809 217.576 122.809C217.849 122.809 218.082 122.901 218.275 123.087C218.471 123.269 218.569 123.49 218.569 123.749C218.569 124.005 218.471 124.226 218.275 124.411C218.082 124.593 217.849 124.684 217.576 124.684ZM222.038 129.208V134H220.467V125.93H221.975V127.243H222.075C222.261 126.816 222.551 126.473 222.947 126.213C223.347 125.954 223.849 125.825 224.455 125.825C225.005 125.825 225.487 125.94 225.9 126.171C226.313 126.399 226.634 126.739 226.862 127.191C227.089 127.642 227.203 128.201 227.203 128.867V134H225.632V129.056C225.632 128.471 225.48 128.014 225.175 127.685C224.87 127.352 224.452 127.185 223.919 127.185C223.555 127.185 223.231 127.264 222.947 127.422C222.667 127.579 222.445 127.811 222.28 128.115C222.119 128.417 222.038 128.781 222.038 129.208ZM232.788 134.163C231.993 134.163 231.308 133.993 230.734 133.653C230.163 133.31 229.722 132.828 229.41 132.208C229.102 131.585 228.948 130.855 228.948 130.017C228.948 129.191 229.102 128.462 229.41 127.832C229.722 127.201 230.156 126.709 230.713 126.355C231.273 126.001 231.928 125.825 232.678 125.825C233.133 125.825 233.575 125.9 234.002 126.05C234.429 126.201 234.813 126.438 235.153 126.76C235.492 127.082 235.76 127.501 235.957 128.016C236.153 128.527 236.251 129.149 236.251 129.881V130.438H229.836V129.261H234.711C234.711 128.847 234.627 128.481 234.459 128.163C234.291 127.84 234.055 127.586 233.75 127.401C233.449 127.215 233.095 127.122 232.689 127.122C232.247 127.122 231.862 127.231 231.533 127.448C231.207 127.662 230.955 127.942 230.776 128.289C230.601 128.632 230.513 129.005 230.513 129.408V130.327C230.513 130.867 230.608 131.326 230.797 131.704C230.99 132.082 231.258 132.371 231.601 132.571C231.944 132.767 232.345 132.865 232.804 132.865C233.102 132.865 233.373 132.823 233.618 132.739C233.864 132.651 234.076 132.522 234.254 132.35C234.433 132.179 234.569 131.967 234.664 131.714L236.151 131.982C236.032 132.42 235.818 132.804 235.51 133.133C235.205 133.459 234.822 133.713 234.359 133.895C233.9 134.074 233.377 134.163 232.788 134.163ZM241.472 134.163C240.677 134.163 239.992 133.993 239.418 133.653C238.847 133.31 238.405 132.828 238.094 132.208C237.785 131.585 237.631 130.855 237.631 130.017C237.631 129.191 237.785 128.462 238.094 127.832C238.405 127.201 238.84 126.709 239.397 126.355C239.957 126.001 240.612 125.825 241.362 125.825C241.817 125.825 242.259 125.9 242.686 126.05C243.113 126.201 243.497 126.438 243.837 126.76C244.176 127.082 244.444 127.501 244.64 128.016C244.837 128.527 244.935 129.149 244.935 129.881V130.438H238.519V129.261H243.395C243.395 128.847 243.311 128.481 243.143 128.163C242.975 127.84 242.738 127.586 242.434 127.401C242.132 127.215 241.779 127.122 241.372 127.122C240.931 127.122 240.546 127.231 240.216 127.448C239.891 127.662 239.638 127.942 239.46 128.289C239.285 128.632 239.197 129.005 239.197 129.408V130.327C239.197 130.867 239.292 131.326 239.481 131.704C239.673 132.082 239.941 132.371 240.285 132.571C240.628 132.767 241.029 132.865 241.488 132.865C241.786 132.865 242.057 132.823 242.302 132.739C242.547 132.651 242.759 132.522 242.938 132.35C243.117 132.179 243.253 131.967 243.348 131.714L244.835 131.982C244.716 132.42 244.502 132.804 244.194 133.133C243.889 133.459 243.505 133.713 243.043 133.895C242.584 134.074 242.061 134.163 241.472 134.163ZM246.678 134V125.93H248.196V127.212H248.28C248.427 126.777 248.687 126.436 249.058 126.187C249.433 125.935 249.856 125.809 250.329 125.809C250.427 125.809 250.543 125.812 250.676 125.819C250.813 125.826 250.92 125.835 250.997 125.846V127.348C250.934 127.331 250.821 127.311 250.66 127.29C250.499 127.266 250.338 127.254 250.177 127.254C249.806 127.254 249.475 127.332 249.184 127.49C248.897 127.644 248.669 127.86 248.501 128.136C248.333 128.41 248.249 128.721 248.249 129.072V134H246.678Z" fill="black"/>
<path d="M122.182 221V210.239H126.122C126.886 210.239 127.518 210.366 128.019 210.618C128.52 210.866 128.895 211.205 129.144 211.632C129.392 212.056 129.517 212.534 129.517 213.066C129.517 213.515 129.434 213.893 129.27 214.201C129.105 214.506 128.884 214.751 128.608 214.937C128.334 215.119 128.033 215.252 127.704 215.336V215.441C128.061 215.459 128.41 215.574 128.75 215.788C129.093 215.998 129.377 216.298 129.601 216.686C129.825 217.075 129.937 217.548 129.937 218.105C129.937 218.655 129.807 219.149 129.548 219.587C129.292 220.021 128.897 220.366 128.361 220.622C127.825 220.874 127.14 221 126.306 221H122.182ZM123.805 219.608H126.149C126.926 219.608 127.483 219.457 127.82 219.156C128.156 218.855 128.324 218.478 128.324 218.026C128.324 217.686 128.238 217.375 128.066 217.091C127.895 216.807 127.65 216.581 127.331 216.413C127.016 216.245 126.641 216.161 126.207 216.161H123.805V219.608ZM123.805 214.895H125.981C126.345 214.895 126.672 214.825 126.963 214.685C127.257 214.544 127.49 214.348 127.662 214.096C127.837 213.84 127.925 213.539 127.925 213.192C127.925 212.747 127.769 212.374 127.457 212.073C127.145 211.772 126.667 211.621 126.023 211.621H123.805V214.895ZM134.085 221.179C133.574 221.179 133.111 221.084 132.698 220.895C132.285 220.702 131.957 220.424 131.715 220.06C131.477 219.695 131.358 219.249 131.358 218.72C131.358 218.264 131.446 217.89 131.621 217.595C131.796 217.301 132.032 217.068 132.33 216.897C132.628 216.725 132.961 216.595 133.329 216.508C133.696 216.42 134.071 216.354 134.453 216.308C134.936 216.252 135.329 216.206 135.63 216.171C135.931 216.133 136.15 216.072 136.287 215.988C136.423 215.903 136.492 215.767 136.492 215.578V215.541C136.492 215.082 136.362 214.727 136.103 214.474C135.847 214.222 135.465 214.096 134.957 214.096C134.428 214.096 134.012 214.213 133.707 214.448C133.406 214.679 133.197 214.937 133.082 215.22L131.605 214.884C131.78 214.394 132.036 213.998 132.372 213.697C132.712 213.392 133.103 213.171 133.544 213.035C133.985 212.895 134.449 212.825 134.936 212.825C135.259 212.825 135.6 212.863 135.961 212.94C136.325 213.014 136.665 213.15 136.98 213.35C137.299 213.55 137.56 213.835 137.763 214.206C137.966 214.574 138.068 215.052 138.068 215.641V221H136.534V219.897H136.47C136.369 220.1 136.217 220.299 136.013 220.496C135.81 220.692 135.549 220.855 135.231 220.984C134.912 221.114 134.53 221.179 134.085 221.179ZM134.427 219.918C134.861 219.918 135.232 219.832 135.541 219.66C135.852 219.489 136.089 219.264 136.25 218.988C136.414 218.707 136.497 218.408 136.497 218.089V217.049C136.441 217.105 136.332 217.157 136.171 217.207C136.013 217.252 135.833 217.292 135.63 217.327C135.427 217.359 135.229 217.389 135.036 217.417C134.843 217.441 134.682 217.462 134.553 217.48C134.248 217.518 133.97 217.583 133.717 217.674C133.469 217.765 133.269 217.897 133.118 218.068C132.971 218.236 132.898 218.46 132.898 218.741C132.898 219.13 133.041 219.424 133.329 219.623C133.616 219.82 133.982 219.918 134.427 219.918ZM143.56 221.163C142.779 221.163 142.106 220.986 141.542 220.632C140.982 220.275 140.551 219.783 140.25 219.156C139.948 218.529 139.798 217.811 139.798 217.002C139.798 216.182 139.952 215.459 140.26 214.832C140.568 214.201 141.003 213.709 141.563 213.355C142.124 213.001 142.784 212.825 143.544 212.825C144.157 212.825 144.703 212.938 145.183 213.166C145.663 213.39 146.05 213.705 146.344 214.112C146.642 214.518 146.819 214.993 146.875 215.536H145.346C145.262 215.157 145.069 214.832 144.768 214.558C144.47 214.285 144.071 214.149 143.57 214.149C143.132 214.149 142.749 214.264 142.42 214.495C142.094 214.723 141.84 215.049 141.658 215.473C141.476 215.893 141.384 216.39 141.384 216.965C141.384 217.553 141.474 218.061 141.652 218.489C141.831 218.916 142.083 219.247 142.409 219.482C142.738 219.716 143.125 219.834 143.57 219.834C143.868 219.834 144.138 219.779 144.379 219.671C144.625 219.559 144.829 219.399 144.994 219.193C145.162 218.986 145.28 218.737 145.346 218.446H146.875C146.819 218.968 146.649 219.434 146.365 219.844C146.082 220.254 145.702 220.576 145.225 220.811C144.752 221.046 144.197 221.163 143.56 221.163ZM150 218.263L149.989 216.345H150.263L153.478 212.93H155.359L151.692 216.818H151.445L150 218.263ZM148.555 221V210.239H150.126V221H148.555ZM153.652 221L150.762 217.164L151.844 216.066L155.58 221H153.652ZM159.937 221.163C159.142 221.163 158.457 220.993 157.882 220.653C157.312 220.31 156.87 219.828 156.558 219.208C156.25 218.585 156.096 217.855 156.096 217.017C156.096 216.191 156.25 215.462 156.558 214.832C156.87 214.201 157.305 213.709 157.861 213.355C158.422 213.001 159.077 212.825 159.827 212.825C160.282 212.825 160.723 212.9 161.151 213.05C161.578 213.201 161.961 213.438 162.301 213.76C162.641 214.082 162.909 214.501 163.105 215.016C163.301 215.527 163.399 216.149 163.399 216.881V217.438H156.984V216.261H161.86C161.86 215.847 161.776 215.481 161.608 215.163C161.44 214.84 161.203 214.586 160.898 214.401C160.597 214.215 160.243 214.122 159.837 214.122C159.396 214.122 159.01 214.231 158.681 214.448C158.355 214.662 158.103 214.942 157.925 215.289C157.749 215.632 157.662 216.005 157.662 216.408V217.327C157.662 217.867 157.756 218.326 157.946 218.704C158.138 219.082 158.406 219.371 158.749 219.571C159.093 219.767 159.494 219.865 159.953 219.865C160.25 219.865 160.522 219.823 160.767 219.739C161.012 219.651 161.224 219.522 161.403 219.35C161.581 219.179 161.718 218.967 161.813 218.714L163.3 218.982C163.18 219.42 162.967 219.804 162.659 220.133C162.354 220.459 161.97 220.713 161.508 220.895C161.049 221.074 160.525 221.163 159.937 221.163ZM166.713 216.208V221H165.142V212.93H166.65V214.243H166.75C166.936 213.816 167.227 213.473 167.622 213.213C168.022 212.954 168.524 212.825 169.13 212.825C169.68 212.825 170.162 212.94 170.575 213.171C170.989 213.399 171.309 213.739 171.537 214.191C171.764 214.642 171.878 215.201 171.878 215.867V221H170.307V216.056C170.307 215.471 170.155 215.014 169.85 214.685C169.545 214.352 169.127 214.185 168.594 214.185C168.23 214.185 167.906 214.264 167.622 214.422C167.342 214.579 167.12 214.811 166.955 215.115C166.794 215.417 166.713 215.781 166.713 216.208ZM177.006 221.158C176.355 221.158 175.773 220.991 175.262 220.658C174.754 220.322 174.355 219.844 174.064 219.224C173.777 218.601 173.633 217.853 173.633 216.981C173.633 216.108 173.778 215.362 174.069 214.742C174.363 214.122 174.766 213.648 175.278 213.318C175.789 212.989 176.369 212.825 177.017 212.825C177.518 212.825 177.921 212.909 178.225 213.077C178.534 213.241 178.772 213.434 178.94 213.655C179.111 213.875 179.245 214.07 179.339 214.238H179.434V210.239H181.005V221H179.47V219.744H179.339C179.245 219.916 179.108 220.112 178.929 220.333C178.754 220.553 178.512 220.746 178.204 220.911C177.896 221.075 177.497 221.158 177.006 221.158ZM177.353 219.818C177.805 219.818 178.187 219.699 178.498 219.461C178.814 219.219 179.052 218.884 179.213 218.457C179.378 218.03 179.46 217.532 179.46 216.965C179.46 216.404 179.379 215.914 179.218 215.494C179.057 215.073 178.821 214.746 178.509 214.511C178.197 214.276 177.812 214.159 177.353 214.159C176.88 214.159 176.486 214.282 176.171 214.527C175.856 214.772 175.617 215.107 175.456 215.53C175.299 215.954 175.22 216.432 175.22 216.965C175.22 217.504 175.3 217.989 175.462 218.42C175.623 218.851 175.861 219.193 176.176 219.445C176.495 219.693 176.887 219.818 177.353 219.818ZM187.289 221V210.239H194.035V211.637H188.912V214.916H193.683V216.308H188.912V219.602H194.098V221H187.289ZM197.649 216.208V221H196.078V212.93H197.586V214.243H197.685C197.871 213.816 198.162 213.473 198.558 213.213C198.957 212.954 199.459 212.825 200.065 212.825C200.615 212.825 201.097 212.94 201.51 213.171C201.924 213.399 202.244 213.739 202.472 214.191C202.7 214.642 202.813 215.201 202.813 215.867V221H201.242V216.056C201.242 215.471 201.09 215.014 200.785 214.685C200.481 214.352 200.062 214.185 199.53 214.185C199.165 214.185 198.841 214.264 198.558 214.422C198.277 214.579 198.055 214.811 197.89 215.115C197.729 215.417 197.649 215.781 197.649 216.208ZM208.304 224.195C207.663 224.195 207.111 224.11 206.649 223.942C206.19 223.774 205.815 223.552 205.525 223.275C205.234 222.998 205.017 222.695 204.873 222.366L206.223 221.809C206.318 221.963 206.444 222.126 206.602 222.298C206.763 222.473 206.98 222.622 207.253 222.744C207.53 222.867 207.885 222.928 208.32 222.928C208.915 222.928 209.407 222.783 209.796 222.492C210.185 222.205 210.379 221.746 210.379 221.116V219.529H210.28C210.185 219.7 210.048 219.891 209.87 220.102C209.695 220.312 209.453 220.494 209.145 220.648C208.836 220.802 208.435 220.879 207.941 220.879C207.304 220.879 206.729 220.73 206.218 220.433C205.71 220.131 205.307 219.688 205.01 219.103C204.715 218.515 204.568 217.791 204.568 216.933C204.568 216.075 204.714 215.34 205.004 214.727C205.299 214.114 205.701 213.644 206.213 213.318C206.724 212.989 207.304 212.825 207.952 212.825C208.453 212.825 208.857 212.909 209.166 213.077C209.474 213.241 209.714 213.434 209.885 213.655C210.061 213.875 210.195 214.07 210.29 214.238H210.406V212.93H211.945V221.179C211.945 221.872 211.784 222.441 211.462 222.886C211.139 223.331 210.703 223.66 210.153 223.874C209.607 224.088 208.991 224.195 208.304 224.195ZM208.288 219.576C208.74 219.576 209.122 219.471 209.434 219.261C209.749 219.047 209.987 218.742 210.148 218.347C210.313 217.947 210.395 217.469 210.395 216.912C210.395 216.369 210.315 215.891 210.153 215.478C209.992 215.065 209.756 214.742 209.444 214.511C209.132 214.276 208.747 214.159 208.288 214.159C207.815 214.159 207.421 214.282 207.106 214.527C206.791 214.769 206.553 215.098 206.391 215.515C206.234 215.931 206.155 216.397 206.155 216.912C206.155 217.441 206.236 217.905 206.397 218.305C206.558 218.704 206.796 219.016 207.111 219.24C207.43 219.464 207.822 219.576 208.288 219.576ZM214.052 221V212.93H215.623V221H214.052ZM214.845 211.684C214.572 211.684 214.338 211.593 214.141 211.411C213.949 211.226 213.852 211.005 213.852 210.749C213.852 210.49 213.949 210.269 214.141 210.087C214.338 209.901 214.572 209.809 214.845 209.809C215.119 209.809 215.352 209.901 215.544 210.087C215.74 210.269 215.838 210.49 215.838 210.749C215.838 211.005 215.74 211.226 215.544 211.411C215.352 211.593 215.119 211.684 214.845 211.684ZM219.307 216.208V221H217.736V212.93H219.244V214.243H219.344C219.53 213.816 219.821 213.473 220.216 213.213C220.616 212.954 221.118 212.825 221.724 212.825C222.274 212.825 222.756 212.94 223.169 213.171C223.583 213.399 223.903 213.739 224.131 214.191C224.358 214.642 224.472 215.201 224.472 215.867V221H222.901V216.056C222.901 215.471 222.749 215.014 222.444 214.685C222.139 214.352 221.721 214.185 221.188 214.185C220.824 214.185 220.5 214.264 220.216 214.422C219.936 214.579 219.714 214.811 219.549 215.115C219.388 215.417 219.307 215.781 219.307 216.208ZM230.057 221.163C229.262 221.163 228.578 220.993 228.003 220.653C227.432 220.31 226.991 219.828 226.679 219.208C226.371 218.585 226.217 217.855 226.217 217.017C226.217 216.191 226.371 215.462 226.679 214.832C226.991 214.201 227.425 213.709 227.982 213.355C228.543 213.001 229.198 212.825 229.947 212.825C230.403 212.825 230.844 212.9 231.271 213.05C231.699 213.201 232.082 213.438 232.422 213.76C232.762 214.082 233.03 214.501 233.226 215.016C233.422 215.527 233.52 216.149 233.52 216.881V217.438H227.105V216.261H231.981C231.981 215.847 231.896 215.481 231.728 215.163C231.56 214.84 231.324 214.586 231.019 214.401C230.718 214.215 230.364 214.122 229.958 214.122C229.516 214.122 229.131 214.231 228.802 214.448C228.476 214.662 228.224 214.942 228.045 215.289C227.87 215.632 227.782 216.005 227.782 216.408V217.327C227.782 217.867 227.877 218.326 228.066 218.704C228.259 219.082 228.527 219.371 228.87 219.571C229.213 219.767 229.614 219.865 230.073 219.865C230.371 219.865 230.642 219.823 230.888 219.739C231.133 219.651 231.345 219.522 231.523 219.35C231.702 219.179 231.839 218.967 231.933 218.714L233.42 218.982C233.301 219.42 233.087 219.804 232.779 220.133C232.474 220.459 232.091 220.713 231.628 220.895C231.17 221.074 230.646 221.163 230.057 221.163ZM238.741 221.163C237.946 221.163 237.261 220.993 236.687 220.653C236.116 220.31 235.675 219.828 235.363 219.208C235.055 218.585 234.901 217.855 234.901 217.017C234.901 216.191 235.055 215.462 235.363 214.832C235.675 214.201 236.109 213.709 236.666 213.355C237.226 213.001 237.881 212.825 238.631 212.825C239.086 212.825 239.528 212.9 239.955 213.05C240.382 213.201 240.766 213.438 241.106 213.76C241.445 214.082 241.713 214.501 241.91 215.016C242.106 215.527 242.204 216.149 242.204 216.881V217.438H235.788V216.261H240.664C240.664 215.847 240.58 215.481 240.412 215.163C240.244 214.84 240.008 214.586 239.703 214.401C239.402 214.215 239.048 214.122 238.641 214.122C238.2 214.122 237.815 214.231 237.486 214.448C237.16 214.662 236.908 214.942 236.729 215.289C236.554 215.632 236.466 216.005 236.466 216.408V217.327C236.466 217.867 236.561 218.326 236.75 218.704C236.943 219.082 237.211 219.371 237.554 219.571C237.897 219.767 238.298 219.865 238.757 219.865C239.055 219.865 239.326 219.823 239.571 219.739C239.817 219.651 240.029 219.522 240.207 219.35C240.386 219.179 240.522 218.967 240.617 218.714L242.104 218.982C241.985 219.42 241.771 219.804 241.463 220.133C241.158 220.459 240.775 220.713 240.312 220.895C239.853 221.074 239.33 221.163 238.741 221.163ZM243.947 221V212.93H245.465V214.212H245.549C245.696 213.777 245.956 213.436 246.327 213.187C246.702 212.935 247.126 212.809 247.598 212.809C247.697 212.809 247.812 212.812 247.945 212.819C248.082 212.826 248.189 212.835 248.266 212.846V214.348C248.203 214.331 248.091 214.311 247.929 214.29C247.768 214.266 247.607 214.254 247.446 214.254C247.075 214.254 246.744 214.332 246.453 214.49C246.166 214.644 245.938 214.86 245.77 215.136C245.602 215.41 245.518 215.721 245.518 216.072V221H243.947Z" fill="#707070"/>
<path d="M125.665 313H122.182V302.239H125.776C126.83 302.239 127.735 302.455 128.492 302.886C129.249 303.313 129.828 303.928 130.231 304.73C130.638 305.529 130.841 306.487 130.841 307.604C130.841 308.725 130.636 309.688 130.226 310.494C129.82 311.299 129.231 311.919 128.461 312.354C127.69 312.785 126.758 313 125.665 313ZM123.805 311.581H125.576C126.396 311.581 127.077 311.427 127.62 311.119C128.163 310.807 128.569 310.357 128.839 309.769C129.109 309.177 129.243 308.455 129.243 307.604C129.243 306.76 129.109 306.043 128.839 305.455C128.573 304.867 128.175 304.42 127.646 304.115C127.117 303.81 126.46 303.658 125.676 303.658H123.805V311.581ZM135.082 313.179C134.571 313.179 134.108 313.084 133.695 312.895C133.282 312.702 132.954 312.424 132.712 312.06C132.474 311.695 132.355 311.249 132.355 310.72C132.355 310.264 132.443 309.89 132.618 309.595C132.793 309.301 133.029 309.068 133.327 308.897C133.625 308.725 133.958 308.595 134.325 308.508C134.693 308.42 135.068 308.354 135.45 308.308C135.933 308.252 136.326 308.206 136.627 308.171C136.928 308.133 137.147 308.072 137.284 307.988C137.42 307.903 137.488 307.767 137.488 307.578V307.541C137.488 307.082 137.359 306.727 137.1 306.474C136.844 306.222 136.462 306.096 135.954 306.096C135.425 306.096 135.009 306.213 134.704 306.448C134.403 306.679 134.194 306.937 134.079 307.22L132.602 306.884C132.777 306.394 133.033 305.998 133.369 305.697C133.709 305.392 134.1 305.171 134.541 305.035C134.982 304.895 135.446 304.825 135.933 304.825C136.256 304.825 136.597 304.863 136.958 304.94C137.322 305.014 137.662 305.15 137.977 305.35C138.296 305.55 138.557 305.835 138.76 306.206C138.963 306.574 139.065 307.052 139.065 307.641V313H137.531V311.897H137.467C137.366 312.1 137.214 312.299 137.01 312.496C136.807 312.692 136.546 312.855 136.227 312.984C135.909 313.114 135.527 313.179 135.082 313.179ZM135.424 311.918C135.858 311.918 136.229 311.832 136.537 311.66C136.849 311.489 137.086 311.264 137.247 310.988C137.411 310.707 137.494 310.408 137.494 310.089V309.049C137.438 309.105 137.329 309.157 137.168 309.207C137.01 309.252 136.83 309.292 136.627 309.327C136.424 309.359 136.226 309.389 136.033 309.417C135.84 309.441 135.679 309.462 135.55 309.48C135.245 309.518 134.966 309.583 134.714 309.674C134.466 309.765 134.266 309.897 134.115 310.068C133.968 310.236 133.895 310.46 133.895 310.741C133.895 311.13 134.038 311.424 134.325 311.623C134.613 311.82 134.979 311.918 135.424 311.918ZM144.924 304.93V306.191H140.516V304.93H144.924ZM141.698 302.996H143.269V310.63C143.269 310.935 143.315 311.165 143.406 311.319C143.497 311.469 143.614 311.573 143.758 311.629C143.905 311.681 144.064 311.707 144.236 311.707C144.362 311.707 144.473 311.699 144.567 311.681C144.662 311.664 144.735 311.65 144.788 311.639L145.072 312.937C144.98 312.972 144.851 313.007 144.683 313.042C144.515 313.081 144.304 313.102 144.052 313.105C143.639 313.112 143.254 313.039 142.896 312.884C142.539 312.73 142.25 312.492 142.029 312.17C141.809 311.848 141.698 311.443 141.698 310.956V302.996ZM149.011 313.179C148.499 313.179 148.037 313.084 147.624 312.895C147.21 312.702 146.883 312.424 146.641 312.06C146.403 311.695 146.284 311.249 146.284 310.72C146.284 310.264 146.372 309.89 146.547 309.595C146.722 309.301 146.958 309.068 147.256 308.897C147.554 308.725 147.886 308.595 148.254 308.508C148.622 308.42 148.997 308.354 149.379 308.308C149.862 308.252 150.254 308.206 150.556 308.171C150.857 308.133 151.076 308.072 151.212 307.988C151.349 307.903 151.417 307.767 151.417 307.578V307.541C151.417 307.082 151.288 306.727 151.028 306.474C150.773 306.222 150.391 306.096 149.883 306.096C149.354 306.096 148.937 306.213 148.633 306.448C148.331 306.679 148.123 306.937 148.007 307.22L146.531 306.884C146.706 306.394 146.962 305.998 147.298 305.697C147.638 305.392 148.028 305.171 148.47 305.035C148.911 304.895 149.375 304.825 149.862 304.825C150.184 304.825 150.526 304.863 150.887 304.94C151.251 305.014 151.591 305.15 151.906 305.35C152.225 305.55 152.486 305.835 152.689 306.206C152.892 306.574 152.993 307.052 152.993 307.641V313H151.459V311.897H151.396C151.295 312.1 151.142 312.299 150.939 312.496C150.736 312.692 150.475 312.855 150.156 312.984C149.837 313.114 149.456 313.179 149.011 313.179ZM149.352 311.918C149.787 311.918 150.158 311.832 150.466 311.66C150.778 311.489 151.014 311.264 151.176 310.988C151.34 310.707 151.423 310.408 151.423 310.089V309.049C151.366 309.105 151.258 309.157 151.097 309.207C150.939 309.252 150.759 309.292 150.556 309.327C150.352 309.359 150.154 309.389 149.962 309.417C149.769 309.441 149.608 309.462 149.478 309.48C149.174 309.518 148.895 309.583 148.643 309.674C148.394 309.765 148.195 309.897 148.044 310.068C147.897 310.236 147.823 310.46 147.823 310.741C147.823 311.13 147.967 311.424 148.254 311.623C148.541 311.82 148.908 311.918 149.352 311.918ZM160.037 313H158.313L162.186 302.239H164.061L167.934 313H166.21L163.168 304.194H163.084L160.037 313ZM160.326 308.786H165.916V310.152H160.326V308.786ZM170.932 308.208V313H169.361V304.93H170.869V306.243H170.969C171.155 305.816 171.446 305.473 171.841 305.213C172.241 304.954 172.743 304.825 173.349 304.825C173.899 304.825 174.381 304.94 174.794 305.171C175.208 305.399 175.528 305.739 175.756 306.191C175.983 306.642 176.097 307.201 176.097 307.867V313H174.526V308.056C174.526 307.471 174.374 307.014 174.069 306.685C173.764 306.352 173.346 306.185 172.813 306.185C172.449 306.185 172.125 306.264 171.841 306.422C171.561 306.579 171.339 306.811 171.174 307.115C171.013 307.417 170.932 307.781 170.932 308.208ZM180.553 313.179C180.041 313.179 179.579 313.084 179.166 312.895C178.752 312.702 178.425 312.424 178.183 312.06C177.945 311.695 177.826 311.249 177.826 310.72C177.826 310.264 177.914 309.89 178.089 309.595C178.264 309.301 178.5 309.068 178.798 308.897C179.096 308.725 179.428 308.595 179.796 308.508C180.164 308.42 180.539 308.354 180.921 308.308C181.404 308.252 181.796 308.206 182.098 308.171C182.399 308.133 182.618 308.072 182.754 307.988C182.891 307.903 182.959 307.767 182.959 307.578V307.541C182.959 307.082 182.83 306.727 182.57 306.474C182.315 306.222 181.933 306.096 181.425 306.096C180.896 306.096 180.479 306.213 180.175 306.448C179.873 306.679 179.665 306.937 179.549 307.22L178.073 306.884C178.248 306.394 178.504 305.998 178.84 305.697C179.18 305.392 179.57 305.171 180.012 305.035C180.453 304.895 180.917 304.825 181.404 304.825C181.726 304.825 182.068 304.863 182.429 304.94C182.793 305.014 183.133 305.15 183.448 305.35C183.767 305.55 184.028 305.835 184.231 306.206C184.434 306.574 184.535 307.052 184.535 307.641V313H183.001V311.897H182.938C182.837 312.1 182.684 312.299 182.481 312.496C182.278 312.692 182.017 312.855 181.698 312.984C181.38 313.114 180.998 313.179 180.553 313.179ZM180.894 311.918C181.329 311.918 181.7 311.832 182.008 311.66C182.32 311.489 182.556 311.264 182.718 310.988C182.882 310.707 182.965 310.408 182.965 310.089V309.049C182.908 309.105 182.8 309.157 182.639 309.207C182.481 309.252 182.301 309.292 182.098 309.327C181.894 309.359 181.697 309.389 181.504 309.417C181.311 309.441 181.15 309.462 181.02 309.48C180.716 309.518 180.437 309.583 180.185 309.674C179.936 309.765 179.737 309.897 179.586 310.068C179.439 310.236 179.365 310.46 179.365 310.741C179.365 311.13 179.509 311.424 179.796 311.623C180.083 311.82 180.45 311.918 180.894 311.918ZM188.199 302.239V313H186.628V302.239H188.199ZM191.305 316.026C191.071 316.026 190.857 316.007 190.664 315.969C190.472 315.934 190.328 315.895 190.234 315.853L190.612 314.566C190.899 314.643 191.155 314.676 191.379 314.666C191.603 314.655 191.801 314.571 191.973 314.413C192.148 314.256 192.302 313.998 192.435 313.641L192.63 313.105L189.677 304.93H191.358L193.402 311.193H193.486L195.53 304.93H197.216L193.891 314.077C193.736 314.497 193.54 314.853 193.302 315.144C193.064 315.438 192.78 315.659 192.451 315.806C192.122 315.953 191.74 316.026 191.305 316.026ZM204.74 306.9L203.316 307.152C203.257 306.97 203.162 306.797 203.033 306.632C202.907 306.467 202.735 306.332 202.518 306.227C202.301 306.122 202.029 306.07 201.703 306.07C201.259 306.07 200.887 306.17 200.59 306.369C200.292 306.565 200.143 306.819 200.143 307.131C200.143 307.401 200.243 307.618 200.442 307.783C200.642 307.947 200.964 308.082 201.409 308.187L202.691 308.481C203.434 308.653 203.987 308.918 204.352 309.275C204.716 309.632 204.898 310.096 204.898 310.667C204.898 311.151 204.758 311.581 204.478 311.96C204.201 312.334 203.814 312.629 203.316 312.842C202.823 313.056 202.25 313.163 201.598 313.163C200.695 313.163 199.957 312.97 199.386 312.585C198.815 312.196 198.465 311.644 198.336 310.93L199.854 310.699C199.949 311.094 200.143 311.394 200.437 311.597C200.731 311.797 201.115 311.897 201.588 311.897C202.103 311.897 202.514 311.79 202.823 311.576C203.131 311.359 203.285 311.094 203.285 310.783C203.285 310.531 203.19 310.319 203.001 310.147C202.816 309.975 202.53 309.846 202.145 309.758L200.779 309.459C200.026 309.287 199.469 309.014 199.108 308.639C198.751 308.264 198.572 307.79 198.572 307.215C198.572 306.739 198.705 306.322 198.971 305.965C199.237 305.607 199.605 305.329 200.075 305.129C200.544 304.926 201.082 304.825 201.688 304.825C202.56 304.825 203.246 305.014 203.747 305.392C204.248 305.767 204.579 306.269 204.74 306.9ZM210.393 304.93V306.191H205.984V304.93H210.393ZM207.166 302.996H208.737V310.63C208.737 310.935 208.783 311.165 208.874 311.319C208.965 311.469 209.082 311.573 209.226 311.629C209.373 311.681 209.533 311.707 209.704 311.707C209.83 311.707 209.941 311.699 210.035 311.681C210.13 311.664 210.203 311.65 210.256 311.639L210.54 312.937C210.449 312.972 210.319 313.007 210.151 313.042C209.983 313.081 209.773 313.102 209.52 313.105C209.107 313.112 208.722 313.039 208.364 312.884C208.007 312.73 207.718 312.492 207.497 312.17C207.277 311.848 207.166 311.443 207.166 310.956V302.996Z" fill="#999999"/>
<path d="M122.182 400.239H124.152L127.578 408.604H127.704L131.13 400.239H133.1V411H131.555V403.213H131.455L128.282 410.984H127L123.826 403.208H123.727V411H122.182V400.239ZM137.683 411.179C137.171 411.179 136.709 411.084 136.296 410.895C135.882 410.702 135.555 410.424 135.313 410.06C135.075 409.695 134.956 409.249 134.956 408.72C134.956 408.264 135.044 407.89 135.219 407.595C135.394 407.301 135.63 407.068 135.928 406.897C136.226 406.725 136.558 406.595 136.926 406.508C137.294 406.42 137.669 406.354 138.051 406.308C138.534 406.252 138.926 406.206 139.228 406.171C139.529 406.133 139.748 406.072 139.884 405.988C140.021 405.903 140.089 405.767 140.089 405.578V405.541C140.089 405.082 139.96 404.727 139.7 404.474C139.445 404.222 139.063 404.096 138.555 404.096C138.026 404.096 137.609 404.213 137.305 404.448C137.003 404.679 136.795 404.937 136.679 405.22L135.203 404.884C135.378 404.394 135.634 403.998 135.97 403.697C136.31 403.392 136.7 403.171 137.142 403.035C137.583 402.895 138.047 402.825 138.534 402.825C138.856 402.825 139.198 402.863 139.559 402.94C139.923 403.014 140.263 403.15 140.578 403.35C140.897 403.55 141.158 403.835 141.361 404.206C141.564 404.574 141.666 405.052 141.666 405.641V411H140.131V409.897H140.068C139.967 410.1 139.814 410.299 139.611 410.496C139.408 410.692 139.147 410.855 138.828 410.984C138.51 411.114 138.128 411.179 137.683 411.179ZM138.024 409.918C138.459 409.918 138.83 409.832 139.138 409.66C139.45 409.489 139.686 409.264 139.848 408.988C140.012 408.707 140.095 408.408 140.095 408.089V407.049C140.039 407.105 139.93 407.157 139.769 407.207C139.611 407.252 139.431 407.292 139.228 407.327C139.024 407.359 138.827 407.389 138.634 407.417C138.441 407.441 138.28 407.462 138.151 407.48C137.846 407.518 137.567 407.583 137.315 407.674C137.066 407.765 136.867 407.897 136.716 408.068C136.569 408.236 136.495 408.46 136.495 408.741C136.495 409.13 136.639 409.424 136.926 409.623C137.214 409.82 137.58 409.918 138.024 409.918ZM147.157 411.163C146.376 411.163 145.704 410.986 145.14 410.632C144.579 410.275 144.149 409.783 143.847 409.156C143.546 408.529 143.395 407.811 143.395 407.002C143.395 406.182 143.55 405.459 143.858 404.832C144.166 404.201 144.6 403.709 145.161 403.355C145.721 403.001 146.382 402.825 147.142 402.825C147.755 402.825 148.301 402.938 148.781 403.166C149.261 403.39 149.648 403.705 149.942 404.112C150.24 404.518 150.417 404.993 150.473 405.536H148.944C148.86 405.157 148.667 404.832 148.366 404.558C148.068 404.285 147.669 404.149 147.168 404.149C146.73 404.149 146.347 404.264 146.017 404.495C145.692 404.723 145.438 405.049 145.255 405.473C145.073 405.893 144.982 406.39 144.982 406.965C144.982 407.553 145.072 408.061 145.25 408.489C145.429 408.916 145.681 409.247 146.007 409.482C146.336 409.716 146.723 409.834 147.168 409.834C147.466 409.834 147.735 409.779 147.977 409.671C148.222 409.559 148.427 409.399 148.592 409.193C148.76 408.986 148.877 408.737 148.944 408.446H150.473C150.417 408.968 150.247 409.434 149.963 409.844C149.679 410.254 149.299 410.576 148.823 410.811C148.35 411.046 147.795 411.163 147.157 411.163ZM153.724 406.208V411H152.153V400.239H153.703V404.243H153.803C153.992 403.809 154.281 403.464 154.67 403.208C155.058 402.952 155.566 402.825 156.193 402.825C156.747 402.825 157.23 402.938 157.643 403.166C158.06 403.394 158.383 403.734 158.61 404.185C158.841 404.634 158.957 405.194 158.957 405.867V411H157.386V406.056C157.386 405.464 157.234 405.005 156.929 404.679C156.624 404.35 156.2 404.185 155.657 404.185C155.286 404.185 154.953 404.264 154.659 404.422C154.368 404.579 154.139 404.811 153.971 405.115C153.806 405.417 153.724 405.781 153.724 406.208ZM161.053 411V402.93H162.624V411H161.053ZM161.847 401.684C161.574 401.684 161.339 401.593 161.143 401.411C160.95 401.226 160.854 401.005 160.854 400.749C160.854 400.49 160.95 400.269 161.143 400.087C161.339 399.901 161.574 399.809 161.847 399.809C162.12 399.809 162.353 399.901 162.546 400.087C162.742 400.269 162.84 400.49 162.84 400.749C162.84 401.005 162.742 401.226 162.546 401.411C162.353 401.593 162.12 401.684 161.847 401.684ZM166.309 406.208V411H164.738V402.93H166.246V404.243H166.346C166.531 403.816 166.822 403.473 167.218 403.213C167.617 402.954 168.12 402.825 168.726 402.825C169.276 402.825 169.757 402.94 170.171 403.171C170.584 403.399 170.904 403.739 171.132 404.191C171.36 404.642 171.474 405.201 171.474 405.867V411H169.903V406.056C169.903 405.471 169.75 405.014 169.446 404.685C169.141 404.352 168.722 404.185 168.19 404.185C167.826 404.185 167.502 404.264 167.218 404.422C166.938 404.579 166.715 404.811 166.551 405.115C166.389 405.417 166.309 405.781 166.309 406.208ZM177.059 411.163C176.264 411.163 175.579 410.993 175.004 410.653C174.434 410.31 173.992 409.828 173.68 409.208C173.372 408.585 173.218 407.855 173.218 407.017C173.218 406.191 173.372 405.462 173.68 404.832C173.992 404.201 174.427 403.709 174.983 403.355C175.544 403.001 176.199 402.825 176.948 402.825C177.404 402.825 177.845 402.9 178.273 403.05C178.7 403.201 179.083 403.438 179.423 403.76C179.763 404.082 180.031 404.501 180.227 405.016C180.423 405.527 180.521 406.149 180.521 406.881V407.438H174.106V406.261H178.982C178.982 405.847 178.898 405.481 178.73 405.163C178.562 404.84 178.325 404.586 178.02 404.401C177.719 404.215 177.365 404.122 176.959 404.122C176.518 404.122 176.132 404.231 175.803 404.448C175.477 404.662 175.225 404.942 175.046 405.289C174.871 405.632 174.784 406.005 174.784 406.408V407.327C174.784 407.867 174.878 408.326 175.068 408.704C175.26 409.082 175.528 409.371 175.871 409.571C176.215 409.767 176.616 409.865 177.075 409.865C177.372 409.865 177.644 409.823 177.889 409.739C178.134 409.651 178.346 409.522 178.525 409.35C178.703 409.179 178.84 408.967 178.935 408.714L180.421 408.982C180.302 409.42 180.089 409.804 179.78 410.133C179.476 410.459 179.092 410.713 178.63 410.895C178.171 411.074 177.647 411.163 177.059 411.163ZM186.306 411V400.239H187.93V409.602H192.806V411H186.306ZM198.01 411.163C197.215 411.163 196.53 410.993 195.955 410.653C195.384 410.31 194.943 409.828 194.631 409.208C194.323 408.585 194.169 407.855 194.169 407.017C194.169 406.191 194.323 405.462 194.631 404.832C194.943 404.201 195.377 403.709 195.934 403.355C196.495 403.001 197.15 402.825 197.899 402.825C198.355 402.825 198.796 402.9 199.223 403.05C199.651 403.201 200.034 403.438 200.374 403.76C200.714 404.082 200.982 404.501 201.178 405.016C201.374 405.527 201.472 406.149 201.472 406.881V407.438H195.057V406.261H199.933C199.933 405.847 199.849 405.481 199.681 405.163C199.512 404.84 199.276 404.586 198.971 404.401C198.67 404.215 198.316 404.122 197.91 404.122C197.469 404.122 197.083 404.231 196.754 404.448C196.428 404.662 196.176 404.942 195.997 405.289C195.822 405.632 195.735 406.005 195.735 406.408V407.327C195.735 407.867 195.829 408.326 196.018 408.704C196.211 409.082 196.479 409.371 196.822 409.571C197.166 409.767 197.567 409.865 198.026 409.865C198.323 409.865 198.595 409.823 198.84 409.739C199.085 409.651 199.297 409.522 199.476 409.35C199.654 409.179 199.791 408.967 199.886 408.714L201.372 408.982C201.253 409.42 201.04 409.804 200.731 410.133C200.427 410.459 200.043 410.713 199.581 410.895C199.122 411.074 198.598 411.163 198.01 411.163ZM205.564 411.179C205.053 411.179 204.59 411.084 204.177 410.895C203.764 410.702 203.436 410.424 203.194 410.06C202.956 409.695 202.837 409.249 202.837 408.72C202.837 408.264 202.925 407.89 203.1 407.595C203.275 407.301 203.511 407.068 203.809 406.897C204.107 406.725 204.44 406.595 204.807 406.508C205.175 406.42 205.55 406.354 205.932 406.308C206.415 406.252 206.807 406.206 207.109 406.171C207.41 406.133 207.629 406.072 207.765 405.988C207.902 405.903 207.97 405.767 207.97 405.578V405.541C207.97 405.082 207.841 404.727 207.582 404.474C207.326 404.222 206.944 404.096 206.436 404.096C205.907 404.096 205.49 404.213 205.186 404.448C204.884 404.679 204.676 404.937 204.56 405.22L203.084 404.884C203.259 404.394 203.515 403.998 203.851 403.697C204.191 403.392 204.581 403.171 205.023 403.035C205.464 402.895 205.928 402.825 206.415 402.825C206.737 402.825 207.079 402.863 207.44 402.94C207.804 403.014 208.144 403.15 208.459 403.35C208.778 403.55 209.039 403.835 209.242 404.206C209.445 404.574 209.547 405.052 209.547 405.641V411H208.012V409.897H207.949C207.848 410.1 207.695 410.299 207.492 410.496C207.289 410.692 207.028 410.855 206.709 410.984C206.391 411.114 206.009 411.179 205.564 411.179ZM205.905 409.918C206.34 409.918 206.711 409.832 207.019 409.66C207.331 409.489 207.568 409.264 207.729 408.988C207.893 408.707 207.976 408.408 207.976 408.089V407.049C207.92 407.105 207.811 407.157 207.65 407.207C207.492 407.252 207.312 407.292 207.109 407.327C206.905 407.359 206.708 407.389 206.515 407.417C206.322 407.441 206.161 407.462 206.032 407.48C205.727 407.518 205.448 407.583 205.196 407.674C204.947 407.765 204.748 407.897 204.597 408.068C204.45 408.236 204.376 408.46 204.376 408.741C204.376 409.13 204.52 409.424 204.807 409.623C205.095 409.82 205.461 409.918 205.905 409.918ZM211.639 411V402.93H213.158V404.212H213.242C213.389 403.777 213.648 403.436 214.019 403.187C214.394 402.935 214.818 402.809 215.291 402.809C215.389 402.809 215.504 402.812 215.637 402.819C215.774 402.826 215.881 402.835 215.958 402.846V404.348C215.895 404.331 215.783 404.311 215.622 404.29C215.461 404.266 215.299 404.254 215.138 404.254C214.767 404.254 214.436 404.332 214.145 404.49C213.858 404.644 213.63 404.86 213.462 405.136C213.294 405.41 213.21 405.721 213.21 406.072V411H211.639ZM218.888 406.208V411H217.317V402.93H218.825V404.243H218.925C219.111 403.816 219.402 403.473 219.797 403.213C220.197 402.954 220.699 402.825 221.305 402.825C221.855 402.825 222.337 402.94 222.75 403.171C223.164 403.399 223.484 403.739 223.712 404.191C223.939 404.642 224.053 405.201 224.053 405.867V411H222.482V406.056C222.482 405.471 222.33 405.014 222.025 404.685C221.72 404.352 221.302 404.185 220.769 404.185C220.405 404.185 220.081 404.264 219.797 404.422C219.517 404.579 219.295 404.811 219.13 405.115C218.969 405.417 218.888 405.781 218.888 406.208ZM226.16 411V402.93H227.731V411H226.16ZM226.954 401.684C226.68 401.684 226.446 401.593 226.25 401.411C226.057 401.226 225.961 401.005 225.961 400.749C225.961 400.49 226.057 400.269 226.25 400.087C226.446 399.901 226.68 399.809 226.954 399.809C227.227 399.809 227.46 399.901 227.652 400.087C227.849 400.269 227.947 400.49 227.947 400.749C227.947 401.005 227.849 401.226 227.652 401.411C227.46 401.593 227.227 401.684 226.954 401.684ZM231.416 406.208V411H229.845V402.93H231.353V404.243H231.452C231.638 403.816 231.929 403.473 232.325 403.213C232.724 402.954 233.227 402.825 233.833 402.825C234.383 402.825 234.864 402.94 235.277 403.171C235.691 403.399 236.011 403.739 236.239 404.191C236.467 404.642 236.581 405.201 236.581 405.867V411H235.01V406.056C235.01 405.471 234.857 405.014 234.552 404.685C234.248 404.352 233.829 404.185 233.297 404.185C232.932 404.185 232.608 404.264 232.325 404.422C232.044 404.579 231.822 404.811 231.657 405.115C231.496 405.417 231.416 405.781 231.416 406.208ZM242.071 414.195C241.43 414.195 240.878 414.11 240.416 413.942C239.957 413.774 239.582 413.552 239.292 413.275C239.001 412.998 238.784 412.695 238.64 412.366L239.99 411.809C240.085 411.963 240.211 412.126 240.369 412.298C240.53 412.473 240.747 412.622 241.02 412.744C241.297 412.867 241.653 412.928 242.087 412.928C242.682 412.928 243.174 412.783 243.563 412.492C243.952 412.205 244.147 411.746 244.147 411.116V409.529H244.047C243.952 409.7 243.815 409.891 243.637 410.102C243.462 410.312 243.22 410.494 242.912 410.648C242.604 410.802 242.202 410.879 241.709 410.879C241.071 410.879 240.497 410.73 239.985 410.433C239.477 410.131 239.074 409.688 238.777 409.103C238.483 408.515 238.335 407.791 238.335 406.933C238.335 406.075 238.481 405.34 238.772 404.727C239.066 404.114 239.469 403.644 239.98 403.318C240.491 402.989 241.071 402.825 241.719 402.825C242.22 402.825 242.625 402.909 242.933 403.077C243.241 403.241 243.481 403.434 243.653 403.655C243.828 403.875 243.963 404.07 244.057 404.238H244.173V402.93H245.712V411.179C245.712 411.872 245.551 412.441 245.229 412.886C244.907 413.331 244.471 413.66 243.921 413.874C243.374 414.088 242.758 414.195 242.071 414.195ZM242.055 409.576C242.507 409.576 242.889 409.471 243.201 409.261C243.516 409.047 243.754 408.742 243.915 408.347C244.08 407.947 244.162 407.469 244.162 406.912C244.162 406.369 244.082 405.891 243.921 405.478C243.759 405.065 243.523 404.742 243.211 404.511C242.9 404.276 242.514 404.159 242.055 404.159C241.582 404.159 241.188 404.282 240.873 404.527C240.558 404.769 240.32 405.098 240.159 405.515C240.001 405.931 239.922 406.397 239.922 406.912C239.922 407.441 240.003 407.905 240.164 408.305C240.325 408.704 240.563 409.016 240.878 409.24C241.197 409.464 241.589 409.576 242.055 409.576Z" fill="#A9A9A9"/>
<path d="M122.182 492.239H124.152L127.578 500.604H127.704L131.13 492.239H133.1V503H131.555V495.213H131.455L128.282 502.984H127L123.826 495.208H123.727V503H122.182V492.239ZM138.734 503.163C137.977 503.163 137.317 502.989 136.753 502.643C136.189 502.296 135.751 501.811 135.439 501.187C135.128 500.564 134.972 499.835 134.972 499.002C134.972 498.164 135.128 497.432 135.439 496.805C135.751 496.178 136.189 495.691 136.753 495.345C137.317 494.998 137.977 494.825 138.734 494.825C139.49 494.825 140.151 494.998 140.715 495.345C141.278 495.691 141.716 496.178 142.028 496.805C142.34 497.432 142.496 498.164 142.496 499.002C142.496 499.835 142.34 500.564 142.028 501.187C141.716 501.811 141.278 502.296 140.715 502.643C140.151 502.989 139.49 503.163 138.734 503.163ZM138.739 501.844C139.229 501.844 139.636 501.714 139.958 501.455C140.28 501.196 140.518 500.851 140.673 500.42C140.83 499.989 140.909 499.515 140.909 498.996C140.909 498.481 140.83 498.009 140.673 497.578C140.518 497.143 140.28 496.795 139.958 496.532C139.636 496.269 139.229 496.138 138.739 496.138C138.245 496.138 137.835 496.269 137.51 496.532C137.187 496.795 136.947 497.143 136.79 497.578C136.636 498.009 136.558 498.481 136.558 498.996C136.558 499.515 136.636 499.989 136.79 500.42C136.947 500.851 137.187 501.196 137.51 501.455C137.835 501.714 138.245 501.844 138.739 501.844ZM144.375 503V492.239H145.946V496.238H146.041C146.132 496.07 146.263 495.875 146.435 495.655C146.607 495.434 146.845 495.241 147.15 495.077C147.454 494.909 147.857 494.825 148.358 494.825C149.01 494.825 149.591 494.989 150.102 495.318C150.614 495.648 151.015 496.122 151.306 496.742C151.6 497.362 151.747 498.108 151.747 498.981C151.747 499.853 151.602 500.601 151.311 501.224C151.02 501.844 150.621 502.322 150.113 502.658C149.605 502.991 149.025 503.158 148.374 503.158C147.883 503.158 147.482 503.075 147.171 502.911C146.862 502.746 146.621 502.553 146.446 502.333C146.27 502.112 146.136 501.916 146.041 501.744H145.91V503H144.375ZM145.915 498.965C145.915 499.532 145.997 500.03 146.162 500.457C146.326 500.884 146.565 501.219 146.876 501.461C147.188 501.699 147.57 501.818 148.022 501.818C148.491 501.818 148.883 501.693 149.199 501.445C149.514 501.193 149.752 500.851 149.913 500.42C150.078 499.989 150.16 499.504 150.16 498.965C150.16 498.432 150.08 497.954 149.918 497.53C149.761 497.107 149.523 496.772 149.204 496.527C148.889 496.282 148.495 496.159 148.022 496.159C147.566 496.159 147.181 496.276 146.866 496.511C146.554 496.746 146.318 497.073 146.157 497.494C145.995 497.914 145.915 498.404 145.915 498.965ZM153.511 503V494.93H155.082V503H153.511ZM154.304 493.684C154.031 493.684 153.797 493.593 153.6 493.411C153.408 493.226 153.311 493.005 153.311 492.749C153.311 492.49 153.408 492.269 153.6 492.087C153.797 491.901 154.031 491.809 154.304 491.809C154.578 491.809 154.811 491.901 155.003 492.087C155.199 492.269 155.297 492.49 155.297 492.749C155.297 493.005 155.199 493.226 155.003 493.411C154.811 493.593 154.578 493.684 154.304 493.684ZM158.766 492.239V503H157.196V492.239H158.766ZM164.358 503.163C163.563 503.163 162.878 502.993 162.304 502.653C161.733 502.31 161.292 501.828 160.98 501.208C160.672 500.585 160.517 499.855 160.517 499.017C160.517 498.191 160.672 497.462 160.98 496.832C161.292 496.201 161.726 495.709 162.283 495.355C162.843 495.001 163.498 494.825 164.248 494.825C164.703 494.825 165.145 494.9 165.572 495.05C165.999 495.201 166.383 495.438 166.723 495.76C167.062 496.082 167.33 496.501 167.526 497.016C167.723 497.527 167.821 498.149 167.821 498.881V499.438H161.405V498.261H166.281C166.281 497.847 166.197 497.481 166.029 497.163C165.861 496.84 165.624 496.586 165.32 496.401C165.019 496.215 164.665 496.122 164.258 496.122C163.817 496.122 163.432 496.231 163.102 496.448C162.777 496.662 162.525 496.942 162.346 497.289C162.171 497.632 162.083 498.005 162.083 498.408V499.327C162.083 499.867 162.178 500.326 162.367 500.704C162.56 501.082 162.828 501.371 163.171 501.571C163.514 501.767 163.915 501.865 164.374 501.865C164.672 501.865 164.943 501.823 165.188 501.739C165.434 501.651 165.645 501.522 165.824 501.35C166.003 501.179 166.139 500.967 166.234 500.714L167.721 500.982C167.602 501.42 167.388 501.804 167.08 502.133C166.775 502.459 166.392 502.713 165.929 502.895C165.47 503.074 164.947 503.163 164.358 503.163ZM175.828 503.179C175.317 503.179 174.854 503.084 174.441 502.895C174.028 502.702 173.7 502.424 173.458 502.06C173.22 501.695 173.101 501.249 173.101 500.72C173.101 500.264 173.189 499.89 173.364 499.595C173.539 499.301 173.775 499.068 174.073 498.897C174.371 498.725 174.704 498.595 175.071 498.508C175.439 498.42 175.814 498.354 176.196 498.308C176.679 498.252 177.072 498.206 177.373 498.171C177.674 498.133 177.893 498.072 178.03 497.988C178.166 497.903 178.234 497.767 178.234 497.578V497.541C178.234 497.082 178.105 496.727 177.846 496.474C177.59 496.222 177.208 496.096 176.7 496.096C176.171 496.096 175.754 496.213 175.45 496.448C175.149 496.679 174.94 496.937 174.825 497.22L173.348 496.884C173.523 496.394 173.779 495.998 174.115 495.697C174.455 495.392 174.846 495.171 175.287 495.035C175.728 494.895 176.192 494.825 176.679 494.825C177.001 494.825 177.343 494.863 177.704 494.94C178.068 495.014 178.408 495.15 178.723 495.35C179.042 495.55 179.303 495.835 179.506 496.206C179.709 496.574 179.811 497.052 179.811 497.641V503H178.276V501.897H178.213C178.112 502.1 177.959 502.299 177.756 502.496C177.553 502.692 177.292 502.855 176.973 502.984C176.655 503.114 176.273 503.179 175.828 503.179ZM176.17 501.918C176.604 501.918 176.975 501.832 177.283 501.66C177.595 501.489 177.832 501.264 177.993 500.988C178.157 500.707 178.24 500.408 178.24 500.089V499.049C178.184 499.105 178.075 499.157 177.914 499.207C177.756 499.252 177.576 499.292 177.373 499.327C177.17 499.359 176.972 499.389 176.779 499.417C176.586 499.441 176.425 499.462 176.296 499.48C175.991 499.518 175.712 499.583 175.46 499.674C175.212 499.765 175.012 499.897 174.861 500.068C174.714 500.236 174.641 500.46 174.641 500.741C174.641 501.13 174.784 501.424 175.071 501.623C175.359 501.82 175.725 501.918 176.17 501.918ZM181.903 506.026V494.93H183.437V496.238H183.569C183.66 496.07 183.791 495.875 183.963 495.655C184.134 495.434 184.373 495.241 184.677 495.077C184.982 494.909 185.385 494.825 185.886 494.825C186.537 494.825 187.119 494.989 187.63 495.318C188.142 495.648 188.543 496.122 188.833 496.742C189.128 497.362 189.275 498.108 189.275 498.981C189.275 499.853 189.129 500.601 188.839 501.224C188.548 501.844 188.149 502.322 187.641 502.658C187.133 502.991 186.553 503.158 185.902 503.158C185.411 503.158 185.01 503.075 184.698 502.911C184.39 502.746 184.148 502.553 183.973 502.333C183.798 502.112 183.663 501.916 183.569 501.744H183.474V506.026H181.903ZM183.443 498.965C183.443 499.532 183.525 500.03 183.69 500.457C183.854 500.884 184.092 501.219 184.404 501.461C184.716 501.699 185.098 501.818 185.55 501.818C186.019 501.818 186.411 501.693 186.726 501.445C187.042 501.193 187.28 500.851 187.441 500.42C187.606 499.989 187.688 499.504 187.688 498.965C187.688 498.432 187.607 497.954 187.446 497.53C187.289 497.107 187.05 496.772 186.732 496.527C186.416 496.282 186.022 496.159 185.55 496.159C185.094 496.159 184.709 496.276 184.394 496.511C184.082 496.746 183.845 497.073 183.684 497.494C183.523 497.914 183.443 498.404 183.443 498.965ZM191.035 506.026V494.93H192.569V496.238H192.7C192.792 496.07 192.923 495.875 193.095 495.655C193.266 495.434 193.504 495.241 193.809 495.077C194.114 494.909 194.517 494.825 195.018 494.825C195.669 494.825 196.251 494.989 196.762 495.318C197.273 495.648 197.674 496.122 197.965 496.742C198.259 497.362 198.406 498.108 198.406 498.981C198.406 499.853 198.261 500.601 197.97 501.224C197.68 501.844 197.28 502.322 196.772 502.658C196.265 502.991 195.685 503.158 195.033 503.158C194.543 503.158 194.142 503.075 193.83 502.911C193.522 502.746 193.28 502.553 193.105 502.333C192.93 502.112 192.795 501.916 192.7 501.744H192.606V506.026H191.035ZM192.574 498.965C192.574 499.532 192.657 500.03 192.821 500.457C192.986 500.884 193.224 501.219 193.536 501.461C193.848 501.699 194.229 501.818 194.681 501.818C195.151 501.818 195.543 501.693 195.858 501.445C196.173 501.193 196.412 500.851 196.573 500.42C196.737 499.989 196.82 499.504 196.82 498.965C196.82 498.432 196.739 497.954 196.578 497.53C196.42 497.107 196.182 496.772 195.863 496.527C195.548 496.282 195.154 496.159 194.681 496.159C194.226 496.159 193.841 496.276 193.525 496.511C193.214 496.746 192.977 497.073 192.816 497.494C192.655 497.914 192.574 498.404 192.574 498.965ZM207.103 503.158C206.452 503.158 205.87 502.991 205.359 502.658C204.851 502.322 204.452 501.844 204.161 501.224C203.874 500.601 203.73 499.853 203.73 498.981C203.73 498.108 203.876 497.362 204.166 496.742C204.461 496.122 204.863 495.648 205.375 495.318C205.886 494.989 206.466 494.825 207.114 494.825C207.615 494.825 208.018 494.909 208.322 495.077C208.631 495.241 208.869 495.434 209.037 495.655C209.209 495.875 209.342 496.07 209.436 496.238H209.531V492.239H211.102V503H209.568V501.744H209.436C209.342 501.916 209.205 502.112 209.026 502.333C208.851 502.553 208.61 502.746 208.301 502.911C207.993 503.075 207.594 503.158 207.103 503.158ZM207.45 501.818C207.902 501.818 208.284 501.699 208.596 501.461C208.911 501.219 209.149 500.884 209.31 500.457C209.475 500.03 209.557 499.532 209.557 498.965C209.557 498.404 209.477 497.914 209.315 497.494C209.154 497.073 208.918 496.746 208.606 496.511C208.294 496.276 207.909 496.159 207.45 496.159C206.977 496.159 206.583 496.282 206.268 496.527C205.953 496.772 205.715 497.107 205.553 497.53C205.396 497.954 205.317 498.432 205.317 498.965C205.317 499.504 205.398 499.989 205.559 500.42C205.72 500.851 205.958 501.193 206.273 501.445C206.592 501.693 206.984 501.818 207.45 501.818ZM216.822 503.163C216.027 503.163 215.342 502.993 214.768 502.653C214.197 502.31 213.756 501.828 213.444 501.208C213.136 500.585 212.981 499.855 212.981 499.017C212.981 498.191 213.136 497.462 213.444 496.832C213.756 496.201 214.19 495.709 214.747 495.355C215.307 495.001 215.962 494.825 216.712 494.825C217.167 494.825 217.609 494.9 218.036 495.05C218.463 495.201 218.847 495.438 219.187 495.76C219.526 496.082 219.794 496.501 219.991 497.016C220.187 497.527 220.285 498.149 220.285 498.881V499.438H213.869V498.261H218.745C218.745 497.847 218.661 497.481 218.493 497.163C218.325 496.84 218.089 496.586 217.784 496.401C217.483 496.215 217.129 496.122 216.722 496.122C216.281 496.122 215.896 496.231 215.567 496.448C215.241 496.662 214.989 496.942 214.81 497.289C214.635 497.632 214.547 498.005 214.547 498.408V499.327C214.547 499.867 214.642 500.326 214.831 500.704C215.024 501.082 215.292 501.371 215.635 501.571C215.978 501.767 216.379 501.865 216.838 501.865C217.136 501.865 217.407 501.823 217.652 501.739C217.898 501.651 218.11 501.522 218.288 501.35C218.467 501.179 218.603 500.967 218.698 500.714L220.185 500.982C220.066 501.42 219.852 501.804 219.544 502.133C219.239 502.459 218.856 502.713 218.393 502.895C217.934 503.074 217.411 503.163 216.822 503.163ZM228.701 494.93L225.774 503H224.093L221.161 494.93H222.847L224.891 501.14H224.975L227.014 494.93H228.701ZM233.381 503.163C232.586 503.163 231.901 502.993 231.326 502.653C230.755 502.31 230.314 501.828 230.002 501.208C229.694 500.585 229.54 499.855 229.54 499.017C229.54 498.191 229.694 497.462 230.002 496.832C230.314 496.201 230.748 495.709 231.305 495.355C231.866 495.001 232.521 494.825 233.27 494.825C233.726 494.825 234.167 494.9 234.594 495.05C235.022 495.201 235.405 495.438 235.745 495.76C236.085 496.082 236.353 496.501 236.549 497.016C236.745 497.527 236.843 498.149 236.843 498.881V499.438H230.428V498.261H235.304C235.304 497.847 235.22 497.481 235.052 497.163C234.883 496.84 234.647 496.586 234.342 496.401C234.041 496.215 233.687 496.122 233.281 496.122C232.84 496.122 232.454 496.231 232.125 496.448C231.799 496.662 231.547 496.942 231.368 497.289C231.193 497.632 231.106 498.005 231.106 498.408V499.327C231.106 499.867 231.2 500.326 231.389 500.704C231.582 501.082 231.85 501.371 232.193 501.571C232.537 501.767 232.938 501.865 233.397 501.865C233.694 501.865 233.966 501.823 234.211 501.739C234.456 501.651 234.668 501.522 234.847 501.35C235.025 501.179 235.162 500.967 235.256 500.714L236.743 500.982C236.624 501.42 236.411 501.804 236.102 502.133C235.798 502.459 235.414 502.713 234.952 502.895C234.493 503.074 233.969 503.163 233.381 503.163ZM240.157 492.239V503H238.586V492.239H240.157ZM245.67 503.163C244.914 503.163 244.253 502.989 243.689 502.643C243.125 502.296 242.688 501.811 242.376 501.187C242.064 500.564 241.908 499.835 241.908 499.002C241.908 498.164 242.064 497.432 242.376 496.805C242.688 496.178 243.125 495.691 243.689 495.345C244.253 494.998 244.914 494.825 245.67 494.825C246.427 494.825 247.087 494.998 247.651 495.345C248.215 495.691 248.653 496.178 248.965 496.805C249.276 497.432 249.432 498.164 249.432 499.002C249.432 499.835 249.276 500.564 248.965 501.187C248.653 501.811 248.215 502.296 247.651 502.643C247.087 502.989 246.427 503.163 245.67 503.163ZM245.675 501.844C246.166 501.844 246.572 501.714 246.894 501.455C247.217 501.196 247.455 500.851 247.609 500.42C247.767 499.989 247.845 499.515 247.845 498.996C247.845 498.481 247.767 498.009 247.609 497.578C247.455 497.143 247.217 496.795 246.894 496.532C246.572 496.269 246.166 496.138 245.675 496.138C245.182 496.138 244.772 496.269 244.446 496.532C244.124 496.795 243.884 497.143 243.726 497.578C243.572 498.009 243.495 498.481 243.495 498.996C243.495 499.515 243.572 499.989 243.726 500.42C243.884 500.851 244.124 501.196 244.446 501.455C244.772 501.714 245.182 501.844 245.675 501.844ZM251.186 506.026V494.93H252.72V496.238H252.851C252.942 496.07 253.074 495.875 253.245 495.655C253.417 495.434 253.655 495.241 253.96 495.077C254.265 494.909 254.668 494.825 255.168 494.825C255.82 494.825 256.401 494.989 256.913 495.318C257.424 495.648 257.825 496.122 258.116 496.742C258.41 497.362 258.557 498.108 258.557 498.981C258.557 499.853 258.412 500.601 258.121 501.224C257.831 501.844 257.431 502.322 256.923 502.658C256.415 502.991 255.836 503.158 255.184 503.158C254.694 503.158 254.293 503.075 253.981 502.911C253.673 502.746 253.431 502.553 253.256 502.333C253.081 502.112 252.946 501.916 252.851 501.744H252.757V506.026H251.186ZM252.725 498.965C252.725 499.532 252.808 500.03 252.972 500.457C253.137 500.884 253.375 501.219 253.687 501.461C253.998 501.699 254.38 501.818 254.832 501.818C255.302 501.818 255.694 501.693 256.009 501.445C256.324 501.193 256.563 500.851 256.724 500.42C256.888 499.989 256.971 499.504 256.971 498.965C256.971 498.432 256.89 497.954 256.729 497.53C256.571 497.107 256.333 496.772 256.014 496.527C255.699 496.282 255.305 496.159 254.832 496.159C254.377 496.159 253.991 496.276 253.676 496.511C253.364 496.746 253.128 497.073 252.967 497.494C252.806 497.914 252.725 498.404 252.725 498.965ZM263.796 503.163C263.001 503.163 262.316 502.993 261.741 502.653C261.17 502.31 260.729 501.828 260.417 501.208C260.109 500.585 259.955 499.855 259.955 499.017C259.955 498.191 260.109 497.462 260.417 496.832C260.729 496.201 261.163 495.709 261.72 495.355C262.281 495.001 262.936 494.825 263.685 494.825C264.141 494.825 264.582 494.9 265.009 495.05C265.437 495.201 265.82 495.438 266.16 495.76C266.5 496.082 266.768 496.501 266.964 497.016C267.16 497.527 267.258 498.149 267.258 498.881V499.438H260.843V498.261H265.719C265.719 497.847 265.635 497.481 265.467 497.163C265.298 496.84 265.062 496.586 264.757 496.401C264.456 496.215 264.102 496.122 263.696 496.122C263.255 496.122 262.869 496.231 262.54 496.448C262.214 496.662 261.962 496.942 261.783 497.289C261.608 497.632 261.521 498.005 261.521 498.408V499.327C261.521 499.867 261.615 500.326 261.804 500.704C261.997 501.082 262.265 501.371 262.608 501.571C262.952 501.767 263.353 501.865 263.811 501.865C264.109 501.865 264.381 501.823 264.626 501.739C264.871 501.651 265.083 501.522 265.262 501.35C265.44 501.179 265.577 500.967 265.671 500.714L267.158 500.982C267.039 501.42 266.826 501.804 266.517 502.133C266.213 502.459 265.829 502.713 265.367 502.895C264.908 503.074 264.384 503.163 263.796 503.163ZM269.001 503V494.93H270.52V496.212H270.604C270.751 495.777 271.01 495.436 271.381 495.187C271.756 494.935 272.18 494.809 272.653 494.809C272.751 494.809 272.867 494.812 273 494.819C273.136 494.826 273.243 494.835 273.32 494.846V496.348C273.257 496.331 273.145 496.311 272.984 496.29C272.823 496.266 272.662 496.254 272.501 496.254C272.129 496.254 271.798 496.332 271.508 496.49C271.22 496.644 270.993 496.86 270.824 497.136C270.656 497.41 270.572 497.721 270.572 498.072V503H269.001Z" fill="#C9C9C9"/>
<path d="M84.5167 162.387C97.6715 162.387 108.336 151.723 108.336 138.568C108.336 125.414 97.6715 114.75 84.5167 114.75C71.3619 114.75 60.6979 125.414 60.6979 138.568C60.6979 151.723 71.3619 162.387 84.5167 162.387Z" fill="#3D3D3D"/>
<path d="M85.0226 139.659C89.0604 139.659 92.3337 136.385 92.3337 132.348C92.3337 128.31 89.0604 125.037 85.0226 125.037C80.9847 125.037 77.7114 128.31 77.7114 132.348C77.7114 136.385 80.9847 139.659 85.0226 139.659Z" fill="white"/>
<path d="M85.0229 141.371C82.3397 141.261 79.6984 142.062 77.528 143.643C75.3578 145.225 73.786 147.493 73.0681 150.082C73.0165 150.351 73.0406 150.63 73.1377 150.886C73.2348 151.143 73.4012 151.368 73.6183 151.536C74.1435 151.96 74.8017 152.184 75.4764 152.17H94.5723C95.2471 152.184 95.9052 151.96 96.4304 151.536C96.6476 151.368 96.8139 151.143 96.911 150.886C97.0081 150.63 97.0322 150.351 96.9806 150.082C96.2626 147.493 94.6904 145.224 92.5195 143.642C90.3486 142.061 87.7066 141.261 85.0229 141.371Z" fill="white"/>
<path d="M159.454 234.546H125.507C123.234 234.546 121.392 236.388 121.392 238.661C121.392 240.934 123.234 242.776 125.507 242.776H159.454C161.727 242.776 163.569 240.934 163.569 238.661C163.569 236.388 161.727 234.546 159.454 234.546Z" fill="#090909"/>
<path d="M84.5167 254.971C97.6715 254.971 108.336 244.307 108.336 231.152C108.336 217.998 97.6715 207.333 84.5167 207.333C71.3619 207.333 60.6979 217.998 60.6979 231.152C60.6979 244.307 71.3619 254.971 84.5167 254.971Z" fill="#3C3C3C"/>
<path d="M85.0227 232.243C89.0605 232.243 92.3338 228.969 92.3338 224.932C92.3338 220.894 89.0605 217.621 85.0227 217.621C80.9848 217.621 77.7115 220.894 77.7115 224.932C77.7115 228.969 80.9848 232.243 85.0227 232.243Z" fill="white"/>
<path d="M85.0236 233.955C82.3405 233.845 79.6992 234.646 77.5288 236.227C75.3585 237.809 73.7867 240.077 73.0688 242.666C73.0173 242.935 73.0413 243.214 73.1384 243.47C73.2356 243.727 73.4019 243.952 73.6191 244.12C74.1442 244.544 74.8024 244.768 75.4771 244.754H94.5731C95.2478 244.768 95.906 244.544 96.4311 244.12C96.6483 243.952 96.8146 243.727 96.9117 243.47C97.0088 243.214 97.0329 242.935 96.9814 242.666C96.2633 240.077 94.6912 237.808 92.5203 236.226C90.3493 234.645 87.7073 233.845 85.0236 233.955Z" fill="white"/>
<path d="M206.766 327.289H125.825C123.552 327.289 121.71 329.131 121.71 331.403C121.71 333.676 123.552 335.518 125.825 335.518H206.766C209.038 335.518 210.881 333.676 210.881 331.403C210.881 329.131 209.038 327.289 206.766 327.289Z" fill="#090909"/>
<path d="M84.5167 347.555C97.6715 347.555 108.336 336.891 108.336 323.736C108.336 310.582 97.6715 299.917 84.5167 299.917C71.3619 299.917 60.6979 310.582 60.6979 323.736C60.6979 336.891 71.3619 347.555 84.5167 347.555Z" fill="#3C3C3C"/>
<path d="M85.0227 324.827C89.0605 324.827 92.3338 321.553 92.3338 317.516C92.3338 313.478 89.0605 310.205 85.0227 310.205C80.9848 310.205 77.7115 313.478 77.7115 317.516C77.7115 321.553 80.9848 324.827 85.0227 324.827Z" fill="white"/>
<path d="M85.0236 326.539C82.3405 326.429 79.6992 327.23 77.5288 328.811C75.3585 330.393 73.7867 332.661 73.0688 335.25C73.0173 335.519 73.0413 335.798 73.1384 336.054C73.2356 336.311 73.4019 336.536 73.6191 336.704C74.1442 337.128 74.8024 337.352 75.4771 337.338H94.5731C95.2478 337.352 95.906 337.128 96.4311 336.704C96.6483 336.536 96.8146 336.311 96.9117 336.054C97.0088 335.798 97.0329 335.519 96.9814 335.25C96.2633 332.661 94.6912 330.392 92.5203 328.81C90.3493 327.229 87.7073 326.429 85.0236 326.539Z" fill="white"/>
<path d="M155.34 425.305H125.507C123.234 425.305 121.392 427.147 121.392 429.42C121.392 431.693 123.234 433.535 125.507 433.535H155.34C157.612 433.535 159.454 431.693 159.454 429.42C159.454 427.147 157.612 425.305 155.34 425.305Z" fill="#090909"/>
<path d="M84.5167 441.168C97.6715 441.168 108.336 430.503 108.336 417.349C108.336 404.194 97.6715 393.53 84.5167 393.53C71.3619 393.53 60.6979 404.194 60.6979 417.349C60.6979 430.503 71.3619 441.168 84.5167 441.168Z" fill="#C39FFF"/>
<path d="M85.0227 418.439C89.0605 418.439 92.3338 415.166 92.3338 411.128C92.3338 407.09 89.0605 403.817 85.0227 403.817C80.9848 403.817 77.7115 407.09 77.7115 411.128C77.7115 415.166 80.9848 418.439 85.0227 418.439Z" fill="white"/>
<path d="M85.0236 420.151C82.3405 420.041 79.6992 420.842 77.5288 422.423C75.3585 424.005 73.7867 426.274 73.0688 428.862C73.0173 429.132 73.0413 429.41 73.1384 429.666C73.2356 429.924 73.4019 430.148 73.6191 430.317C74.1442 430.74 74.8024 430.965 75.4771 430.95H94.5731C95.2478 430.965 95.906 430.74 96.4311 430.317C96.6483 430.148 96.8146 429.924 96.9117 429.666C97.0088 429.41 97.0329 429.132 96.9814 428.862C96.2633 426.274 94.6912 424.004 92.5203 422.422C90.3493 420.841 87.7073 420.041 85.0236 420.151Z" fill="white"/>
<path d="M159.454 516.889H125.507C123.234 516.889 121.392 518.731 121.392 521.004C121.392 523.277 123.234 525.119 125.507 525.119H159.454C161.727 525.119 163.569 523.277 163.569 521.004C163.569 518.731 161.727 516.889 159.454 516.889Z" fill="#090909"/>
<path d="M84.5167 534.218C97.6715 534.218 108.336 523.554 108.336 510.399C108.336 497.244 97.6715 486.58 84.5167 486.58C71.3619 486.58 60.6979 497.244 60.6979 510.399C60.6979 523.554 71.3619 534.218 84.5167 534.218Z" fill="#D59FFF"/>
<path d="M85.0227 511.023C89.0605 511.023 92.3338 507.75 92.3338 503.712C92.3338 499.675 89.0605 496.401 85.0227 496.401C80.9848 496.401 77.7115 499.675 77.7115 503.712C77.7115 507.75 80.9848 511.023 85.0227 511.023Z" fill="white"/>
<path d="M85.0236 512.735C82.3405 512.625 79.6992 513.426 77.5288 515.008C75.3585 516.59 73.7867 518.858 73.0688 521.446C73.0173 521.716 73.0413 521.995 73.1384 522.251C73.2356 522.508 73.4019 522.732 73.6191 522.901C74.1442 523.325 74.8024 523.549 75.4771 523.535H94.5731C95.2478 523.549 95.906 523.325 96.4311 522.901C96.6483 522.732 96.8146 522.508 96.9117 522.251C97.0088 521.995 97.0329 521.716 96.9814 521.446C96.2633 518.858 94.6912 516.589 92.5203 515.007C90.3493 513.425 87.7073 512.625 85.0236 512.735Z" fill="white"/>
<path d="M141.289 59.6653H64.8446C62.0658 59.6653 59.8131 61.918 59.8131 64.6968C59.8131 67.4756 62.0658 69.7282 64.8446 69.7282H141.289C144.068 69.7282 146.321 67.4756 146.321 64.6968C146.321 61.918 144.068 59.6653 141.289 59.6653Z" fill="#B4B9CF"/>
<path d="M269.122 59.6653H240.766C237.988 59.6653 235.735 61.918 235.735 64.6968C235.735 67.4756 237.988 69.7282 240.766 69.7282H269.122C271.9 69.7282 274.153 67.4756 274.153 64.6968C274.153 61.918 271.9 59.6653 269.122 59.6653Z" fill="#B4B9CF"/>
<path d="M417.415 59.6653H370.227C367.448 59.6653 365.196 61.918 365.196 64.6968C365.196 67.4756 367.448 69.7282 370.227 69.7282H417.415C420.194 69.7282 422.447 67.4756 422.447 64.6968C422.447 61.918 420.194 59.6653 417.415 59.6653Z" fill="#B4B9CF"/>
</svg>
