<svg width="492" height="597" viewBox="0 0 492 597" fill="none" xmlns="http://www.w3.org/2000/svg">
<g filter="url(#filter0_b_2_264)">
<rect y="73" width="453.006" height="524" rx="22.5376" fill="url(#paint0_linear_2_264)" fill-opacity="0.65"/>
<path d="M86.7708 189.327C85.5446 189.327 84.4599 189.076 83.5167 188.576C82.5807 188.068 81.8478 187.36 81.3182 186.453C80.7885 185.539 80.5237 184.465 80.5237 183.232V173.339L82.831 173.328V183.112C82.831 183.78 82.9435 184.367 83.1684 184.875C83.3933 185.383 83.6944 185.808 84.0717 186.149C84.449 186.49 84.8698 186.747 85.3342 186.921C85.8058 187.095 86.2847 187.182 86.7708 187.182C87.2642 187.182 87.7431 187.095 88.2074 186.921C88.6791 186.74 89.1035 186.479 89.4808 186.138C89.8581 185.797 90.1556 185.372 90.3733 184.864C90.5982 184.356 90.7106 183.772 90.7106 183.112V173.328H93.0179V183.232C93.0179 184.458 92.7531 185.528 92.2234 186.442C91.6938 187.357 90.9573 188.068 90.0141 188.576C89.0781 189.076 87.997 189.327 86.7708 189.327ZM96.0624 189V173.328H98.3371V180.641L104.9 173.328H107.73L100.797 180.979L108.241 189H105.324L98.3371 181.512V189H96.0624ZM118.919 189.327C117.751 189.327 116.724 189.073 115.839 188.565C114.961 188.05 114.275 187.335 113.782 186.421C113.296 185.499 113.053 184.433 113.053 183.221C113.053 181.937 113.292 180.823 113.771 179.88C114.257 178.936 114.932 178.207 115.795 177.692C116.659 177.177 117.664 176.919 118.81 176.919C120.007 176.919 121.027 177.199 121.868 177.757C122.71 178.309 123.337 179.096 123.751 180.119C124.172 181.142 124.339 182.357 124.252 183.765H121.977V182.938C121.963 181.574 121.701 180.565 121.193 179.912C120.693 179.259 119.927 178.933 118.897 178.933C117.758 178.933 116.902 179.292 116.329 180.01C115.755 180.729 115.469 181.766 115.469 183.123C115.469 184.414 115.755 185.416 116.329 186.127C116.902 186.831 117.729 187.182 118.81 187.182C119.521 187.182 120.134 187.023 120.649 186.704C121.172 186.377 121.578 185.913 121.868 185.31L124.099 186.018C123.642 187.07 122.949 187.886 122.021 188.467C121.092 189.04 120.058 189.327 118.919 189.327ZM114.729 183.765V181.991H123.12V183.765H114.729ZM134.624 189V183.221C134.624 182.764 134.584 182.296 134.505 181.817C134.432 181.331 134.287 180.881 134.069 180.467C133.859 180.054 133.558 179.72 133.166 179.466C132.781 179.212 132.277 179.085 131.653 179.085C131.247 179.085 130.862 179.154 130.5 179.292C130.137 179.423 129.817 179.637 129.542 179.934C129.273 180.232 129.059 180.623 128.9 181.109C128.747 181.596 128.671 182.187 128.671 182.883L127.256 182.35C127.256 181.284 127.456 180.344 127.855 179.531C128.254 178.711 128.827 178.073 129.574 177.616C130.322 177.159 131.225 176.93 132.284 176.93C133.097 176.93 133.779 177.061 134.331 177.322C134.882 177.583 135.328 177.928 135.669 178.356C136.017 178.777 136.282 179.238 136.464 179.738C136.645 180.239 136.768 180.729 136.834 181.207C136.899 181.686 136.932 182.107 136.932 182.47V189H134.624ZM126.364 189V177.246H128.399V180.641H128.671V189H126.364ZM144.61 194.551C143.978 194.551 143.365 194.453 142.77 194.257C142.183 194.061 141.646 193.771 141.16 193.386C140.673 193.009 140.271 192.541 139.951 191.982L142.052 190.915C142.306 191.416 142.669 191.783 143.14 192.015C143.612 192.247 144.109 192.363 144.631 192.363C145.277 192.363 145.829 192.247 146.286 192.015C146.743 191.79 147.087 191.449 147.32 190.992C147.559 190.535 147.675 189.969 147.668 189.294V186.007H147.94V177.246H149.953V189.316C149.953 189.628 149.943 189.925 149.921 190.208C149.899 190.491 149.859 190.774 149.801 191.057C149.634 191.848 149.315 192.501 148.843 193.016C148.379 193.531 147.784 193.916 147.058 194.17C146.34 194.424 145.524 194.551 144.61 194.551ZM144.435 189.327C143.34 189.327 142.393 189.054 141.595 188.51C140.804 187.966 140.191 187.226 139.756 186.29C139.328 185.347 139.113 184.287 139.113 183.112C139.113 181.929 139.331 180.874 139.766 179.945C140.202 179.009 140.819 178.272 141.617 177.736C142.422 177.191 143.376 176.919 144.479 176.919C145.589 176.919 146.522 177.191 147.276 177.736C148.038 178.272 148.611 179.009 148.996 179.945C149.387 180.881 149.583 181.937 149.583 183.112C149.583 184.287 149.387 185.343 148.996 186.279C148.604 187.215 148.027 187.959 147.265 188.51C146.503 189.054 145.56 189.327 144.435 189.327ZM144.751 187.27C145.498 187.27 146.108 187.092 146.58 186.736C147.051 186.381 147.396 185.891 147.613 185.267C147.831 184.643 147.94 183.925 147.94 183.112C147.94 182.299 147.828 181.581 147.603 180.957C147.385 180.333 147.044 179.847 146.58 179.499C146.122 179.15 145.538 178.976 144.827 178.976C144.073 178.976 143.452 179.161 142.966 179.531C142.48 179.901 142.117 180.398 141.878 181.022C141.646 181.646 141.53 182.343 141.53 183.112C141.53 183.888 141.646 184.592 141.878 185.223C142.117 185.847 142.473 186.344 142.944 186.714C143.423 187.085 144.026 187.27 144.751 187.27ZM153.227 175.319V173.11H155.502V175.319H153.227ZM153.227 189V177.246H155.502V189H153.227ZM167.02 189V183.221C167.02 182.764 166.98 182.296 166.9 181.817C166.827 181.331 166.682 180.881 166.465 180.467C166.254 180.054 165.953 179.72 165.561 179.466C165.177 179.212 164.673 179.085 164.049 179.085C163.642 179.085 163.258 179.154 162.895 179.292C162.532 179.423 162.213 179.637 161.937 179.934C161.669 180.232 161.455 180.623 161.295 181.109C161.143 181.596 161.066 182.187 161.066 182.883L159.652 182.35C159.652 181.284 159.851 180.344 160.25 179.531C160.649 178.711 161.222 178.073 161.97 177.616C162.717 177.159 163.62 176.93 164.68 176.93C165.492 176.93 166.174 177.061 166.726 177.322C167.277 177.583 167.724 177.928 168.065 178.356C168.413 178.777 168.678 179.238 168.859 179.738C169.04 180.239 169.164 180.729 169.229 181.207C169.294 181.686 169.327 182.107 169.327 182.47V189H167.02ZM158.759 189V177.246H160.794V180.641H161.066V189H158.759ZM177.226 189.327C176.058 189.327 175.031 189.073 174.146 188.565C173.268 188.05 172.583 187.335 172.089 186.421C171.603 185.499 171.36 184.433 171.36 183.221C171.36 181.937 171.6 180.823 172.078 179.88C172.565 178.936 173.239 178.207 174.103 177.692C174.966 177.177 175.971 176.919 177.117 176.919C178.315 176.919 179.334 177.199 180.176 177.757C181.017 178.309 181.645 179.096 182.059 180.119C182.479 181.142 182.646 182.357 182.559 183.765H180.285V182.938C180.27 181.574 180.009 180.565 179.501 179.912C179 179.259 178.235 178.933 177.205 178.933C176.065 178.933 175.209 179.292 174.636 180.01C174.063 180.729 173.776 181.766 173.776 183.123C173.776 184.414 174.063 185.416 174.636 186.127C175.209 186.831 176.036 187.182 177.117 187.182C177.829 187.182 178.442 187.023 178.957 186.704C179.479 186.377 179.885 185.913 180.176 185.31L182.407 186.018C181.95 187.07 181.257 187.886 180.328 188.467C179.399 189.04 178.365 189.327 177.226 189.327ZM173.036 183.765V181.991H181.427V183.765H173.036ZM190.214 189.327C189.046 189.327 188.019 189.073 187.134 188.565C186.256 188.05 185.571 187.335 185.077 186.421C184.591 185.499 184.348 184.433 184.348 183.221C184.348 181.937 184.587 180.823 185.066 179.88C185.552 178.936 186.227 178.207 187.091 177.692C187.954 177.177 188.959 176.919 190.105 176.919C191.303 176.919 192.322 177.199 193.164 177.757C194.005 178.309 194.633 179.096 195.046 180.119C195.467 181.142 195.634 182.357 195.547 183.765H193.272V182.938C193.258 181.574 192.997 180.565 192.489 179.912C191.988 179.259 191.223 178.933 190.192 178.933C189.053 178.933 188.197 179.292 187.624 180.01C187.051 180.729 186.764 181.766 186.764 183.123C186.764 184.414 187.051 185.416 187.624 186.127C188.197 186.831 189.024 187.182 190.105 187.182C190.816 187.182 191.43 187.023 191.945 186.704C192.467 186.377 192.873 185.913 193.164 185.31L195.395 186.018C194.938 187.07 194.245 187.886 193.316 188.467C192.387 189.04 191.353 189.327 190.214 189.327ZM186.024 183.765V181.991H194.415V183.765H186.024ZM197.989 189V177.246H200.013V180.097L199.73 179.727C199.875 179.35 200.064 179.005 200.296 178.693C200.528 178.374 200.797 178.113 201.102 177.91C201.399 177.692 201.729 177.525 202.092 177.409C202.462 177.286 202.839 177.213 203.224 177.191C203.608 177.162 203.978 177.181 204.334 177.246V179.379C203.949 179.277 203.521 179.248 203.05 179.292C202.585 179.335 202.157 179.484 201.766 179.738C201.395 179.978 201.102 180.268 200.884 180.609C200.674 180.95 200.521 181.331 200.427 181.752C200.333 182.165 200.285 182.604 200.285 183.068V189H197.989ZM215.977 189.327C214.809 189.327 213.783 189.073 212.897 188.565C212.02 188.05 211.334 187.335 210.84 186.421C210.354 185.499 210.111 184.433 210.111 183.221C210.111 181.937 210.351 180.823 210.83 179.88C211.316 178.936 211.99 178.207 212.854 177.692C213.717 177.177 214.722 176.919 215.869 176.919C217.066 176.919 218.085 177.199 218.927 177.757C219.769 178.309 220.396 179.096 220.81 180.119C221.231 181.142 221.397 182.357 221.31 183.765H219.036V182.938C219.021 181.574 218.76 180.565 218.252 179.912C217.751 179.259 216.986 178.933 215.956 178.933C214.817 178.933 213.96 179.292 213.387 180.01C212.814 180.729 212.527 181.766 212.527 183.123C212.527 184.414 212.814 185.416 213.387 186.127C213.96 186.831 214.788 187.182 215.869 187.182C216.58 187.182 217.193 187.023 217.708 186.704C218.23 186.377 218.637 185.913 218.927 185.31L221.158 186.018C220.701 187.07 220.008 187.886 219.079 188.467C218.151 189.04 217.117 189.327 215.977 189.327ZM211.787 183.765V181.991H220.179V183.765H211.787ZM222.021 189L226.418 183.058L222.119 177.246H224.818L227.746 181.284L230.641 177.246H233.34L229.041 183.058L233.449 189H230.739L227.746 184.832L224.731 189H222.021ZM238.083 189.327C237.212 189.327 236.483 189.167 235.895 188.848C235.307 188.521 234.861 188.093 234.556 187.563C234.259 187.026 234.11 186.439 234.11 185.8C234.11 185.205 234.215 184.683 234.426 184.233C234.636 183.783 234.948 183.402 235.362 183.09C235.775 182.771 236.283 182.513 236.886 182.318C237.408 182.165 237.999 182.031 238.66 181.915C239.32 181.799 240.013 181.69 240.738 181.588C241.471 181.487 242.197 181.385 242.915 181.284L242.088 181.741C242.102 180.819 241.906 180.137 241.5 179.695C241.101 179.245 240.412 179.02 239.432 179.02C238.816 179.02 238.25 179.165 237.734 179.455C237.219 179.738 236.86 180.21 236.657 180.87L234.535 180.217C234.825 179.208 235.376 178.407 236.189 177.812C237.009 177.217 238.097 176.919 239.454 176.919C240.506 176.919 241.42 177.101 242.197 177.463C242.98 177.819 243.553 178.385 243.916 179.161C244.105 179.546 244.221 179.952 244.265 180.38C244.308 180.808 244.33 181.269 244.33 181.762V189H242.316V186.312L242.708 186.66C242.222 187.56 241.602 188.231 240.847 188.673C240.1 189.109 239.178 189.327 238.083 189.327ZM238.485 187.465C239.131 187.465 239.686 187.353 240.151 187.128C240.615 186.896 240.989 186.602 241.272 186.246C241.555 185.891 241.74 185.521 241.827 185.136C241.95 184.788 242.019 184.396 242.033 183.961C242.055 183.526 242.066 183.177 242.066 182.916L242.806 183.188C242.088 183.297 241.435 183.395 240.847 183.482C240.259 183.569 239.726 183.656 239.247 183.743C238.776 183.823 238.355 183.921 237.985 184.037C237.673 184.146 237.393 184.277 237.147 184.429C236.907 184.581 236.715 184.766 236.57 184.984C236.432 185.202 236.363 185.466 236.363 185.778C236.363 186.083 236.439 186.366 236.592 186.627C236.744 186.881 236.976 187.085 237.288 187.237C237.6 187.389 237.999 187.465 238.485 187.465ZM261.239 189L261.25 181.675C261.25 180.826 261.032 180.166 260.597 179.695C260.162 179.216 259.589 178.976 258.878 178.976C258.442 178.976 258.043 179.078 257.68 179.281C257.325 179.477 257.035 179.774 256.81 180.173C256.592 180.565 256.483 181.059 256.483 181.654L255.384 181.099C255.369 180.271 255.544 179.546 255.906 178.922C256.276 178.298 256.777 177.815 257.408 177.474C258.039 177.126 258.747 176.952 259.531 176.952C260.8 176.952 261.783 177.333 262.48 178.095C263.176 178.857 263.525 179.869 263.525 181.131L263.514 189H261.239ZM247.145 189V177.246H249.169V180.641H249.431V189H247.145ZM254.198 189L254.208 181.719C254.208 180.863 253.991 180.192 253.555 179.705C253.127 179.219 252.551 178.976 251.825 178.976C251.107 178.976 250.526 179.223 250.084 179.716C249.648 180.21 249.431 180.856 249.431 181.654L248.342 180.957C248.342 180.188 248.527 179.502 248.897 178.9C249.267 178.298 249.768 177.823 250.399 177.474C251.031 177.126 251.745 176.952 252.543 176.952C253.378 176.952 254.089 177.13 254.676 177.485C255.264 177.834 255.71 178.323 256.015 178.955C256.327 179.586 256.483 180.319 256.483 181.153L256.472 189H254.198ZM271.869 189.327C270.744 189.327 269.801 189.054 269.039 188.51C268.277 187.959 267.7 187.215 267.309 186.279C266.917 185.343 266.721 184.287 266.721 183.112C266.721 181.937 266.913 180.881 267.298 179.945C267.69 179.009 268.263 178.272 269.017 177.736C269.779 177.191 270.715 176.919 271.825 176.919C272.928 176.919 273.879 177.191 274.677 177.736C275.482 178.272 276.103 179.009 276.538 179.945C276.973 180.874 277.191 181.929 277.191 183.112C277.191 184.287 276.973 185.347 276.538 186.29C276.11 187.226 275.497 187.966 274.699 188.51C273.908 189.054 272.964 189.327 271.869 189.327ZM266.34 194.224V177.246H268.364V185.702H268.626V194.224H266.34ZM271.553 187.27C272.279 187.27 272.877 187.085 273.349 186.714C273.828 186.344 274.183 185.847 274.416 185.223C274.655 184.592 274.775 183.888 274.775 183.112C274.775 182.343 274.655 181.646 274.416 181.022C274.183 180.398 273.824 179.901 273.338 179.531C272.852 179.161 272.232 178.976 271.477 178.976C270.766 178.976 270.178 179.15 269.714 179.499C269.257 179.847 268.916 180.333 268.691 180.957C268.473 181.581 268.364 182.299 268.364 183.112C268.364 183.925 268.473 184.643 268.691 185.267C268.909 185.891 269.253 186.381 269.725 186.736C270.196 187.092 270.806 187.27 271.553 187.27ZM279.812 189V173.001H282.086V189H279.812ZM290.568 189.327C289.4 189.327 288.373 189.073 287.488 188.565C286.61 188.05 285.924 187.335 285.431 186.421C284.945 185.499 284.702 184.433 284.702 183.221C284.702 181.937 284.941 180.823 285.42 179.88C285.906 178.936 286.581 178.207 287.444 177.692C288.308 177.177 289.312 176.919 290.459 176.919C291.656 176.919 292.675 177.199 293.517 177.757C294.359 178.309 294.986 179.096 295.4 180.119C295.821 181.142 295.988 182.357 295.901 183.765H293.626V182.938C293.611 181.574 293.35 180.565 292.842 179.912C292.342 179.259 291.576 178.933 290.546 178.933C289.407 178.933 288.551 179.292 287.977 180.01C287.404 180.729 287.118 181.766 287.118 183.123C287.118 184.414 287.404 185.416 287.977 186.127C288.551 186.831 289.378 187.182 290.459 187.182C291.17 187.182 291.783 187.023 292.298 186.704C292.821 186.377 293.227 185.913 293.517 185.31L295.748 186.018C295.291 187.07 294.598 187.886 293.67 188.467C292.741 189.04 291.707 189.327 290.568 189.327ZM286.378 183.765V181.991H294.769V183.765H286.378Z" fill="black"/>
<path d="M83.2041 291.191V281.975H89.187V268.069H83.5275V259.822H89.187V251.252C89.187 245.647 90.8309 241.281 94.1187 238.155C97.4605 235.028 101.961 233.465 107.62 233.465C113.28 233.465 117.754 235.028 121.041 238.155C124.383 241.281 126.054 245.647 126.054 251.252V256.265H115.867V250.929C115.867 248.342 115.112 246.32 113.603 244.865C112.148 243.41 110.154 242.682 107.62 242.682C105.141 242.682 103.147 243.41 101.638 244.865C100.128 246.32 99.3739 248.342 99.3739 250.929V259.822H107.459V268.069H99.3739V281.975H126.377V291.191H83.2041ZM153.45 292.323C149.138 292.323 145.392 291.515 142.212 289.898C139.032 288.281 136.579 286.044 134.854 283.187C133.13 280.331 132.267 277.043 132.267 273.324V254.001C132.267 249.42 133.183 245.62 135.016 242.601C136.903 239.529 139.463 237.238 142.697 235.729C145.985 234.22 149.731 233.465 153.935 233.465C158.139 233.465 161.777 234.166 164.849 235.567C167.975 236.969 170.374 238.99 172.045 241.631C173.77 244.272 174.632 247.425 174.632 251.09H164.122C164.122 248.827 163.34 246.859 161.777 245.188C160.214 243.518 157.6 242.682 153.935 242.682C150.323 242.682 147.521 243.625 145.526 245.512C143.586 247.398 142.616 250.012 142.616 253.354V259.175H144.071C144.987 258.097 146.389 257.073 148.275 256.103C150.162 255.133 152.911 254.648 156.522 254.648C159.81 254.648 162.828 255.348 165.577 256.75C168.38 258.151 170.643 260.199 172.368 262.894C174.093 265.535 174.955 268.742 174.955 272.515V273.486C174.955 277.205 174.066 280.492 172.287 283.349C170.509 286.152 168.002 288.362 164.768 289.979C161.534 291.542 157.762 292.323 153.45 292.323ZM153.611 283.107C157.007 283.107 159.675 282.217 161.615 280.439C163.61 278.66 164.607 276.288 164.607 273.324V272.677C164.607 270.683 164.149 268.958 163.232 267.503C162.37 266.047 161.103 264.916 159.432 264.107C157.815 263.299 155.875 262.894 153.611 262.894C151.401 262.894 149.461 263.299 147.79 264.107C146.119 264.916 144.826 266.047 143.909 267.503C143.047 268.958 142.616 270.683 142.616 272.677V273.324C142.616 276.288 143.586 278.66 145.526 280.439C147.521 282.217 150.216 283.107 153.611 283.107ZM178.95 291.191V284.4C178.95 280.465 179.597 277.205 180.891 274.617C182.184 271.976 184.044 269.82 186.469 268.149C188.949 266.425 191.967 265.023 195.524 263.945L200.941 262.248C202.935 261.601 204.606 260.819 205.954 259.903C207.301 258.933 208.325 257.774 209.026 256.426C209.781 255.079 210.158 253.543 210.158 251.818V251.495C210.158 248.8 209.242 246.671 207.409 245.108C205.576 243.491 203.07 242.682 199.89 242.682C196.764 242.682 194.231 243.544 192.29 245.269C190.404 246.94 189.461 249.366 189.461 252.546V254.001H179.112V252.707C179.112 248.611 180.028 245.135 181.861 242.278C183.693 239.421 186.173 237.238 189.299 235.729C192.479 234.22 196.009 233.465 199.89 233.465C203.771 233.465 207.274 234.22 210.4 235.729C213.527 237.184 215.979 239.259 217.758 241.954C219.59 244.596 220.507 247.722 220.507 251.333V252.141C220.507 255.753 219.752 258.825 218.243 261.358C216.788 263.838 214.793 265.886 212.26 267.503C209.727 269.066 206.843 270.359 203.609 271.383L198.435 273C196.117 273.701 194.312 274.483 193.018 275.345C191.724 276.154 190.808 277.07 190.269 278.094C189.784 279.064 189.541 280.25 189.541 281.651V281.975H220.021V291.191H178.95ZM245.724 292.323C241.304 292.323 237.477 291.542 234.243 289.979C231.063 288.416 228.611 286.206 226.886 283.349C225.161 280.492 224.299 277.178 224.299 273.405V272.596H234.809V273.324C234.809 276.019 235.698 278.336 237.477 280.277C239.31 282.163 242.005 283.107 245.562 283.107C249.119 283.107 251.841 282.163 253.728 280.277C255.668 278.336 256.638 275.83 256.638 272.758V271.949C256.638 268.931 255.668 266.533 253.728 264.754C251.841 262.975 249.47 262.086 246.613 262.086C245.05 262.086 243.756 262.301 242.732 262.733C241.708 263.164 240.873 263.703 240.226 264.35C239.579 264.996 239.04 265.643 238.609 266.29H226.077V234.597H264.723V243.976H236.426V257.801H237.881C238.42 257.1 239.148 256.426 240.064 255.78C240.98 255.133 242.166 254.594 243.622 254.163C245.077 253.731 246.802 253.516 248.796 253.516C252.138 253.516 255.183 254.217 257.932 255.618C260.681 257.019 262.864 259.094 264.481 261.843C266.151 264.538 266.987 267.88 266.987 271.869V272.839C266.987 276.827 266.124 280.277 264.4 283.187C262.729 286.098 260.303 288.362 257.123 289.979C253.943 291.542 250.143 292.323 245.724 292.323ZM293.567 292.323C286.883 292.323 281.521 290.491 277.478 286.826C273.436 283.107 271.414 277.501 271.414 270.009V255.78C271.414 248.503 273.436 242.979 277.478 239.206C281.521 235.379 286.883 233.465 293.567 233.465C300.304 233.465 305.667 235.379 309.656 239.206C313.698 242.979 315.72 248.503 315.72 255.78V270.009C315.72 277.501 313.698 283.107 309.656 286.826C305.667 290.491 300.304 292.323 293.567 292.323ZM293.567 283.107C297.609 283.107 300.574 282.002 302.46 279.792C304.401 277.582 305.371 274.429 305.371 270.332V255.295C305.371 251.144 304.293 248.018 302.137 245.916C300.035 243.76 297.178 242.682 293.567 242.682C289.848 242.682 286.937 243.787 284.835 245.997C282.787 248.207 281.763 251.306 281.763 255.295V270.332C281.763 274.59 282.733 277.797 284.674 279.953C286.668 282.055 289.632 283.107 293.567 283.107Z" fill="black"/>
<path d="M337.418 277.153L332.317 296.106H329.866L334.968 277.153H337.418ZM339.204 293.726V281.853H341.878V283.87H342.018C342.265 283.19 342.675 282.659 343.247 282.278C343.819 281.891 344.501 281.698 345.295 281.698C346.099 281.698 346.777 281.894 347.328 282.286C347.884 282.672 348.276 283.2 348.503 283.87H348.627C348.889 283.211 349.332 282.685 349.956 282.293C350.585 281.896 351.329 281.698 352.19 281.698C353.282 281.698 354.174 282.043 354.864 282.734C355.555 283.424 355.9 284.432 355.9 285.756V293.726H353.094V286.189C353.094 285.452 352.898 284.914 352.507 284.574C352.115 284.228 351.636 284.056 351.069 284.056C350.394 284.056 349.866 284.267 349.485 284.69C349.108 285.107 348.92 285.651 348.92 286.32V293.726H346.176V286.073C346.176 285.46 345.991 284.97 345.62 284.604C345.254 284.239 344.775 284.056 344.182 284.056C343.78 284.056 343.414 284.159 343.084 284.365C342.754 284.566 342.492 284.852 342.296 285.223C342.1 285.589 342.002 286.016 342.002 286.506V293.726H339.204ZM363.918 293.957C362.758 293.957 361.754 293.702 360.903 293.192C360.053 292.682 359.393 291.968 358.924 291.051C358.461 290.134 358.229 289.062 358.229 287.836C358.229 286.609 358.461 285.535 358.924 284.612C359.393 283.69 360.053 282.973 360.903 282.463C361.754 281.953 362.758 281.698 363.918 281.698C365.077 281.698 366.082 281.953 366.933 282.463C367.783 282.973 368.44 283.69 368.904 284.612C369.373 285.535 369.607 286.609 369.607 287.836C369.607 289.062 369.373 290.134 368.904 291.051C368.44 291.968 367.783 292.682 366.933 293.192C366.082 293.702 365.077 293.957 363.918 293.957ZM363.933 291.716C364.562 291.716 365.088 291.543 365.51 291.198C365.933 290.848 366.247 290.379 366.453 289.791C366.665 289.204 366.77 288.549 366.77 287.828C366.77 287.101 366.665 286.444 366.453 285.857C366.247 285.264 365.933 284.793 365.51 284.442C365.088 284.092 364.562 283.917 363.933 283.917C363.289 283.917 362.753 284.092 362.326 284.442C361.903 284.793 361.586 285.264 361.375 285.857C361.169 286.444 361.066 287.101 361.066 287.828C361.066 288.549 361.169 289.204 361.375 289.791C361.586 290.379 361.903 290.848 362.326 291.198C362.753 291.543 363.289 291.716 363.933 291.716ZM374.78 286.769V293.726H371.982V281.853H374.656V283.87H374.796C375.069 283.205 375.504 282.677 376.102 282.286C376.705 281.894 377.449 281.698 378.336 281.698C379.155 281.698 379.869 281.873 380.477 282.224C381.09 282.574 381.564 283.082 381.899 283.746C382.239 284.411 382.407 285.218 382.402 286.166V293.726H379.604V286.599C379.604 285.805 379.397 285.184 378.985 284.736C378.578 284.288 378.014 284.063 377.292 284.063C376.803 284.063 376.367 284.172 375.986 284.388C375.61 284.599 375.313 284.906 375.097 285.308C374.886 285.71 374.78 286.197 374.78 286.769ZM391.175 281.853V284.017H384.35V281.853H391.175ZM386.035 279.008H388.833V290.154C388.833 290.531 388.89 290.819 389.003 291.02C389.121 291.216 389.276 291.35 389.467 291.422C389.657 291.494 389.869 291.53 390.101 291.53C390.276 291.53 390.435 291.517 390.58 291.492C390.729 291.466 390.843 291.443 390.92 291.422L391.391 293.61C391.242 293.661 391.028 293.718 390.75 293.78C390.477 293.842 390.142 293.878 389.745 293.888C389.044 293.909 388.413 293.803 387.851 293.571C387.289 293.334 386.844 292.968 386.514 292.473C386.189 291.979 386.03 291.36 386.035 290.618V279.008ZM396.568 286.769V293.726H393.77V277.895H396.507V283.87H396.646C396.924 283.2 397.354 282.672 397.937 282.286C398.524 281.894 399.271 281.698 400.178 281.698C401.003 281.698 401.722 281.871 402.335 282.216C402.948 282.561 403.422 283.066 403.757 283.731C404.097 284.396 404.267 285.207 404.267 286.166V293.726H401.469V286.599C401.469 285.8 401.263 285.179 400.851 284.736C400.444 284.288 399.872 284.063 399.135 284.063C398.64 284.063 398.197 284.172 397.805 284.388C397.419 284.599 397.115 284.906 396.893 285.308C396.677 285.71 396.568 286.197 396.568 286.769Z" fill="black"/>
<path d="M97.6572 368.065C89.2847 368.065 82.498 374.852 82.498 383.225C82.498 391.597 89.2847 398.384 97.6572 398.384C106.03 398.384 112.816 391.597 112.816 383.225C112.801 374.86 106.022 368.081 97.6572 368.065ZM104.873 380.572L96.331 388.735C96.1102 388.942 95.8179 389.057 95.5147 389.055C95.2146 389.06 94.927 388.945 94.7124 388.735L90.4414 384.653C90.1196 384.372 89.9766 383.937 90.0714 383.518C90.1647 383.1 90.4803 382.767 90.8923 382.652C91.3044 382.536 91.7475 382.656 92.046 382.962L95.5147 386.27L103.268 378.881C103.74 378.47 104.452 378.504 104.882 378.957C105.311 379.411 105.308 380.123 104.873 380.572Z" fill="black"/>
<path d="M142.256 379.421C142.184 378.746 141.88 378.22 141.344 377.844C140.814 377.468 140.123 377.28 139.273 377.28C138.675 377.28 138.162 377.37 137.735 377.55C137.307 377.73 136.98 377.975 136.753 378.284C136.526 378.594 136.41 378.947 136.405 379.343C136.405 379.673 136.48 379.959 136.629 380.201C136.784 380.444 136.992 380.65 137.255 380.82C137.518 380.985 137.809 381.124 138.129 381.237C138.448 381.351 138.77 381.446 139.095 381.523L140.579 381.894C141.177 382.033 141.751 382.221 142.303 382.459C142.859 382.696 143.357 382.994 143.795 383.355C144.238 383.716 144.588 384.151 144.846 384.662C145.104 385.172 145.232 385.769 145.232 386.455C145.232 387.382 144.995 388.199 144.521 388.905C144.047 389.606 143.362 390.155 142.465 390.552C141.574 390.943 140.494 391.139 139.226 391.139C137.995 391.139 136.925 390.948 136.019 390.567C135.117 390.186 134.411 389.629 133.901 388.897C133.396 388.166 133.122 387.274 133.081 386.223H135.903C135.944 386.774 136.114 387.233 136.413 387.599C136.712 387.965 137.101 388.238 137.58 388.418C138.064 388.599 138.605 388.689 139.203 388.689C139.827 388.689 140.373 388.596 140.842 388.41C141.316 388.22 141.687 387.957 141.955 387.622C142.223 387.282 142.359 386.885 142.365 386.432C142.359 386.019 142.238 385.679 142.001 385.411C141.764 385.138 141.432 384.911 141.004 384.731C140.582 384.546 140.087 384.381 139.52 384.236L137.719 383.773C136.415 383.438 135.385 382.93 134.627 382.25C133.875 381.564 133.499 380.655 133.499 379.521C133.499 378.588 133.751 377.772 134.256 377.071C134.766 376.37 135.459 375.826 136.335 375.44C137.211 375.048 138.203 374.852 139.311 374.852C140.435 374.852 141.419 375.048 142.264 375.44C143.114 375.826 143.782 376.365 144.266 377.055C144.751 377.741 145 378.529 145.016 379.421H142.256ZM147.665 390.899V379.027H150.34V381.044H150.479C150.726 380.364 151.136 379.833 151.708 379.452C152.28 379.065 152.963 378.872 153.756 378.872C154.56 378.872 155.238 379.068 155.789 379.459C156.346 379.846 156.737 380.374 156.964 381.044H157.088C157.351 380.384 157.794 379.859 158.417 379.467C159.046 379.07 159.791 378.872 160.651 378.872C161.744 378.872 162.635 379.217 163.326 379.908C164.016 380.598 164.362 381.606 164.362 382.93V390.899H161.556V383.363C161.556 382.626 161.36 382.087 160.968 381.747C160.577 381.402 160.097 381.229 159.531 381.229C158.855 381.229 158.327 381.441 157.946 381.863C157.57 382.281 157.382 382.824 157.382 383.494V390.899H154.638V383.247C154.638 382.634 154.452 382.144 154.081 381.778C153.715 381.412 153.236 381.229 152.643 381.229C152.241 381.229 151.875 381.333 151.546 381.539C151.216 381.74 150.953 382.026 150.757 382.397C150.561 382.763 150.463 383.19 150.463 383.68V390.899H147.665ZM170.617 391.139C169.865 391.139 169.187 391.005 168.584 390.737C167.986 390.464 167.512 390.062 167.162 389.531C166.816 389 166.644 388.346 166.644 387.568C166.644 386.898 166.767 386.344 167.015 385.906C167.262 385.468 167.6 385.118 168.027 384.855C168.455 384.592 168.937 384.394 169.473 384.26C170.014 384.12 170.573 384.02 171.15 383.958C171.846 383.886 172.41 383.822 172.843 383.765C173.276 383.703 173.59 383.61 173.786 383.487C173.987 383.358 174.088 383.159 174.088 382.891V382.845C174.088 382.263 173.915 381.812 173.57 381.492C173.224 381.173 172.727 381.013 172.078 381.013C171.392 381.013 170.849 381.162 170.447 381.461C170.05 381.76 169.782 382.113 169.643 382.52L167.03 382.149C167.236 381.428 167.577 380.825 168.051 380.341C168.525 379.851 169.104 379.485 169.79 379.243C170.475 378.996 171.233 378.872 172.062 378.872C172.634 378.872 173.204 378.939 173.771 379.073C174.337 379.207 174.855 379.428 175.324 379.738C175.793 380.042 176.169 380.457 176.453 380.982C176.741 381.508 176.886 382.165 176.886 382.953V390.899H174.196V389.268H174.103C173.933 389.598 173.693 389.907 173.384 390.196C173.08 390.479 172.696 390.709 172.232 390.884C171.774 391.054 171.235 391.139 170.617 391.139ZM171.343 389.083C171.905 389.083 172.392 388.972 172.804 388.751C173.217 388.524 173.534 388.225 173.755 387.854C173.982 387.483 174.095 387.078 174.095 386.64V385.241C174.008 385.313 173.858 385.38 173.647 385.442C173.441 385.504 173.209 385.558 172.951 385.605C172.694 385.651 172.439 385.692 172.186 385.728C171.934 385.764 171.715 385.795 171.529 385.821C171.112 385.878 170.738 385.97 170.408 386.099C170.078 386.228 169.818 386.408 169.627 386.64C169.437 386.867 169.341 387.161 169.341 387.522C169.341 388.037 169.53 388.426 169.906 388.689C170.282 388.952 170.761 389.083 171.343 389.083ZM182.498 375.069V390.899H179.699V375.069H182.498ZM188.173 375.069V390.899H185.375V375.069H188.173ZM196.307 391.131C195.116 391.131 194.088 390.884 193.223 390.389C192.362 389.889 191.7 389.183 191.236 388.271C190.772 387.354 190.54 386.274 190.54 385.033C190.54 383.811 190.772 382.739 191.236 381.817C191.705 380.889 192.359 380.168 193.199 379.653C194.039 379.132 195.026 378.872 196.16 378.872C196.892 378.872 197.582 378.99 198.231 379.227C198.886 379.459 199.463 379.82 199.963 380.31C200.468 380.799 200.865 381.423 201.153 382.18C201.442 382.933 201.586 383.829 201.586 384.87V385.728H191.854V383.842H198.904C198.899 383.306 198.783 382.83 198.556 382.412C198.329 381.99 198.012 381.657 197.605 381.415C197.203 381.173 196.734 381.052 196.199 381.052C195.627 381.052 195.124 381.191 194.691 381.469C194.258 381.742 193.921 382.103 193.679 382.551C193.442 382.994 193.32 383.481 193.315 384.012V385.659C193.315 386.349 193.442 386.942 193.694 387.436C193.947 387.926 194.3 388.302 194.753 388.565C195.207 388.823 195.737 388.952 196.345 388.952C196.753 388.952 197.121 388.895 197.451 388.781C197.781 388.663 198.067 388.49 198.309 388.264C198.551 388.037 198.734 387.756 198.858 387.421L201.47 387.715C201.305 388.405 200.991 389.008 200.527 389.524C200.069 390.034 199.481 390.43 198.765 390.714C198.049 390.992 197.229 391.131 196.307 391.131ZM203.953 390.899V379.027H206.667V381.005H206.79C207.007 380.32 207.378 379.792 207.903 379.421C208.434 379.045 209.04 378.856 209.72 378.856C209.874 378.856 210.047 378.864 210.238 378.88C210.434 378.89 210.596 378.908 210.725 378.934V381.508C210.606 381.467 210.418 381.43 210.16 381.4C209.908 381.363 209.663 381.345 209.426 381.345C208.916 381.345 208.457 381.456 208.05 381.678C207.648 381.894 207.331 382.196 207.099 382.582C206.868 382.969 206.752 383.414 206.752 383.919V390.899H203.953ZM223.912 379.027V381.191H217.086V379.027H223.912ZM218.771 376.182H221.57V387.328C221.57 387.704 221.626 387.993 221.74 388.194C221.858 388.39 222.013 388.524 222.203 388.596C222.394 388.668 222.605 388.704 222.837 388.704C223.012 388.704 223.172 388.691 223.316 388.666C223.466 388.64 223.579 388.617 223.657 388.596L224.128 390.783C223.979 390.835 223.765 390.892 223.487 390.954C223.213 391.015 222.878 391.051 222.482 391.062C221.781 391.082 221.15 390.977 220.588 390.745C220.026 390.508 219.58 390.142 219.251 389.647C218.926 389.152 218.766 388.534 218.771 387.792V376.182ZM229.668 391.139C228.916 391.139 228.238 391.005 227.635 390.737C227.038 390.464 226.564 390.062 226.213 389.531C225.868 389 225.695 388.346 225.695 387.568C225.695 386.898 225.819 386.344 226.066 385.906C226.314 385.468 226.651 385.118 227.079 384.855C227.507 384.592 227.988 384.394 228.524 384.26C229.065 384.12 229.625 384.02 230.202 383.958C230.897 383.886 231.462 383.822 231.895 383.765C232.327 383.703 232.642 383.61 232.838 383.487C233.039 383.358 233.139 383.159 233.139 382.891V382.845C233.139 382.263 232.966 381.812 232.621 381.492C232.276 381.173 231.779 381.013 231.129 381.013C230.444 381.013 229.9 381.162 229.498 381.461C229.102 381.76 228.834 382.113 228.694 382.52L226.082 382.149C226.288 381.428 226.628 380.825 227.102 380.341C227.576 379.851 228.156 379.485 228.841 379.243C229.527 378.996 230.284 378.872 231.114 378.872C231.686 378.872 232.255 378.939 232.822 379.073C233.389 379.207 233.907 379.428 234.376 379.738C234.845 380.042 235.221 380.457 235.504 380.982C235.793 381.508 235.937 382.165 235.937 382.953V390.899H233.247V389.268H233.155C232.984 389.598 232.745 389.907 232.436 390.196C232.132 390.479 231.748 390.709 231.284 390.884C230.825 391.054 230.287 391.139 229.668 391.139ZM230.395 389.083C230.957 389.083 231.444 388.972 231.856 388.751C232.268 388.524 232.585 388.225 232.807 387.854C233.033 387.483 233.147 387.078 233.147 386.64V385.241C233.059 385.313 232.91 385.38 232.698 385.442C232.492 385.504 232.26 385.558 232.003 385.605C231.745 385.651 231.49 385.692 231.238 385.728C230.985 385.764 230.766 385.795 230.58 385.821C230.163 385.878 229.789 385.97 229.46 386.099C229.13 386.228 228.87 386.408 228.679 386.64C228.488 386.867 228.393 387.161 228.393 387.522C228.393 388.037 228.581 388.426 228.957 388.689C229.333 388.952 229.813 389.083 230.395 389.083ZM241.549 375.069V390.899H238.751V375.069H241.549ZM249.683 391.131C248.492 391.131 247.464 390.884 246.598 390.389C245.738 389.889 245.076 389.183 244.612 388.271C244.148 387.354 243.916 386.274 243.916 385.033C243.916 383.811 244.148 382.739 244.612 381.817C245.081 380.889 245.735 380.168 246.575 379.653C247.415 379.132 248.402 378.872 249.536 378.872C250.268 378.872 250.958 378.99 251.607 379.227C252.262 379.459 252.839 379.82 253.339 380.31C253.844 380.799 254.241 381.423 254.529 382.18C254.818 382.933 254.962 383.829 254.962 384.87V385.728H245.23V383.842H252.28C252.275 383.306 252.159 382.83 251.932 382.412C251.705 381.99 251.388 381.657 250.981 381.415C250.579 381.173 250.11 381.052 249.574 381.052C249.002 381.052 248.5 381.191 248.067 381.469C247.634 381.742 247.297 382.103 247.055 382.551C246.817 382.994 246.696 383.481 246.691 384.012V385.659C246.691 386.349 246.817 386.942 247.07 387.436C247.323 387.926 247.675 388.302 248.129 388.565C248.582 388.823 249.113 388.952 249.721 388.952C250.128 388.952 250.497 388.895 250.827 388.781C251.156 388.663 251.442 388.49 251.685 388.264C251.927 388.037 252.11 387.756 252.233 387.421L254.846 387.715C254.681 388.405 254.367 389.008 253.903 389.524C253.444 390.034 252.857 390.43 252.141 390.714C251.424 390.992 250.605 391.131 249.683 391.131ZM260.127 383.943V390.899H257.329V379.027H260.004V381.044H260.143C260.416 380.379 260.852 379.851 261.449 379.459C262.052 379.068 262.797 378.872 263.683 378.872C264.503 378.872 265.216 379.047 265.824 379.398C266.438 379.748 266.912 380.256 267.247 380.92C267.587 381.585 267.754 382.392 267.749 383.34V390.899H264.951V383.773C264.951 382.979 264.745 382.358 264.332 381.91C263.925 381.461 263.361 381.237 262.64 381.237C262.15 381.237 261.715 381.345 261.333 381.562C260.957 381.773 260.661 382.08 260.444 382.482C260.233 382.884 260.127 383.371 260.127 383.943ZM276.522 379.027V381.191H269.697V379.027H276.522ZM271.382 376.182H274.18V387.328C274.18 387.704 274.237 387.993 274.35 388.194C274.469 388.39 274.623 388.524 274.814 388.596C275.005 388.668 275.216 388.704 275.448 388.704C275.623 388.704 275.783 388.691 275.927 388.666C276.077 388.64 276.19 388.617 276.267 388.596L276.739 390.783C276.589 390.835 276.375 390.892 276.097 390.954C275.824 391.015 275.489 391.051 275.092 391.062C274.391 391.082 273.76 390.977 273.199 390.745C272.637 390.508 272.191 390.142 271.861 389.647C271.537 389.152 271.377 388.534 271.382 387.792V376.182ZM284.262 395.352V379.027H287.014V380.99H287.176C287.32 380.701 287.524 380.395 287.786 380.07C288.049 379.74 288.405 379.459 288.853 379.227C289.302 378.99 289.874 378.872 290.569 378.872C291.486 378.872 292.314 379.106 293.05 379.575C293.793 380.039 294.38 380.727 294.813 381.639C295.251 382.546 295.47 383.659 295.47 384.978C295.47 386.282 295.256 387.39 294.828 388.302C294.401 389.214 293.818 389.91 293.081 390.389C292.344 390.868 291.51 391.108 290.577 391.108C289.897 391.108 289.332 390.995 288.884 390.768C288.436 390.541 288.075 390.268 287.802 389.949C287.534 389.624 287.325 389.317 287.176 389.029H287.06V395.352H284.262ZM287.006 384.963C287.006 385.731 287.114 386.403 287.33 386.98C287.552 387.558 287.869 388.008 288.281 388.333C288.699 388.653 289.204 388.812 289.796 388.812C290.415 388.812 290.933 388.647 291.35 388.318C291.767 387.983 292.082 387.527 292.293 386.95C292.509 386.367 292.618 385.705 292.618 384.963C292.618 384.226 292.512 383.572 292.301 383C292.089 382.428 291.775 381.979 291.358 381.655C290.94 381.33 290.42 381.168 289.796 381.168C289.198 381.168 288.691 381.325 288.273 381.639C287.856 381.954 287.539 382.394 287.323 382.961C287.111 383.528 287.006 384.195 287.006 384.963ZM303.045 391.131C301.886 391.131 300.881 390.876 300.03 390.366C299.18 389.856 298.521 389.142 298.052 388.225C297.588 387.308 297.356 386.236 297.356 385.009C297.356 383.783 297.588 382.708 298.052 381.786C298.521 380.864 299.18 380.147 300.03 379.637C300.881 379.127 301.886 378.872 303.045 378.872C304.204 378.872 305.209 379.127 306.06 379.637C306.91 380.147 307.567 380.864 308.031 381.786C308.5 382.708 308.734 383.783 308.734 385.009C308.734 386.236 308.5 387.308 308.031 388.225C307.567 389.142 306.91 389.856 306.06 390.366C305.209 390.876 304.204 391.131 303.045 391.131ZM303.06 388.89C303.689 388.89 304.215 388.717 304.637 388.372C305.06 388.021 305.374 387.552 305.58 386.965C305.792 386.378 305.897 385.723 305.897 385.002C305.897 384.275 305.792 383.618 305.58 383.031C305.374 382.438 305.06 381.966 304.637 381.616C304.215 381.266 303.689 381.09 303.06 381.09C302.416 381.09 301.88 381.266 301.453 381.616C301.03 381.966 300.713 382.438 300.502 383.031C300.296 383.618 300.193 384.275 300.193 385.002C300.193 385.723 300.296 386.378 300.502 386.965C300.713 387.552 301.03 388.021 301.453 388.372C301.88 388.717 302.416 388.89 303.06 388.89ZM316.288 391.131C315.129 391.131 314.124 390.876 313.273 390.366C312.423 389.856 311.764 389.142 311.295 388.225C310.831 387.308 310.599 386.236 310.599 385.009C310.599 383.783 310.831 382.708 311.295 381.786C311.764 380.864 312.423 380.147 313.273 379.637C314.124 379.127 315.129 378.872 316.288 378.872C317.447 378.872 318.452 379.127 319.303 379.637C320.153 380.147 320.81 380.864 321.274 381.786C321.743 382.708 321.977 383.783 321.977 385.009C321.977 386.236 321.743 387.308 321.274 388.225C320.81 389.142 320.153 389.856 319.303 390.366C318.452 390.876 317.447 391.131 316.288 391.131ZM316.303 388.89C316.932 388.89 317.458 388.717 317.88 388.372C318.303 388.021 318.617 387.552 318.823 386.965C319.035 386.378 319.14 385.723 319.14 385.002C319.14 384.275 319.035 383.618 318.823 383.031C318.617 382.438 318.303 381.966 317.88 381.616C317.458 381.266 316.932 381.09 316.303 381.09C315.659 381.09 315.123 381.266 314.696 381.616C314.273 381.966 313.956 382.438 313.745 383.031C313.539 383.618 313.436 384.275 313.436 385.002C313.436 385.723 313.539 386.378 313.745 386.965C313.956 387.552 314.273 388.021 314.696 388.372C315.123 388.717 315.659 388.89 316.303 388.89ZM327.15 375.069V390.899H324.352V375.069H327.15Z" fill="black"/>
<path d="M97.6572 420.928C89.2847 420.928 82.498 427.715 82.498 436.087C82.498 444.46 89.2847 451.247 97.6572 451.247C106.03 451.247 112.816 444.46 112.816 436.087C112.801 427.723 106.022 420.944 97.6572 420.928ZM104.873 433.435L96.331 441.598C96.1102 441.804 95.8179 441.919 95.5147 441.918C95.2146 441.922 94.927 441.807 94.7124 441.598L90.4414 437.516C90.1196 437.235 89.9766 436.799 90.0714 436.381C90.1647 435.963 90.4803 435.63 90.8923 435.515C91.3044 435.399 91.7475 435.518 92.046 435.825L95.5147 439.133L103.268 431.743C103.74 431.333 104.452 431.367 104.882 431.819C105.311 432.273 105.308 432.986 104.873 433.435Z" fill="black"/>
<path d="M133.263 443.762V427.932H136.13V441.358H143.103V443.762H133.263ZM150.647 443.994C149.487 443.994 148.482 443.739 147.632 443.229C146.782 442.719 146.122 442.005 145.653 441.088C145.19 440.17 144.958 439.099 144.958 437.872C144.958 436.646 145.19 435.571 145.653 434.649C146.122 433.726 146.782 433.01 147.632 432.5C148.482 431.99 149.487 431.735 150.647 431.735C151.806 431.735 152.811 431.99 153.661 432.5C154.512 433.01 155.169 433.726 155.632 434.649C156.101 435.571 156.336 436.646 156.336 437.872C156.336 439.099 156.101 440.17 155.632 441.088C155.169 442.005 154.512 442.719 153.661 443.229C152.811 443.739 151.806 443.994 150.647 443.994ZM150.662 441.752C151.291 441.752 151.817 441.58 152.239 441.235C152.662 440.884 152.976 440.415 153.182 439.828C153.393 439.24 153.499 438.586 153.499 437.864C153.499 437.138 153.393 436.481 153.182 435.893C152.976 435.301 152.662 434.829 152.239 434.479C151.817 434.128 151.291 433.953 150.662 433.953C150.018 433.953 149.482 434.128 149.054 434.479C148.632 434.829 148.315 435.301 148.104 435.893C147.898 436.481 147.795 437.138 147.795 437.864C147.795 438.586 147.898 439.24 148.104 439.828C148.315 440.415 148.632 440.884 149.054 441.235C149.482 441.58 150.018 441.752 150.662 441.752ZM161.509 436.805V443.762H158.711V431.889H161.385V433.907H161.525C161.798 433.242 162.233 432.714 162.831 432.322C163.434 431.931 164.178 431.735 165.065 431.735C165.884 431.735 166.598 431.91 167.206 432.26C167.819 432.611 168.293 433.118 168.628 433.783C168.968 434.448 169.136 435.254 169.131 436.203V443.762H166.332V436.635C166.332 435.842 166.126 435.221 165.714 434.772C165.307 434.324 164.743 434.1 164.021 434.1C163.532 434.1 163.096 434.208 162.715 434.425C162.339 434.636 162.042 434.943 161.826 435.345C161.615 435.746 161.509 436.233 161.509 436.805ZM177.139 448.462C176.134 448.462 175.271 448.325 174.549 448.052C173.828 447.784 173.248 447.424 172.81 446.97C172.372 446.517 172.068 446.014 171.898 445.463L174.418 444.852C174.531 445.084 174.696 445.313 174.912 445.54C175.129 445.772 175.42 445.963 175.786 446.112C176.157 446.267 176.623 446.344 177.185 446.344C177.979 446.344 178.636 446.151 179.156 445.764C179.677 445.383 179.937 444.754 179.937 443.878V441.629H179.798C179.653 441.917 179.442 442.214 179.164 442.518C178.891 442.822 178.527 443.077 178.074 443.283C177.626 443.489 177.061 443.592 176.381 443.592C175.469 443.592 174.642 443.378 173.9 442.951C173.163 442.518 172.575 441.874 172.137 441.018C171.705 440.158 171.488 439.081 171.488 437.787C171.488 436.483 171.705 435.383 172.137 434.486C172.575 433.585 173.166 432.902 173.908 432.438C174.65 431.969 175.477 431.735 176.389 431.735C177.085 431.735 177.657 431.853 178.105 432.09C178.558 432.322 178.919 432.603 179.187 432.933C179.455 433.257 179.659 433.564 179.798 433.853H179.952V431.889H182.712V443.955C182.712 444.971 182.47 445.811 181.985 446.475C181.501 447.14 180.839 447.637 179.999 447.967C179.159 448.297 178.205 448.462 177.139 448.462ZM177.162 441.397C177.754 441.397 178.259 441.253 178.677 440.964C179.094 440.675 179.411 440.261 179.628 439.72C179.844 439.178 179.952 438.529 179.952 437.772C179.952 437.024 179.844 436.37 179.628 435.808C179.416 435.247 179.102 434.811 178.685 434.502C178.272 434.188 177.765 434.03 177.162 434.03C176.538 434.03 176.018 434.193 175.6 434.517C175.183 434.842 174.869 435.288 174.657 435.855C174.446 436.416 174.34 437.055 174.34 437.772C174.34 438.498 174.446 439.135 174.657 439.681C174.874 440.222 175.191 440.645 175.608 440.949C176.031 441.247 176.549 441.397 177.162 441.397ZM190.836 443.994C189.645 443.994 188.617 443.747 187.752 443.252C186.891 442.752 186.229 442.046 185.765 441.134C185.301 440.217 185.069 439.137 185.069 437.895C185.069 436.674 185.301 435.602 185.765 434.68C186.234 433.752 186.888 433.031 187.728 432.515C188.568 431.995 189.555 431.735 190.689 431.735C191.421 431.735 192.111 431.853 192.76 432.09C193.415 432.322 193.992 432.683 194.492 433.172C194.997 433.662 195.394 434.286 195.682 435.043C195.971 435.795 196.115 436.692 196.115 437.733V438.591H186.383V436.705H193.433C193.428 436.169 193.312 435.692 193.085 435.275C192.858 434.852 192.541 434.52 192.134 434.278C191.732 434.036 191.263 433.914 190.728 433.914C190.156 433.914 189.653 434.054 189.22 434.332C188.787 434.605 188.45 434.966 188.208 435.414C187.971 435.857 187.849 436.344 187.844 436.875V438.521C187.844 439.212 187.971 439.805 188.223 440.299C188.476 440.789 188.829 441.165 189.282 441.428C189.736 441.685 190.266 441.814 190.874 441.814C191.281 441.814 191.65 441.758 191.98 441.644C192.31 441.526 192.596 441.353 192.838 441.126C193.08 440.9 193.263 440.619 193.387 440.284L195.999 440.578C195.834 441.268 195.52 441.871 195.056 442.386C194.598 442.896 194.01 443.293 193.294 443.577C192.578 443.855 191.758 443.994 190.836 443.994ZM198.482 443.762V431.889H201.196V433.868H201.319C201.536 433.183 201.907 432.655 202.432 432.284C202.963 431.907 203.569 431.719 204.249 431.719C204.403 431.719 204.576 431.727 204.767 431.742C204.963 431.753 205.125 431.771 205.254 431.797V434.371C205.135 434.329 204.947 434.293 204.689 434.262C204.437 434.226 204.192 434.208 203.955 434.208C203.445 434.208 202.986 434.319 202.579 434.541C202.177 434.757 201.86 435.059 201.628 435.445C201.397 435.831 201.281 436.277 201.281 436.782V443.762H198.482ZM215.31 436.805V443.762H212.512V427.932H215.248V433.907H215.387C215.666 433.237 216.096 432.709 216.678 432.322C217.266 431.931 218.013 431.735 218.92 431.735C219.744 431.735 220.463 431.907 221.076 432.253C221.69 432.598 222.164 433.103 222.499 433.768C222.839 434.432 223.009 435.244 223.009 436.203V443.762H220.211V436.635C220.211 435.837 220.005 435.216 219.592 434.772C219.185 434.324 218.613 434.1 217.876 434.1C217.382 434.1 216.938 434.208 216.547 434.425C216.16 434.636 215.856 434.943 215.635 435.345C215.418 435.746 215.31 436.233 215.31 436.805ZM225.861 443.762V431.889H228.659V443.762H225.861ZM227.268 430.204C226.825 430.204 226.444 430.057 226.124 429.764C225.805 429.465 225.645 429.107 225.645 428.689C225.645 428.267 225.805 427.908 226.124 427.615C226.444 427.316 226.825 427.166 227.268 427.166C227.716 427.166 228.098 427.316 228.412 427.615C228.732 427.908 228.891 428.267 228.891 428.689C228.891 429.107 228.732 429.465 228.412 429.764C228.098 430.057 227.716 430.204 227.268 430.204ZM231.537 443.762V431.889H234.25V433.868H234.374C234.59 433.183 234.961 432.655 235.487 432.284C236.017 431.907 236.623 431.719 237.303 431.719C237.458 431.719 237.63 431.727 237.821 431.742C238.017 431.753 238.179 431.771 238.308 431.797V434.371C238.19 434.329 238.001 434.293 237.744 434.262C237.491 434.226 237.246 434.208 237.009 434.208C236.499 434.208 236.041 434.319 235.634 434.541C235.232 434.757 234.915 435.059 234.683 435.445C234.451 435.831 234.335 436.277 234.335 436.782V443.762H231.537ZM240.167 443.762V431.889H242.965V443.762H240.167ZM241.574 430.204C241.131 430.204 240.749 430.057 240.43 429.764C240.11 429.465 239.951 429.107 239.951 428.689C239.951 428.267 240.11 427.908 240.43 427.615C240.749 427.316 241.131 427.166 241.574 427.166C242.022 427.166 242.404 427.316 242.718 427.615C243.037 427.908 243.197 428.267 243.197 428.689C243.197 429.107 243.037 429.465 242.718 429.764C242.404 430.057 242.022 430.204 241.574 430.204ZM248.641 436.805V443.762H245.843V431.889H248.517V433.907H248.656C248.929 433.242 249.365 432.714 249.963 432.322C250.566 431.931 251.31 431.735 252.196 431.735C253.016 431.735 253.73 431.91 254.338 432.26C254.951 432.611 255.425 433.118 255.76 433.783C256.1 434.448 256.267 435.254 256.262 436.203V443.762H253.464V436.635C253.464 435.842 253.258 435.221 252.846 434.772C252.439 434.324 251.874 434.1 251.153 434.1C250.663 434.1 250.228 434.208 249.847 434.425C249.47 434.636 249.174 434.943 248.958 435.345C248.746 435.746 248.641 436.233 248.641 436.805ZM264.27 448.462C263.265 448.462 262.402 448.325 261.681 448.052C260.959 447.784 260.38 447.424 259.942 446.97C259.504 446.517 259.2 446.014 259.03 445.463L261.549 444.852C261.663 445.084 261.828 445.313 262.044 445.54C262.261 445.772 262.552 445.963 262.918 446.112C263.289 446.267 263.755 446.344 264.317 446.344C265.11 446.344 265.767 446.151 266.288 445.764C266.808 445.383 267.069 444.754 267.069 443.878V441.629H266.929C266.785 441.917 266.574 442.214 266.296 442.518C266.022 442.822 265.659 443.077 265.206 443.283C264.757 443.489 264.193 443.592 263.513 443.592C262.601 443.592 261.774 443.378 261.032 442.951C260.295 442.518 259.707 441.874 259.269 441.018C258.836 440.158 258.62 439.081 258.62 437.787C258.62 436.483 258.836 435.383 259.269 434.486C259.707 433.585 260.297 432.902 261.039 432.438C261.781 431.969 262.608 431.735 263.521 431.735C264.216 431.735 264.788 431.853 265.237 432.09C265.69 432.322 266.051 432.603 266.319 432.933C266.587 433.257 266.79 433.564 266.929 433.853H267.084V431.889H269.844V443.955C269.844 444.971 269.601 445.811 269.117 446.475C268.633 447.14 267.97 447.637 267.13 447.967C266.29 448.297 265.337 448.462 264.27 448.462ZM264.294 441.397C264.886 441.397 265.391 441.253 265.809 440.964C266.226 440.675 266.543 440.261 266.759 439.72C266.976 439.178 267.084 438.529 267.084 437.772C267.084 437.024 266.976 436.37 266.759 435.808C266.548 435.247 266.234 434.811 265.816 434.502C265.404 434.188 264.896 434.03 264.294 434.03C263.67 434.03 263.15 434.193 262.732 434.517C262.315 434.842 262 435.288 261.789 435.855C261.578 436.416 261.472 437.055 261.472 437.772C261.472 438.498 261.578 439.135 261.789 439.681C262.006 440.222 262.322 440.645 262.74 440.949C263.162 441.247 263.68 441.397 264.294 441.397ZM284.039 431.889V434.054H277.214V431.889H284.039ZM278.899 429.045H281.697V440.191C281.697 440.567 281.754 440.856 281.867 441.057C281.986 441.253 282.14 441.387 282.331 441.459C282.522 441.531 282.733 441.567 282.965 441.567C283.14 441.567 283.3 441.554 283.444 441.528C283.593 441.503 283.707 441.479 283.784 441.459L284.256 443.646C284.106 443.698 283.892 443.754 283.614 443.816C283.341 443.878 283.006 443.914 282.609 443.925C281.908 443.945 281.277 443.84 280.715 443.608C280.154 443.371 279.708 443.005 279.378 442.51C279.054 442.015 278.894 441.397 278.899 440.655V429.045ZM286.379 443.762V431.889H289.178V443.762H286.379ZM287.786 430.204C287.343 430.204 286.962 430.057 286.642 429.764C286.323 429.465 286.163 429.107 286.163 428.689C286.163 428.267 286.323 427.908 286.642 427.615C286.962 427.316 287.343 427.166 287.786 427.166C288.235 427.166 288.616 427.316 288.93 427.615C289.25 427.908 289.409 428.267 289.409 428.689C289.409 429.107 289.25 429.465 288.93 429.764C288.616 430.057 288.235 430.204 287.786 430.204ZM292.055 443.762V431.889H294.729V433.907H294.869C295.116 433.227 295.526 432.696 296.098 432.314C296.67 431.928 297.352 431.735 298.146 431.735C298.95 431.735 299.628 431.931 300.179 432.322C300.735 432.709 301.127 433.237 301.354 433.907H301.478C301.74 433.247 302.184 432.722 302.807 432.33C303.436 431.933 304.18 431.735 305.041 431.735C306.133 431.735 307.025 432.08 307.715 432.77C308.406 433.461 308.751 434.468 308.751 435.793V443.762H305.945V436.226C305.945 435.489 305.75 434.95 305.358 434.61C304.966 434.265 304.487 434.092 303.92 434.092C303.245 434.092 302.717 434.304 302.336 434.726C301.959 435.144 301.771 435.687 301.771 436.357V443.762H299.027V436.11C299.027 435.497 298.842 435.007 298.471 434.641C298.105 434.275 297.626 434.092 297.033 434.092C296.631 434.092 296.265 434.195 295.935 434.401C295.606 434.602 295.343 434.888 295.147 435.259C294.951 435.625 294.853 436.053 294.853 436.543V443.762H292.055ZM316.846 443.994C315.656 443.994 314.628 443.747 313.762 443.252C312.901 442.752 312.239 442.046 311.776 441.134C311.312 440.217 311.08 439.137 311.08 437.895C311.08 436.674 311.312 435.602 311.776 434.68C312.244 433.752 312.899 433.031 313.739 432.515C314.579 431.995 315.566 431.735 316.699 431.735C317.431 431.735 318.122 431.853 318.771 432.09C319.425 432.322 320.003 432.683 320.502 433.172C321.007 433.662 321.404 434.286 321.693 435.043C321.981 435.795 322.126 436.692 322.126 437.733V438.591H312.394V436.705H319.443C319.438 436.169 319.322 435.692 319.096 435.275C318.869 434.852 318.552 434.52 318.145 434.278C317.743 434.036 317.274 433.914 316.738 433.914C316.166 433.914 315.664 434.054 315.231 434.332C314.798 434.605 314.46 434.966 314.218 435.414C313.981 435.857 313.86 436.344 313.855 436.875V438.521C313.855 439.212 313.981 439.805 314.234 440.299C314.486 440.789 314.839 441.165 315.293 441.428C315.746 441.685 316.277 441.814 316.885 441.814C317.292 441.814 317.66 441.758 317.99 441.644C318.32 441.526 318.606 441.353 318.848 441.126C319.09 440.9 319.273 440.619 319.397 440.284L322.01 440.578C321.845 441.268 321.53 441.871 321.067 442.386C320.608 442.896 320.021 443.293 319.304 443.577C318.588 443.855 317.769 443.994 316.846 443.994ZM333.877 435.028L331.326 435.306C331.254 435.048 331.128 434.806 330.947 434.579C330.772 434.353 330.535 434.17 330.236 434.03C329.937 433.891 329.571 433.822 329.138 433.822C328.556 433.822 328.067 433.948 327.67 434.2C327.278 434.453 327.085 434.78 327.09 435.182C327.085 435.527 327.211 435.808 327.469 436.025C327.732 436.241 328.165 436.419 328.767 436.558L330.793 436.991C331.916 437.233 332.751 437.617 333.297 438.143C333.848 438.668 334.127 439.356 334.132 440.207C334.127 440.954 333.908 441.613 333.475 442.185C333.047 442.752 332.452 443.195 331.689 443.515C330.927 443.834 330.051 443.994 329.061 443.994C327.608 443.994 326.438 443.69 325.552 443.082C324.666 442.469 324.137 441.616 323.967 440.523L326.696 440.261C326.82 440.797 327.082 441.201 327.484 441.474C327.886 441.747 328.409 441.884 329.053 441.884C329.718 441.884 330.252 441.747 330.654 441.474C331.061 441.201 331.264 440.864 331.264 440.462C331.264 440.121 331.133 439.841 330.87 439.619C330.612 439.397 330.21 439.227 329.664 439.109L327.639 438.684C326.5 438.447 325.658 438.047 325.111 437.486C324.565 436.919 324.294 436.203 324.3 435.337C324.294 434.605 324.493 433.971 324.895 433.435C325.302 432.894 325.866 432.477 326.588 432.183C327.314 431.884 328.152 431.735 329.1 431.735C330.491 431.735 331.586 432.031 332.385 432.624C333.189 433.216 333.686 434.018 333.877 435.028Z" fill="black"/>
<path d="M97.6572 473.791C89.2847 473.791 82.498 480.578 82.498 488.95C82.498 497.323 89.2847 504.109 97.6572 504.109C106.03 504.109 112.816 497.323 112.816 488.95C112.801 480.585 106.022 473.807 97.6572 473.791ZM104.873 486.298L96.331 494.46C96.1102 494.667 95.8179 494.782 95.5147 494.781C95.2146 494.785 94.927 494.67 94.7124 494.46L90.4414 490.379C90.1196 490.098 89.9766 489.662 90.0714 489.244C90.1647 488.826 90.4803 488.493 90.8923 488.378C91.3044 488.261 91.7475 488.381 92.046 488.687L95.5147 491.996L103.268 484.606C103.74 484.196 104.452 484.23 104.882 484.682C105.311 485.136 105.308 485.848 104.873 486.298Z" fill="black"/>
<path d="M135.801 480.794L139.921 493.255H140.084L144.196 480.794H147.35L141.769 496.625H138.229L132.655 480.794H135.801ZM151.495 496.865C150.742 496.865 150.065 496.731 149.462 496.463C148.864 496.19 148.39 495.788 148.04 495.257C147.694 494.726 147.522 494.072 147.522 493.293C147.522 492.624 147.645 492.07 147.893 491.632C148.14 491.194 148.478 490.843 148.905 490.58C149.333 490.318 149.815 490.119 150.351 489.985C150.892 489.846 151.451 489.746 152.028 489.684C152.724 489.612 153.288 489.547 153.721 489.49C154.154 489.429 154.468 489.336 154.664 489.212C154.865 489.083 154.965 488.885 154.965 488.617V488.571C154.965 487.988 154.793 487.537 154.448 487.218C154.102 486.898 153.605 486.739 152.956 486.739C152.27 486.739 151.727 486.888 151.325 487.187C150.928 487.486 150.66 487.839 150.521 488.246L147.908 487.875C148.114 487.153 148.454 486.551 148.928 486.066C149.403 485.577 149.982 485.211 150.668 484.969C151.353 484.721 152.111 484.597 152.94 484.597C153.512 484.597 154.082 484.664 154.649 484.798C155.215 484.932 155.733 485.154 156.202 485.463C156.671 485.767 157.047 486.182 157.331 486.708C157.619 487.233 157.764 487.89 157.764 488.679V496.625H155.074V494.994H154.981C154.811 495.324 154.571 495.633 154.262 495.922C153.958 496.205 153.574 496.434 153.11 496.61C152.652 496.78 152.113 496.865 151.495 496.865ZM152.221 494.809C152.783 494.809 153.27 494.698 153.682 494.476C154.095 494.249 154.411 493.951 154.633 493.579C154.86 493.208 154.973 492.804 154.973 492.366V490.967C154.886 491.039 154.736 491.106 154.525 491.168C154.319 491.23 154.087 491.284 153.829 491.33C153.572 491.376 153.316 491.418 153.064 491.454C152.811 491.49 152.592 491.521 152.407 491.547C151.989 491.603 151.616 491.696 151.286 491.825C150.956 491.954 150.696 492.134 150.505 492.366C150.315 492.593 150.219 492.886 150.219 493.247C150.219 493.762 150.407 494.151 150.784 494.414C151.16 494.677 151.639 494.809 152.221 494.809ZM160.577 496.625V484.752H163.29V486.731H163.414C163.63 486.046 164.002 485.517 164.527 485.146C165.058 484.77 165.663 484.582 166.344 484.582C166.498 484.582 166.671 484.59 166.862 484.605C167.057 484.616 167.22 484.634 167.349 484.659V487.233C167.23 487.192 167.042 487.156 166.784 487.125C166.532 487.089 166.287 487.071 166.05 487.071C165.54 487.071 165.081 487.182 164.674 487.403C164.272 487.62 163.955 487.921 163.723 488.308C163.491 488.694 163.375 489.14 163.375 489.645V496.625H160.577ZM169.208 496.625V484.752H172.006V496.625H169.208ZM170.614 483.067C170.171 483.067 169.79 482.92 169.47 482.626C169.151 482.328 168.991 481.969 168.991 481.552C168.991 481.129 169.151 480.771 169.47 480.478C169.79 480.179 170.171 480.029 170.614 480.029C171.063 480.029 171.444 480.179 171.758 480.478C172.078 480.771 172.238 481.129 172.238 481.552C172.238 481.969 172.078 482.328 171.758 482.626C171.444 482.92 171.063 483.067 170.614 483.067ZM180.062 496.857C178.903 496.857 177.898 496.602 177.047 496.092C176.197 495.581 175.538 494.868 175.069 493.951C174.605 493.033 174.373 491.961 174.373 490.735C174.373 489.508 174.605 488.434 175.069 487.512C175.538 486.589 176.197 485.873 177.047 485.363C177.898 484.853 178.903 484.597 180.062 484.597C181.221 484.597 182.226 484.853 183.077 485.363C183.927 485.873 184.584 486.589 185.048 487.512C185.517 488.434 185.751 489.508 185.751 490.735C185.751 491.961 185.517 493.033 185.048 493.951C184.584 494.868 183.927 495.581 183.077 496.092C182.226 496.602 181.221 496.857 180.062 496.857ZM180.077 494.615C180.706 494.615 181.232 494.443 181.654 494.097C182.077 493.747 182.391 493.278 182.597 492.691C182.809 492.103 182.914 491.449 182.914 490.727C182.914 490.001 182.809 489.344 182.597 488.756C182.391 488.163 182.077 487.692 181.654 487.342C181.232 486.991 180.706 486.816 180.077 486.816C179.433 486.816 178.897 486.991 178.47 487.342C178.047 487.692 177.73 488.163 177.519 488.756C177.313 489.344 177.21 490.001 177.21 490.727C177.21 491.449 177.313 492.103 177.519 492.691C177.73 493.278 178.047 493.747 178.47 494.097C178.897 494.443 179.433 494.615 180.077 494.615ZM195.694 491.632V484.752H198.492V496.625H195.779V494.515H195.655C195.387 495.18 194.946 495.723 194.333 496.146C193.725 496.568 192.975 496.78 192.084 496.78C191.306 496.78 190.618 496.607 190.02 496.262C189.427 495.911 188.963 495.404 188.629 494.739C188.294 494.069 188.126 493.26 188.126 492.312V484.752H190.924V491.879C190.924 492.631 191.13 493.229 191.543 493.672C191.955 494.115 192.496 494.337 193.166 494.337C193.578 494.337 193.978 494.237 194.364 494.036C194.75 493.835 195.067 493.536 195.315 493.139C195.567 492.737 195.694 492.234 195.694 491.632ZM210.753 487.89L208.202 488.169C208.13 487.911 208.004 487.669 207.823 487.442C207.648 487.215 207.411 487.032 207.112 486.893C206.813 486.754 206.448 486.685 206.015 486.685C205.432 486.685 204.943 486.811 204.546 487.063C204.154 487.316 203.961 487.643 203.966 488.045C203.961 488.39 204.087 488.671 204.345 488.888C204.608 489.104 205.041 489.282 205.644 489.421L207.669 489.854C208.792 490.096 209.627 490.48 210.173 491.005C210.725 491.531 211.003 492.219 211.008 493.069C211.003 493.817 210.784 494.476 210.351 495.048C209.923 495.615 209.328 496.058 208.565 496.378C207.803 496.697 206.927 496.857 205.937 496.857C204.484 496.857 203.314 496.553 202.428 495.945C201.542 495.332 201.014 494.479 200.843 493.386L203.572 493.123C203.696 493.659 203.959 494.064 204.361 494.337C204.762 494.61 205.286 494.747 205.93 494.747C206.594 494.747 207.128 494.61 207.53 494.337C207.937 494.064 208.14 493.726 208.14 493.324C208.14 492.984 208.009 492.703 207.746 492.482C207.488 492.26 207.087 492.09 206.54 491.972L204.515 491.547C203.376 491.31 202.534 490.91 201.987 490.348C201.441 489.782 201.171 489.065 201.176 488.2C201.171 487.468 201.369 486.834 201.771 486.298C202.178 485.757 202.742 485.34 203.464 485.046C204.19 484.747 205.028 484.597 205.976 484.597C207.367 484.597 208.462 484.894 209.261 485.486C210.065 486.079 210.562 486.88 210.753 487.89ZM224.643 484.752V486.916H217.818V484.752H224.643ZM219.503 481.908H222.301V493.054C222.301 493.43 222.358 493.719 222.471 493.92C222.59 494.115 222.744 494.249 222.935 494.322C223.126 494.394 223.337 494.43 223.569 494.43C223.744 494.43 223.904 494.417 224.048 494.391C224.198 494.365 224.311 494.342 224.388 494.322L224.86 496.509C224.71 496.561 224.497 496.617 224.218 496.679C223.945 496.741 223.61 496.777 223.213 496.787C222.513 496.808 221.881 496.702 221.32 496.47C220.758 496.233 220.312 495.867 219.982 495.373C219.658 494.878 219.498 494.26 219.503 493.518V481.908ZM230.4 496.865C229.648 496.865 228.97 496.731 228.367 496.463C227.769 496.19 227.295 495.788 226.945 495.257C226.6 494.726 226.427 494.072 226.427 493.293C226.427 492.624 226.551 492.07 226.798 491.632C227.045 491.194 227.383 490.843 227.811 490.58C228.238 490.318 228.72 490.119 229.256 489.985C229.797 489.846 230.356 489.746 230.933 489.684C231.629 489.612 232.193 489.547 232.626 489.49C233.059 489.429 233.374 489.336 233.569 489.212C233.77 489.083 233.871 488.885 233.871 488.617V488.571C233.871 487.988 233.698 487.537 233.353 487.218C233.008 486.898 232.51 486.739 231.861 486.739C231.176 486.739 230.632 486.888 230.23 487.187C229.833 487.486 229.565 487.839 229.426 488.246L226.814 487.875C227.02 487.153 227.36 486.551 227.834 486.066C228.308 485.577 228.888 485.211 229.573 484.969C230.258 484.721 231.016 484.597 231.846 484.597C232.418 484.597 232.987 484.664 233.554 484.798C234.121 484.932 234.639 485.154 235.108 485.463C235.576 485.767 235.953 486.182 236.236 486.708C236.525 487.233 236.669 487.89 236.669 488.679V496.625H233.979V494.994H233.886C233.716 495.324 233.477 495.633 233.167 495.922C232.863 496.205 232.479 496.434 232.016 496.61C231.557 496.78 231.019 496.865 230.4 496.865ZM231.127 494.809C231.688 494.809 232.175 494.698 232.588 494.476C233 494.249 233.317 493.951 233.538 493.579C233.765 493.208 233.879 492.804 233.879 492.366V490.967C233.791 491.039 233.641 491.106 233.43 491.168C233.224 491.23 232.992 491.284 232.735 491.33C232.477 491.376 232.222 491.418 231.969 491.454C231.717 491.49 231.498 491.521 231.312 491.547C230.895 491.603 230.521 491.696 230.191 491.825C229.862 491.954 229.601 492.134 229.411 492.366C229.22 492.593 229.125 492.886 229.125 493.247C229.125 493.762 229.313 494.151 229.689 494.414C230.065 494.677 230.544 494.809 231.127 494.809ZM241.771 484.752L244.167 489.135L246.602 484.752H249.562L245.983 490.689L249.624 496.625H246.679L244.167 492.35L241.678 496.625H238.71L242.327 490.689L238.802 484.752H241.771ZM256.536 496.857C255.346 496.857 254.318 496.61 253.452 496.115C252.592 495.615 251.929 494.909 251.466 493.997C251.002 493.08 250.77 492 250.77 490.758C250.77 489.537 251.002 488.465 251.466 487.543C251.935 486.615 252.589 485.894 253.429 485.378C254.269 484.858 255.256 484.597 256.39 484.597C257.121 484.597 257.812 484.716 258.461 484.953C259.116 485.185 259.693 485.546 260.193 486.035C260.698 486.525 261.094 487.148 261.383 487.906C261.672 488.658 261.816 489.555 261.816 490.596V491.454H252.084V489.568H259.134C259.128 489.032 259.012 488.555 258.786 488.138C258.559 487.715 258.242 487.383 257.835 487.141C257.433 486.898 256.964 486.777 256.428 486.777C255.856 486.777 255.354 486.916 254.921 487.195C254.488 487.468 254.15 487.829 253.908 488.277C253.671 488.72 253.55 489.207 253.545 489.738V491.384C253.545 492.075 253.671 492.667 253.924 493.162C254.176 493.652 254.529 494.028 254.983 494.291C255.436 494.548 255.967 494.677 256.575 494.677C256.982 494.677 257.351 494.62 257.68 494.507C258.01 494.389 258.296 494.216 258.538 493.989C258.781 493.762 258.964 493.482 259.087 493.147L261.7 493.44C261.535 494.131 261.221 494.734 260.757 495.249C260.298 495.759 259.711 496.156 258.994 496.439C258.278 496.718 257.459 496.857 256.536 496.857ZM273.567 487.89L271.016 488.169C270.944 487.911 270.818 487.669 270.637 487.442C270.462 487.215 270.225 487.032 269.926 486.893C269.627 486.754 269.261 486.685 268.829 486.685C268.246 486.685 267.757 486.811 267.36 487.063C266.968 487.316 266.775 487.643 266.78 488.045C266.775 488.39 266.901 488.671 267.159 488.888C267.422 489.104 267.855 489.282 268.458 489.421L270.483 489.854C271.606 490.096 272.441 490.48 272.987 491.005C273.539 491.531 273.817 492.219 273.822 493.069C273.817 493.817 273.598 494.476 273.165 495.048C272.737 495.615 272.142 496.058 271.379 496.378C270.617 496.697 269.741 496.857 268.751 496.857C267.298 496.857 266.128 496.553 265.242 495.945C264.356 495.332 263.827 494.479 263.657 493.386L266.386 493.123C266.51 493.659 266.773 494.064 267.174 494.337C267.576 494.61 268.099 494.747 268.744 494.747C269.408 494.747 269.942 494.61 270.344 494.337C270.751 494.064 270.954 493.726 270.954 493.324C270.954 492.984 270.823 492.703 270.56 492.482C270.302 492.26 269.9 492.09 269.354 491.972L267.329 491.547C266.19 491.31 265.348 490.91 264.801 490.348C264.255 489.782 263.985 489.065 263.99 488.2C263.985 487.468 264.183 486.834 264.585 486.298C264.992 485.757 265.556 485.34 266.278 485.046C267.004 484.747 267.842 484.597 268.79 484.597C270.181 484.597 271.276 484.894 272.075 485.486C272.879 486.079 273.376 486.88 273.567 487.89ZM284.945 496.865C284.193 496.865 283.515 496.731 282.912 496.463C282.314 496.19 281.84 495.788 281.49 495.257C281.145 494.726 280.972 494.072 280.972 493.293C280.972 492.624 281.096 492.07 281.343 491.632C281.59 491.194 281.928 490.843 282.356 490.58C282.783 490.318 283.265 490.119 283.801 489.985C284.342 489.846 284.901 489.746 285.479 489.684C286.174 489.612 286.738 489.547 287.171 489.49C287.604 489.429 287.919 489.336 288.114 489.212C288.315 489.083 288.416 488.885 288.416 488.617V488.571C288.416 487.988 288.243 487.537 287.898 487.218C287.553 486.898 287.055 486.739 286.406 486.739C285.721 486.739 285.177 486.888 284.775 487.187C284.378 487.486 284.11 487.839 283.971 488.246L281.359 487.875C281.565 487.153 281.905 486.551 282.379 486.066C282.853 485.577 283.433 485.211 284.118 484.969C284.803 484.721 285.561 484.597 286.391 484.597C286.963 484.597 287.532 484.664 288.099 484.798C288.666 484.932 289.184 485.154 289.653 485.463C290.122 485.767 290.498 486.182 290.781 486.708C291.07 487.233 291.214 487.89 291.214 488.679V496.625H288.524V494.994H288.431C288.261 495.324 288.022 495.633 287.712 495.922C287.408 496.205 287.024 496.434 286.561 496.61C286.102 496.78 285.564 496.865 284.945 496.865ZM285.672 494.809C286.233 494.809 286.72 494.698 287.133 494.476C287.545 494.249 287.862 493.951 288.083 493.579C288.31 493.208 288.424 492.804 288.424 492.366V490.967C288.336 491.039 288.186 491.106 287.975 491.168C287.769 491.23 287.537 491.284 287.28 491.33C287.022 491.376 286.767 491.418 286.514 491.454C286.262 491.49 286.043 491.521 285.857 491.547C285.44 491.603 285.066 491.696 284.736 491.825C284.407 491.954 284.146 492.134 283.956 492.366C283.765 492.593 283.67 492.886 283.67 493.247C283.67 493.762 283.858 494.151 284.234 494.414C284.61 494.677 285.089 494.809 285.672 494.809ZM296.826 489.668V496.625H294.028V484.752H296.702V486.77H296.841C297.114 486.105 297.55 485.577 298.148 485.185C298.751 484.793 299.495 484.597 300.381 484.597C301.201 484.597 301.915 484.773 302.523 485.123C303.136 485.474 303.61 485.981 303.945 486.646C304.285 487.311 304.452 488.117 304.447 489.065V496.625H301.649V489.498C301.649 488.705 301.443 488.084 301.031 487.635C300.624 487.187 300.059 486.963 299.338 486.963C298.848 486.963 298.413 487.071 298.032 487.287C297.655 487.499 297.359 487.805 297.143 488.207C296.931 488.609 296.826 489.096 296.826 489.668ZM311.698 496.834C310.765 496.834 309.93 496.594 309.193 496.115C308.456 495.636 307.874 494.94 307.446 494.028C307.019 493.116 306.805 492.008 306.805 490.704C306.805 489.385 307.021 488.272 307.454 487.365C307.892 486.453 308.482 485.765 309.224 485.301C309.966 484.832 310.793 484.597 311.706 484.597C312.401 484.597 312.973 484.716 313.422 484.953C313.87 485.185 314.225 485.466 314.488 485.796C314.751 486.12 314.955 486.427 315.099 486.715H315.215V480.794H318.021V496.625H315.269V494.754H315.099C314.955 495.043 314.746 495.35 314.473 495.674C314.2 495.994 313.839 496.267 313.391 496.494C312.942 496.72 312.378 496.834 311.698 496.834ZM312.479 494.538C313.071 494.538 313.576 494.378 313.994 494.059C314.411 493.734 314.728 493.283 314.944 492.706C315.161 492.129 315.269 491.456 315.269 490.689C315.269 489.921 315.161 489.253 314.944 488.687C314.733 488.12 314.419 487.679 314.001 487.365C313.589 487.05 313.081 486.893 312.479 486.893C311.855 486.893 311.335 487.056 310.917 487.38C310.5 487.705 310.185 488.153 309.974 488.725C309.763 489.297 309.657 489.952 309.657 490.689C309.657 491.431 309.763 492.093 309.974 492.675C310.191 493.252 310.507 493.708 310.925 494.043C311.347 494.373 311.865 494.538 312.479 494.538ZM331.658 496.857C330.468 496.857 329.44 496.61 328.574 496.115C327.713 495.615 327.051 494.909 326.587 493.997C326.123 493.08 325.892 492 325.892 490.758C325.892 489.537 326.123 488.465 326.587 487.543C327.056 486.615 327.711 485.894 328.551 485.378C329.391 484.858 330.377 484.597 331.511 484.597C332.243 484.597 332.933 484.716 333.583 484.953C334.237 485.185 334.814 485.546 335.314 486.035C335.819 486.525 336.216 487.148 336.505 487.906C336.793 488.658 336.937 489.555 336.937 490.596V491.454H327.206V489.568H334.255C334.25 489.032 334.134 488.555 333.907 488.138C333.681 487.715 333.364 487.383 332.957 487.141C332.555 486.898 332.086 486.777 331.55 486.777C330.978 486.777 330.475 486.916 330.042 487.195C329.61 487.468 329.272 487.829 329.03 488.277C328.793 488.72 328.672 489.207 328.667 489.738V491.384C328.667 492.075 328.793 492.667 329.045 493.162C329.298 493.652 329.651 494.028 330.104 494.291C330.558 494.548 331.089 494.677 331.697 494.677C332.104 494.677 332.472 494.62 332.802 494.507C333.132 494.389 333.418 494.216 333.66 493.989C333.902 493.762 334.085 493.482 334.209 493.147L336.821 493.44C336.657 494.131 336.342 494.734 335.878 495.249C335.42 495.759 334.832 496.156 334.116 496.439C333.4 496.718 332.58 496.857 331.658 496.857ZM341.338 484.752L343.734 489.135L346.169 484.752H349.129L345.55 490.689L349.191 496.625H346.246L343.734 492.35L341.245 496.625H338.277L341.894 490.689L338.369 484.752H341.338ZM357.222 484.752V486.916H350.397V484.752H357.222ZM352.082 481.908H354.88V493.054C354.88 493.43 354.937 493.719 355.05 493.92C355.169 494.115 355.323 494.249 355.514 494.322C355.705 494.394 355.916 494.43 356.148 494.43C356.323 494.43 356.483 494.417 356.627 494.391C356.776 494.365 356.89 494.342 356.967 494.322L357.439 496.509C357.289 496.561 357.075 496.617 356.797 496.679C356.524 496.741 356.189 496.777 355.792 496.787C355.091 496.808 354.46 496.702 353.898 496.47C353.337 496.233 352.891 495.867 352.561 495.373C352.237 494.878 352.077 494.26 352.082 493.518V481.908ZM359.562 496.625V484.752H362.276V486.731H362.399C362.616 486.046 362.987 485.517 363.512 485.146C364.043 484.77 364.649 484.582 365.329 484.582C365.483 484.582 365.656 484.59 365.847 484.605C366.043 484.616 366.205 484.634 366.334 484.659V487.233C366.215 487.192 366.027 487.156 365.769 487.125C365.517 487.089 365.272 487.071 365.035 487.071C364.525 487.071 364.066 487.182 363.659 487.403C363.257 487.62 362.94 487.921 362.708 488.308C362.477 488.694 362.361 489.14 362.361 489.645V496.625H359.562ZM371.397 496.865C370.644 496.865 369.967 496.731 369.364 496.463C368.766 496.19 368.292 495.788 367.941 495.257C367.596 494.726 367.424 494.072 367.424 493.293C367.424 492.624 367.547 492.07 367.795 491.632C368.042 491.194 368.38 490.843 368.807 490.58C369.235 490.318 369.717 490.119 370.253 489.985C370.794 489.846 371.353 489.746 371.93 489.684C372.626 489.612 373.19 489.547 373.623 489.49C374.056 489.429 374.37 489.336 374.566 489.212C374.767 489.083 374.867 488.885 374.867 488.617V488.571C374.867 487.988 374.695 487.537 374.349 487.218C374.004 486.898 373.507 486.739 372.858 486.739C372.172 486.739 371.629 486.888 371.227 487.187C370.83 487.486 370.562 487.839 370.423 488.246L367.81 487.875C368.016 487.153 368.356 486.551 368.83 486.066C369.305 485.577 369.884 485.211 370.57 484.969C371.255 484.721 372.012 484.597 372.842 484.597C373.414 484.597 373.984 484.664 374.55 484.798C375.117 484.932 375.635 485.154 376.104 485.463C376.573 485.767 376.949 486.182 377.233 486.708C377.521 487.233 377.666 487.89 377.666 488.679V496.625H374.976V494.994H374.883C374.713 495.324 374.473 495.633 374.164 495.922C373.86 496.205 373.476 496.434 373.012 496.61C372.554 496.78 372.015 496.865 371.397 496.865ZM372.123 494.809C372.685 494.809 373.172 494.698 373.584 494.476C373.996 494.249 374.313 493.951 374.535 493.579C374.762 493.208 374.875 492.804 374.875 492.366V490.967C374.787 491.039 374.638 491.106 374.427 491.168C374.221 491.23 373.989 491.284 373.731 491.33C373.473 491.376 373.218 491.418 372.966 491.454C372.713 491.49 372.494 491.521 372.309 491.547C371.891 491.603 371.518 491.696 371.188 491.825C370.858 491.954 370.598 492.134 370.407 492.366C370.217 492.593 370.121 492.886 370.121 493.247C370.121 493.762 370.309 494.151 370.686 494.414C371.062 494.677 371.541 494.809 372.123 494.809ZM391.892 484.752V486.916H384.874V484.752H391.892ZM386.628 496.625V483.631C386.628 482.833 386.793 482.168 387.123 481.637C387.458 481.106 387.906 480.709 388.468 480.447C389.03 480.184 389.653 480.052 390.338 480.052C390.823 480.052 391.253 480.091 391.629 480.168C392.005 480.246 392.284 480.315 392.464 480.377L391.908 482.541C391.789 482.505 391.64 482.469 391.459 482.433C391.279 482.392 391.078 482.371 390.856 482.371C390.336 482.371 389.967 482.498 389.751 482.75C389.54 482.997 389.434 483.353 389.434 483.817V496.625H386.628ZM398.893 496.857C397.703 496.857 396.675 496.61 395.809 496.115C394.949 495.615 394.286 494.909 393.823 493.997C393.359 493.08 393.127 492 393.127 490.758C393.127 489.537 393.359 488.465 393.823 487.543C394.292 486.615 394.946 485.894 395.786 485.378C396.626 484.858 397.613 484.597 398.747 484.597C399.478 484.597 400.169 484.716 400.818 484.953C401.473 485.185 402.05 485.546 402.55 486.035C403.055 486.525 403.451 487.148 403.74 487.906C404.029 488.658 404.173 489.555 404.173 490.596V491.454H394.441V489.568H401.491C401.485 489.032 401.369 488.555 401.143 488.138C400.916 487.715 400.599 487.383 400.192 487.141C399.79 486.898 399.321 486.777 398.785 486.777C398.213 486.777 397.711 486.916 397.278 487.195C396.845 487.468 396.507 487.829 396.265 488.277C396.028 488.72 395.907 489.207 395.902 489.738V491.384C395.902 492.075 396.028 492.667 396.281 493.162C396.533 493.652 396.886 494.028 397.34 494.291C397.793 494.548 398.324 494.677 398.932 494.677C399.339 494.677 399.708 494.62 400.037 494.507C400.367 494.389 400.653 494.216 400.895 493.989C401.138 493.762 401.321 493.482 401.444 493.147L404.057 493.44C403.892 494.131 403.578 494.734 403.114 495.249C402.655 495.759 402.068 496.156 401.351 496.439C400.635 496.718 399.816 496.857 398.893 496.857ZM411.796 496.857C410.606 496.857 409.578 496.61 408.712 496.115C407.852 495.615 407.189 494.909 406.726 493.997C406.262 493.08 406.03 492 406.03 490.758C406.03 489.537 406.262 488.465 406.726 487.543C407.194 486.615 407.849 485.894 408.689 485.378C409.529 484.858 410.516 484.597 411.649 484.597C412.381 484.597 413.072 484.716 413.721 484.953C414.375 485.185 414.953 485.546 415.452 486.035C415.957 486.525 416.354 487.148 416.643 487.906C416.931 488.658 417.076 489.555 417.076 490.596V491.454H407.344V489.568H414.393C414.388 489.032 414.272 488.555 414.046 488.138C413.819 487.715 413.502 487.383 413.095 487.141C412.693 486.898 412.224 486.777 411.688 486.777C411.116 486.777 410.614 486.916 410.181 487.195C409.748 487.468 409.41 487.829 409.168 488.277C408.931 488.72 408.81 489.207 408.805 489.738V491.384C408.805 492.075 408.931 492.667 409.184 493.162C409.436 493.652 409.789 494.028 410.243 494.291C410.696 494.548 411.227 494.677 411.835 494.677C412.242 494.677 412.61 494.62 412.94 494.507C413.27 494.389 413.556 494.216 413.798 493.989C414.04 493.762 414.223 493.482 414.347 493.147L416.96 493.44C416.795 494.131 416.48 494.734 416.017 495.249C415.558 495.759 414.971 496.156 414.254 496.439C413.538 496.718 412.719 496.857 411.796 496.857ZM428.827 487.89L426.276 488.169C426.204 487.911 426.078 487.669 425.897 487.442C425.722 487.215 425.485 487.032 425.186 486.893C424.887 486.754 424.521 486.685 424.089 486.685C423.506 486.685 423.017 486.811 422.62 487.063C422.228 487.316 422.035 487.643 422.04 488.045C422.035 488.39 422.161 488.671 422.419 488.888C422.682 489.104 423.115 489.282 423.717 489.421L425.743 489.854C426.866 490.096 427.701 490.48 428.247 491.005C428.799 491.531 429.077 492.219 429.082 493.069C429.077 493.817 428.858 494.476 428.425 495.048C427.997 495.615 427.402 496.058 426.639 496.378C425.877 496.697 425.001 496.857 424.011 496.857C422.558 496.857 421.388 496.553 420.502 495.945C419.616 495.332 419.087 494.479 418.917 493.386L421.646 493.123C421.77 493.659 422.032 494.064 422.434 494.337C422.836 494.61 423.359 494.747 424.003 494.747C424.668 494.747 425.202 494.61 425.604 494.337C426.011 494.064 426.214 493.726 426.214 493.324C426.214 492.984 426.083 492.703 425.82 492.482C425.562 492.26 425.16 492.09 424.614 491.972L422.589 491.547C421.45 491.31 420.608 490.91 420.061 490.348C419.515 489.782 419.245 489.065 419.25 488.2C419.245 487.468 419.443 486.834 419.845 486.298C420.252 485.757 420.816 485.34 421.538 485.046C422.264 484.747 423.102 484.597 424.05 484.597C425.441 484.597 426.536 484.894 427.335 485.486C428.139 486.079 428.636 486.88 428.827 487.89Z" fill="black"/>
<rect x="0.845161" y="73.8452" width="451.316" height="522.31" rx="21.6925" stroke="white" stroke-width="1.69032"/>
</g>
<defs>
<filter id="filter0_b_2_264" x="-65.3591" y="-64.4796" width="622.4" height="726.839" filterUnits="userSpaceOnUse" color-interpolation-filters="sRGB">
<feFlood flood-opacity="0" result="BackgroundImageFix"/>
<feGaussianBlur in="BackgroundImageFix" stdDeviation="32.6796"/>
<feComposite in2="SourceAlpha" operator="in" result="effect1_backgroundBlur_2_264"/>
<feBlend mode="normal" in="SourceGraphic" in2="effect1_backgroundBlur_2_264" result="shape"/>
</filter>
<linearGradient id="paint0_linear_2_264" x1="438.599" y1="73.4503" x2="13.2715" y2="608.01" gradientUnits="userSpaceOnUse">
<stop stop-color="#B7B7B7"/>
<stop offset="1" stop-color="#9D9D9D" stop-opacity="0"/>
</linearGradient>
</defs>
</svg>
