<svg width="492" height="597" viewBox="0 0 492 597" fill="none" xmlns="http://www.w3.org/2000/svg">
<g filter="url(#filter0_b_2_249)">
<rect y="73" width="453.006" height="524" rx="22.5376" fill="url(#paint0_linear_2_249)" fill-opacity="0.65"/>
<path d="M86.2197 198.546V185.882H81.3396V183.875H93.2292V185.882H88.3491V198.546H86.2197ZM98.108 198.852C97.0145 198.852 96.0534 198.614 95.2248 198.139C94.4029 197.656 93.7611 196.987 93.2992 196.132C92.8442 195.269 92.6166 194.271 92.6166 193.136C92.6166 191.934 92.8408 190.892 93.289 190.009C93.7441 189.126 94.3758 188.443 95.184 187.961C95.9923 187.479 96.933 187.237 98.0062 187.237C99.1268 187.237 100.081 187.499 100.869 188.022C101.657 188.538 102.244 189.275 102.632 190.233C103.026 191.19 103.182 192.328 103.1 193.646H100.971V192.871C100.957 191.595 100.713 190.65 100.237 190.039C99.7687 189.428 99.0521 189.122 98.0877 189.122C97.0213 189.122 96.2198 189.458 95.6833 190.131C95.1467 190.803 94.8784 191.775 94.8784 193.045C94.8784 194.254 95.1467 195.191 95.6833 195.857C96.2198 196.515 96.9941 196.845 98.0062 196.845C98.6718 196.845 99.2457 196.695 99.7279 196.397C100.217 196.091 100.597 195.656 100.869 195.092L102.958 195.755C102.53 196.74 101.881 197.504 101.012 198.047C100.142 198.584 99.1744 198.852 98.108 198.852ZM94.1856 193.646V191.985H102.041V193.646H94.1856ZM105.376 198.546L105.386 183.875H107.546V192.841L111.866 187.543H114.576L110.011 193.045L115.044 198.546H112.151L107.546 193.248V198.546H105.376ZM119.179 198.852C118.364 198.852 117.681 198.702 117.131 198.404C116.581 198.098 116.163 197.697 115.878 197.201C115.6 196.699 115.46 196.149 115.46 195.551C115.46 194.994 115.559 194.505 115.756 194.084C115.953 193.663 116.245 193.306 116.632 193.014C117.019 192.715 117.495 192.474 118.058 192.291C118.547 192.148 119.101 192.022 119.719 191.914C120.337 191.805 120.986 191.703 121.665 191.608C122.351 191.513 123.03 191.418 123.703 191.323L122.928 191.751C122.942 190.888 122.758 190.25 122.378 189.835C122.005 189.414 121.359 189.204 120.442 189.204C119.865 189.204 119.335 189.34 118.853 189.611C118.371 189.876 118.035 190.318 117.844 190.936L115.858 190.324C116.129 189.38 116.646 188.63 117.406 188.073C118.174 187.516 119.193 187.237 120.463 187.237C121.448 187.237 122.303 187.407 123.03 187.747C123.764 188.08 124.3 188.609 124.64 189.336C124.816 189.696 124.925 190.076 124.966 190.477C125.007 190.878 125.027 191.309 125.027 191.771V198.546H123.142V196.03L123.509 196.356C123.054 197.198 122.473 197.826 121.767 198.241C121.067 198.648 120.205 198.852 119.179 198.852ZM119.556 197.11C120.16 197.11 120.68 197.004 121.115 196.794C121.549 196.577 121.899 196.301 122.164 195.969C122.429 195.636 122.602 195.289 122.684 194.929C122.799 194.603 122.864 194.237 122.877 193.829C122.898 193.422 122.908 193.096 122.908 192.851L123.601 193.106C122.928 193.208 122.317 193.299 121.767 193.381C121.217 193.462 120.717 193.544 120.269 193.625C119.828 193.7 119.434 193.792 119.087 193.9C118.795 194.002 118.534 194.125 118.303 194.267C118.079 194.41 117.899 194.583 117.763 194.787C117.634 194.991 117.569 195.238 117.569 195.531C117.569 195.816 117.641 196.081 117.783 196.325C117.926 196.563 118.143 196.753 118.435 196.896C118.727 197.038 119.101 197.11 119.556 197.11ZM127.876 198.546V183.57H130.006V198.546H127.876ZM137.945 198.852C136.852 198.852 135.891 198.614 135.062 198.139C134.24 197.656 133.598 196.987 133.136 196.132C132.681 195.269 132.454 194.271 132.454 193.136C132.454 191.934 132.678 190.892 133.126 190.009C133.581 189.126 134.213 188.443 135.021 187.961C135.83 187.479 136.77 187.237 137.843 187.237C138.964 187.237 139.918 187.499 140.706 188.022C141.494 188.538 142.082 189.275 142.469 190.233C142.863 191.19 143.019 192.328 142.937 193.646H140.808V192.871C140.795 191.595 140.55 190.65 140.075 190.039C139.606 189.428 138.889 189.122 137.925 189.122C136.859 189.122 136.057 189.458 135.52 190.131C134.984 190.803 134.716 191.775 134.716 193.045C134.716 194.254 134.984 195.191 135.52 195.857C136.057 196.515 136.831 196.845 137.843 196.845C138.509 196.845 139.083 196.695 139.565 196.397C140.054 196.091 140.435 195.656 140.706 195.092L142.795 195.755C142.367 196.74 141.718 197.504 140.849 198.047C139.979 198.584 139.012 198.852 137.945 198.852ZM134.023 193.646V191.985H141.878V193.646H134.023ZM152.647 198.546V193.136C152.647 192.708 152.61 192.27 152.535 191.822C152.467 191.367 152.332 190.946 152.128 190.559C151.931 190.172 151.649 189.859 151.282 189.621C150.922 189.384 150.45 189.265 149.866 189.265C149.486 189.265 149.126 189.329 148.786 189.458C148.446 189.581 148.148 189.781 147.89 190.06C147.638 190.338 147.438 190.705 147.288 191.16C147.146 191.615 147.074 192.168 147.074 192.82L145.75 192.321C145.75 191.323 145.937 190.443 146.31 189.683C146.684 188.915 147.22 188.317 147.92 187.889C148.62 187.462 149.465 187.248 150.457 187.248C151.218 187.248 151.856 187.37 152.372 187.614C152.888 187.859 153.306 188.181 153.625 188.582C153.951 188.976 154.199 189.407 154.369 189.876C154.539 190.345 154.654 190.803 154.716 191.252C154.777 191.7 154.807 192.094 154.807 192.433V198.546H152.647ZM144.915 198.546V187.543H146.82V190.722H147.074V198.546H144.915ZM163.757 198.546C163.064 198.682 162.385 198.74 161.72 198.719C161.054 198.699 160.46 198.57 159.937 198.332C159.414 198.095 159.02 197.721 158.755 197.212C158.517 196.757 158.388 196.295 158.368 195.826C158.354 195.351 158.347 194.814 158.347 194.216V184.487H160.487V194.114C160.487 194.556 160.49 194.94 160.497 195.266C160.511 195.592 160.582 195.867 160.711 196.091C160.955 196.512 161.343 196.753 161.872 196.814C162.409 196.869 163.037 196.845 163.757 196.743V198.546ZM156.238 189.255V187.543H163.757V189.255H156.238ZM175.036 198.852C173.943 198.852 172.982 198.614 172.153 198.139C171.331 197.656 170.69 196.987 170.228 196.132C169.773 195.269 169.545 194.271 169.545 193.136C169.545 191.934 169.769 190.892 170.217 190.009C170.673 189.126 171.304 188.443 172.112 187.961C172.921 187.479 173.861 187.237 174.935 187.237C176.055 187.237 177.01 187.499 177.797 188.022C178.585 188.538 179.173 189.275 179.56 190.233C179.954 191.19 180.11 192.328 180.029 193.646H177.899V192.871C177.886 191.595 177.641 190.65 177.166 190.039C176.697 189.428 175.981 189.122 175.016 189.122C173.95 189.122 173.148 189.458 172.612 190.131C172.075 190.803 171.807 191.775 171.807 193.045C171.807 194.254 172.075 195.191 172.612 195.857C173.148 196.515 173.923 196.845 174.935 196.845C175.6 196.845 176.174 196.695 176.656 196.397C177.145 196.091 177.526 195.656 177.797 195.092L179.886 195.755C179.458 196.74 178.809 197.504 177.94 198.047C177.071 198.584 176.103 198.852 175.036 198.852ZM171.114 193.646V191.985H178.969V193.646H171.114ZM189.739 198.546V193.136C189.739 192.708 189.701 192.27 189.627 191.822C189.559 191.367 189.423 190.946 189.219 190.559C189.022 190.172 188.74 189.859 188.373 189.621C188.013 189.384 187.541 189.265 186.957 189.265C186.577 189.265 186.217 189.329 185.877 189.458C185.538 189.581 185.239 189.781 184.981 190.06C184.729 190.338 184.529 190.705 184.38 191.16C184.237 191.615 184.166 192.168 184.166 192.82L182.841 192.321C182.841 191.323 183.028 190.443 183.402 189.683C183.775 188.915 184.312 188.317 185.011 187.889C185.711 187.462 186.556 187.248 187.548 187.248C188.309 187.248 188.947 187.37 189.463 187.614C189.98 187.859 190.397 188.181 190.717 188.582C191.043 188.976 191.291 189.407 191.46 189.876C191.63 190.345 191.746 190.803 191.807 191.252C191.868 191.7 191.898 192.094 191.898 192.433V198.546H189.739ZM182.006 198.546V187.543H183.911V190.722H184.166V198.546H182.006ZM199.086 203.742C198.495 203.742 197.921 203.65 197.364 203.467C196.814 203.284 196.311 203.012 195.856 202.652C195.401 202.299 195.024 201.861 194.725 201.338L196.692 200.339C196.929 200.808 197.269 201.151 197.71 201.368C198.152 201.586 198.617 201.694 199.106 201.694C199.711 201.694 200.227 201.586 200.655 201.368C201.083 201.158 201.405 200.839 201.623 200.411C201.847 199.983 201.956 199.453 201.949 198.821V195.744H202.203V187.543H204.088V198.842C204.088 199.134 204.078 199.412 204.058 199.677C204.037 199.942 204 200.207 203.946 200.472C203.789 201.212 203.491 201.823 203.049 202.306C202.614 202.788 202.057 203.148 201.378 203.386C200.706 203.623 199.942 203.742 199.086 203.742ZM198.923 198.852C197.897 198.852 197.011 198.597 196.264 198.088C195.523 197.578 194.949 196.886 194.542 196.009C194.141 195.126 193.941 194.135 193.941 193.034C193.941 191.927 194.145 190.939 194.552 190.07C194.96 189.194 195.537 188.504 196.284 188.002C197.038 187.492 197.931 187.237 198.964 187.237C200.003 187.237 200.876 187.492 201.582 188.002C202.295 188.504 202.832 189.194 203.192 190.07C203.558 190.946 203.742 191.934 203.742 193.034C203.742 194.135 203.558 195.123 203.192 195.999C202.825 196.875 202.285 197.572 201.572 198.088C200.859 198.597 199.976 198.852 198.923 198.852ZM199.218 196.926C199.918 196.926 200.488 196.76 200.93 196.427C201.371 196.094 201.694 195.636 201.898 195.052C202.102 194.468 202.203 193.795 202.203 193.034C202.203 192.274 202.098 191.601 201.888 191.017C201.684 190.433 201.365 189.978 200.93 189.652C200.502 189.326 199.955 189.163 199.29 189.163C198.583 189.163 198.003 189.336 197.547 189.683C197.092 190.029 196.753 190.494 196.529 191.078C196.311 191.662 196.203 192.314 196.203 193.034C196.203 193.761 196.311 194.42 196.529 195.011C196.753 195.595 197.086 196.06 197.527 196.407C197.975 196.753 198.539 196.926 199.218 196.926ZM207.153 185.74V183.672H209.282V185.74H207.153ZM207.153 198.546V187.543H209.282V198.546H207.153ZM220.064 198.546V193.136C220.064 192.708 220.027 192.27 219.952 191.822C219.884 191.367 219.748 190.946 219.545 190.559C219.348 190.172 219.066 189.859 218.699 189.621C218.339 189.384 217.867 189.265 217.283 189.265C216.902 189.265 216.543 189.329 216.203 189.458C215.863 189.581 215.564 189.781 215.306 190.06C215.055 190.338 214.855 190.705 214.705 191.16C214.563 191.615 214.491 192.168 214.491 192.82L213.167 192.321C213.167 191.323 213.354 190.443 213.727 189.683C214.101 188.915 214.637 188.317 215.337 187.889C216.036 187.462 216.882 187.248 217.874 187.248C218.634 187.248 219.273 187.37 219.789 187.614C220.305 187.859 220.723 188.181 221.042 188.582C221.368 188.976 221.616 189.407 221.786 189.876C221.956 190.345 222.071 190.803 222.132 191.252C222.194 191.7 222.224 192.094 222.224 192.433V198.546H220.064ZM212.331 198.546V187.543H214.237V190.722H214.491V198.546H212.331ZM229.619 198.852C228.525 198.852 227.564 198.614 226.735 198.139C225.914 197.656 225.272 196.987 224.81 196.132C224.355 195.269 224.127 194.271 224.127 193.136C224.127 191.934 224.351 190.892 224.8 190.009C225.255 189.126 225.886 188.443 226.695 187.961C227.503 187.479 228.444 187.237 229.517 187.237C230.637 187.237 231.592 187.499 232.38 188.022C233.167 188.538 233.755 189.275 234.142 190.233C234.536 191.19 234.692 192.328 234.611 193.646H232.481V192.871C232.468 191.595 232.223 190.65 231.748 190.039C231.279 189.428 230.563 189.122 229.598 189.122C228.532 189.122 227.73 189.458 227.194 190.131C226.657 190.803 226.389 191.775 226.389 193.045C226.389 194.254 226.657 195.191 227.194 195.857C227.73 196.515 228.505 196.845 229.517 196.845C230.182 196.845 230.756 196.695 231.239 196.397C231.728 196.091 232.108 195.656 232.38 195.092L234.468 195.755C234.04 196.74 233.392 197.504 232.522 198.047C231.653 198.584 230.685 198.852 229.619 198.852ZM225.696 193.646V191.985H233.551V193.646H225.696ZM241.777 198.852C240.683 198.852 239.722 198.614 238.893 198.139C238.072 197.656 237.43 196.987 236.968 196.132C236.513 195.269 236.285 194.271 236.285 193.136C236.285 191.934 236.509 190.892 236.958 190.009C237.413 189.126 238.044 188.443 238.853 187.961C239.661 187.479 240.602 187.237 241.675 187.237C242.796 187.237 243.75 187.499 244.538 188.022C245.326 188.538 245.913 189.275 246.3 190.233C246.694 191.19 246.85 192.328 246.769 193.646H244.64V192.871C244.626 191.595 244.381 190.65 243.906 190.039C243.437 189.428 242.721 189.122 241.756 189.122C240.69 189.122 239.889 189.458 239.352 190.131C238.815 190.803 238.547 191.775 238.547 193.045C238.547 194.254 238.815 195.191 239.352 195.857C239.889 196.515 240.663 196.845 241.675 196.845C242.34 196.845 242.914 196.695 243.397 196.397C243.886 196.091 244.266 195.656 244.538 195.092L246.626 195.755C246.198 196.74 245.55 197.504 244.68 198.047C243.811 198.584 242.843 198.852 241.777 198.852ZM237.854 193.646V191.985H245.709V193.646H237.854ZM249.055 198.546V187.543H250.95V190.212L250.685 189.866C250.821 189.513 250.997 189.19 251.215 188.898C251.432 188.599 251.683 188.355 251.969 188.165C252.247 187.961 252.556 187.805 252.896 187.696C253.242 187.58 253.595 187.512 253.955 187.492C254.315 187.465 254.662 187.482 254.994 187.543V189.54C254.634 189.445 254.234 189.418 253.792 189.458C253.358 189.499 252.957 189.638 252.59 189.876C252.244 190.1 251.969 190.372 251.765 190.691C251.568 191.01 251.425 191.367 251.337 191.761C251.249 192.148 251.204 192.559 251.204 192.994V198.546H249.055ZM265.894 198.852C264.8 198.852 263.839 198.614 263.011 198.139C262.189 197.656 261.547 196.987 261.085 196.132C260.63 195.269 260.403 194.271 260.403 193.136C260.403 191.934 260.627 190.892 261.075 190.009C261.53 189.126 262.162 188.443 262.97 187.961C263.778 187.479 264.719 187.237 265.792 187.237C266.913 187.237 267.867 187.499 268.655 188.022C269.443 188.538 270.03 189.275 270.417 190.233C270.811 191.19 270.968 192.328 270.886 193.646H268.757V192.871C268.743 191.595 268.499 190.65 268.023 190.039C267.555 189.428 266.838 189.122 265.874 189.122C264.807 189.122 264.006 189.458 263.469 190.131C262.933 190.803 262.664 191.775 262.664 193.045C262.664 194.254 262.933 195.191 263.469 195.857C264.006 196.515 264.78 196.845 265.792 196.845C266.458 196.845 267.032 196.695 267.514 196.397C268.003 196.091 268.383 195.656 268.655 195.092L270.744 195.755C270.316 196.74 269.667 197.504 268.798 198.047C267.928 198.584 266.96 198.852 265.894 198.852ZM261.972 193.646V191.985H269.827V193.646H261.972ZM271.551 198.546L275.667 192.984L271.643 187.543H274.17L276.91 191.323L279.62 187.543H282.147L278.123 192.984L282.249 198.546H279.712L276.91 194.644L274.088 198.546H271.551ZM286.587 198.852C285.772 198.852 285.089 198.702 284.539 198.404C283.989 198.098 283.571 197.697 283.286 197.201C283.007 196.699 282.868 196.149 282.868 195.551C282.868 194.994 282.967 194.505 283.164 194.084C283.361 193.663 283.653 193.306 284.04 193.014C284.427 192.715 284.902 192.474 285.466 192.291C285.955 192.148 286.509 192.022 287.127 191.914C287.745 191.805 288.394 191.703 289.073 191.608C289.759 191.513 290.438 191.418 291.11 191.323L290.336 191.751C290.35 190.888 290.166 190.25 289.786 189.835C289.412 189.414 288.767 189.204 287.85 189.204C287.273 189.204 286.743 189.34 286.261 189.611C285.779 189.876 285.442 190.318 285.252 190.936L283.266 190.324C283.537 189.38 284.053 188.63 284.814 188.073C285.582 187.516 286.6 187.237 287.871 187.237C288.855 187.237 289.711 187.407 290.438 187.747C291.172 188.08 291.708 188.609 292.048 189.336C292.224 189.696 292.333 190.076 292.374 190.477C292.414 190.878 292.435 191.309 292.435 191.771V198.546H290.55V196.03L290.917 196.356C290.462 197.198 289.881 197.826 289.175 198.241C288.475 198.648 287.612 198.852 286.587 198.852ZM286.964 197.11C287.568 197.11 288.088 197.004 288.523 196.794C288.957 196.577 289.307 196.301 289.572 195.969C289.837 195.636 290.01 195.289 290.092 194.929C290.207 194.603 290.272 194.237 290.285 193.829C290.306 193.422 290.316 193.096 290.316 192.851L291.009 193.106C290.336 193.208 289.725 193.299 289.175 193.381C288.624 193.462 288.125 193.544 287.677 193.625C287.236 193.7 286.842 193.792 286.495 193.9C286.203 194.002 285.942 194.125 285.711 194.267C285.487 194.41 285.307 194.583 285.171 194.787C285.042 194.991 284.977 195.238 284.977 195.531C284.977 195.816 285.048 196.081 285.191 196.325C285.334 196.563 285.551 196.753 285.843 196.896C286.135 197.038 286.509 197.11 286.964 197.11ZM308.264 198.546L308.274 191.69C308.274 190.895 308.07 190.277 307.663 189.835C307.255 189.387 306.719 189.163 306.053 189.163C305.646 189.163 305.272 189.258 304.932 189.448C304.6 189.632 304.328 189.91 304.117 190.284C303.914 190.65 303.812 191.112 303.812 191.669L302.783 191.15C302.769 190.375 302.932 189.696 303.272 189.112C303.618 188.528 304.087 188.076 304.678 187.757C305.269 187.431 305.931 187.268 306.664 187.268C307.853 187.268 308.773 187.625 309.425 188.338C310.077 189.051 310.403 189.998 310.403 191.18L310.393 198.546H308.264ZM295.07 198.546V187.543H296.965V190.722H297.21V198.546H295.07ZM301.672 198.546L301.682 191.73C301.682 190.929 301.479 190.301 301.071 189.846C300.67 189.39 300.13 189.163 299.451 189.163C298.779 189.163 298.235 189.394 297.821 189.856C297.414 190.318 297.21 190.922 297.21 191.669L296.191 191.017C296.191 190.297 296.364 189.655 296.711 189.092C297.057 188.528 297.526 188.083 298.117 187.757C298.707 187.431 299.376 187.268 300.124 187.268C300.905 187.268 301.57 187.434 302.12 187.767C302.671 188.093 303.088 188.552 303.374 189.143C303.666 189.733 303.812 190.419 303.812 191.201L303.801 198.546H301.672ZM318.214 198.852C317.162 198.852 316.279 198.597 315.565 198.088C314.852 197.572 314.312 196.875 313.946 195.999C313.579 195.123 313.395 194.135 313.395 193.034C313.395 191.934 313.575 190.946 313.935 190.07C314.302 189.194 314.839 188.504 315.545 188.002C316.258 187.492 317.134 187.237 318.174 187.237C319.206 187.237 320.096 187.492 320.843 188.002C321.597 188.504 322.178 189.194 322.585 190.07C322.993 190.939 323.196 191.927 323.196 193.034C323.196 194.135 322.993 195.126 322.585 196.009C322.184 196.886 321.61 197.578 320.863 198.088C320.123 198.597 319.24 198.852 318.214 198.852ZM313.039 203.437V187.543H314.934V195.459H315.178V203.437H313.039ZM317.919 196.926C318.598 196.926 319.158 196.753 319.6 196.407C320.048 196.06 320.381 195.595 320.598 195.011C320.823 194.42 320.935 193.761 320.935 193.034C320.935 192.314 320.823 191.662 320.598 191.078C320.381 190.494 320.045 190.029 319.59 189.683C319.135 189.336 318.554 189.163 317.848 189.163C317.182 189.163 316.632 189.326 316.197 189.652C315.769 189.978 315.45 190.433 315.239 191.017C315.036 191.601 314.934 192.274 314.934 193.034C314.934 193.795 315.036 194.468 315.239 195.052C315.443 195.636 315.766 196.094 316.207 196.427C316.649 196.76 317.219 196.926 317.919 196.926ZM325.65 198.546V183.57H327.779V198.546H325.65ZM335.719 198.852C334.625 198.852 333.664 198.614 332.835 198.139C332.013 197.656 331.372 196.987 330.91 196.132C330.455 195.269 330.227 194.271 330.227 193.136C330.227 191.934 330.451 190.892 330.9 190.009C331.355 189.126 331.986 188.443 332.795 187.961C333.603 187.479 334.544 187.237 335.617 187.237C336.737 187.237 337.692 187.499 338.48 188.022C339.267 188.538 339.855 189.275 340.242 190.233C340.636 191.19 340.792 192.328 340.711 193.646H338.581V192.871C338.568 191.595 338.323 190.65 337.848 190.039C337.379 189.428 336.663 189.122 335.698 189.122C334.632 189.122 333.83 189.458 333.294 190.131C332.757 190.803 332.489 191.775 332.489 193.045C332.489 194.254 332.757 195.191 333.294 195.857C333.83 196.515 334.605 196.845 335.617 196.845C336.282 196.845 336.856 196.695 337.338 196.397C337.827 196.091 338.208 195.656 338.48 195.092L340.568 195.755C340.14 196.74 339.492 197.504 338.622 198.047C337.753 198.584 336.785 198.852 335.719 198.852ZM331.796 193.646V191.985H339.651V193.646H331.796Z" fill="black"/>
<path d="M85.0714 294.764V286.137H90.672V273.119H85.3741V265.399H90.672V257.377C90.672 252.129 92.2109 248.043 95.2886 245.116C98.4169 242.19 102.63 240.727 107.928 240.727C113.226 240.727 117.413 242.19 120.491 245.116C123.619 248.043 125.184 252.129 125.184 257.377V262.069H115.647V257.074C115.647 254.652 114.941 252.76 113.528 251.398C112.166 250.036 110.299 249.354 107.928 249.354C105.607 249.354 103.74 250.036 102.327 251.398C100.914 252.76 100.208 254.652 100.208 257.074V265.399H107.776V273.119H100.208V286.137H125.486V294.764H85.0714ZM150.223 295.824C146.237 295.824 142.705 295.118 139.628 293.705C136.55 292.292 134.128 290.274 132.362 287.65C130.647 284.976 129.789 281.823 129.789 278.19V276.827H139.476V277.887C139.476 280.713 140.46 282.983 142.428 284.699C144.396 286.364 146.994 287.196 150.223 287.196C153.503 287.196 156.026 286.414 157.792 284.85C159.608 283.286 160.516 281.318 160.516 278.947V278.19C160.516 276.575 160.113 275.263 159.305 274.254C158.498 273.245 157.413 272.514 156.051 272.059C154.689 271.555 153.15 271.303 151.434 271.303H140.839V260.707L157.943 251.625V250.414H131.151V241.786H168.69V254.652L152.721 263.129V264.34H155.521C157.893 264.34 160.188 264.819 162.408 265.778C164.679 266.736 166.546 268.225 168.009 270.243C169.472 272.211 170.204 274.784 170.204 277.963V278.871C170.204 282.302 169.371 285.304 167.706 287.877C166.041 290.4 163.695 292.368 160.668 293.781C157.691 295.143 154.209 295.824 150.223 295.824ZM195.599 295.824C189.343 295.824 184.323 294.108 180.538 290.678C176.754 287.196 174.862 281.949 174.862 274.935V261.615C174.862 254.804 176.754 249.632 180.538 246.1C184.323 242.518 189.343 240.727 195.599 240.727C201.906 240.727 206.927 242.518 210.66 246.1C214.445 249.632 216.337 254.804 216.337 261.615V274.935C216.337 281.949 214.445 287.196 210.66 290.678C206.927 294.108 201.906 295.824 195.599 295.824ZM195.599 287.196C199.384 287.196 202.159 286.162 203.925 284.093C205.741 282.024 206.649 279.073 206.649 275.238V261.161C206.649 257.276 205.64 254.35 203.622 252.382C201.654 250.364 198.98 249.354 195.599 249.354C192.118 249.354 189.393 250.389 187.426 252.457C185.508 254.526 184.55 257.427 184.55 261.161V275.238C184.55 279.224 185.458 282.226 187.274 284.244C189.141 286.212 191.916 287.196 195.599 287.196ZM242.492 295.824C236.236 295.824 231.215 294.108 227.431 290.678C223.647 287.196 221.755 281.949 221.755 274.935V261.615C221.755 254.804 223.647 249.632 227.431 246.1C231.215 242.518 236.236 240.727 242.492 240.727C248.799 240.727 253.819 242.518 257.553 246.1C261.337 249.632 263.229 254.804 263.229 261.615V274.935C263.229 281.949 261.337 287.196 257.553 290.678C253.819 294.108 248.799 295.824 242.492 295.824ZM242.492 287.196C246.276 287.196 249.051 286.162 250.817 284.093C252.634 282.024 253.542 279.073 253.542 275.238V261.161C253.542 257.276 252.533 254.35 250.515 252.382C248.547 250.364 245.873 249.354 242.492 249.354C239.011 249.354 236.286 250.389 234.318 252.457C232.401 254.526 231.442 257.427 231.442 261.161V275.238C231.442 279.224 232.351 282.226 234.167 284.244C236.034 286.212 238.809 287.196 242.492 287.196ZM289.385 295.824C283.128 295.824 278.108 294.108 274.324 290.678C270.54 287.196 268.648 281.949 268.648 274.935V261.615C268.648 254.804 270.54 249.632 274.324 246.1C278.108 242.518 283.128 240.727 289.385 240.727C295.692 240.727 300.712 242.518 304.446 246.1C308.23 249.632 310.122 254.804 310.122 261.615V274.935C310.122 281.949 308.23 287.196 304.446 290.678C300.712 294.108 295.692 295.824 289.385 295.824ZM289.385 287.196C293.169 287.196 295.944 286.162 297.71 284.093C299.526 282.024 300.435 279.073 300.435 275.238V261.161C300.435 257.276 299.426 254.35 297.407 252.382C295.44 250.364 292.765 249.354 289.385 249.354C285.903 249.354 283.179 250.389 281.211 252.457C279.294 254.526 278.335 257.427 278.335 261.161V275.238C278.335 279.224 279.243 282.226 281.06 284.244C282.927 286.212 285.702 287.196 289.385 287.196Z" fill="black"/>
<path d="M330.361 282.003L325.585 299.745H323.291L328.067 282.003H330.361ZM332.032 297.517V286.402H334.536V288.291H334.666C334.898 287.654 335.281 287.157 335.817 286.8C336.352 286.438 336.991 286.258 337.734 286.258C338.487 286.258 339.121 286.441 339.637 286.807C340.158 287.169 340.525 287.664 340.737 288.291H340.853C341.099 287.673 341.514 287.181 342.098 286.815C342.686 286.443 343.383 286.258 344.189 286.258C345.211 286.258 346.046 286.581 346.692 287.227C347.339 287.874 347.662 288.817 347.662 290.056V297.517H345.035V290.462C345.035 289.772 344.852 289.268 344.485 288.949C344.119 288.626 343.67 288.464 343.139 288.464C342.508 288.464 342.013 288.662 341.656 289.058C341.304 289.449 341.128 289.958 341.128 290.585V297.517H338.559V290.353C338.559 289.779 338.386 289.321 338.038 288.978C337.696 288.636 337.247 288.464 336.692 288.464C336.316 288.464 335.974 288.561 335.665 288.754C335.356 288.942 335.11 289.21 334.927 289.557C334.743 289.9 334.652 290.3 334.652 290.758V297.517H332.032ZM355.167 297.734C354.082 297.734 353.141 297.495 352.345 297.017C351.549 296.54 350.932 295.872 350.493 295.013C350.059 294.154 349.842 293.151 349.842 292.003C349.842 290.855 350.059 289.849 350.493 288.985C350.932 288.122 351.549 287.451 352.345 286.974C353.141 286.496 354.082 286.258 355.167 286.258C356.253 286.258 357.193 286.496 357.989 286.974C358.785 287.451 359.4 288.122 359.835 288.985C360.273 289.849 360.493 290.855 360.493 292.003C360.493 293.151 360.273 294.154 359.835 295.013C359.4 295.872 358.785 296.54 357.989 297.017C357.193 297.495 356.253 297.734 355.167 297.734ZM355.182 295.635C355.77 295.635 356.262 295.474 356.658 295.15C357.054 294.822 357.348 294.383 357.541 293.834C357.739 293.284 357.837 292.671 357.837 291.996C357.837 291.315 357.739 290.7 357.541 290.15C357.348 289.596 357.054 289.154 356.658 288.826C356.262 288.498 355.77 288.334 355.182 288.334C354.579 288.334 354.077 288.498 353.677 288.826C353.281 289.154 352.985 289.596 352.787 290.15C352.594 290.7 352.497 291.315 352.497 291.996C352.497 292.671 352.594 293.284 352.787 293.834C352.985 294.383 353.281 294.822 353.677 295.15C354.077 295.474 354.579 295.635 355.182 295.635ZM365.336 291.004V297.517H362.716V286.402H365.22V288.291H365.35C365.606 287.669 366.013 287.174 366.573 286.807C367.137 286.441 367.834 286.258 368.664 286.258C369.431 286.258 370.099 286.422 370.668 286.75C371.243 287.078 371.686 287.553 372 288.175C372.318 288.797 372.475 289.552 372.47 290.44V297.517H369.851V290.845C369.851 290.102 369.658 289.521 369.272 289.101C368.891 288.682 368.363 288.472 367.687 288.472C367.229 288.472 366.821 288.573 366.464 288.776C366.112 288.973 365.835 289.26 365.632 289.637C365.434 290.013 365.336 290.469 365.336 291.004ZM380.683 286.402V288.428H374.294V286.402H380.683ZM375.871 283.739H378.49V294.174C378.49 294.526 378.544 294.796 378.65 294.984C378.761 295.167 378.905 295.293 379.084 295.36C379.262 295.428 379.46 295.462 379.677 295.462C379.841 295.462 379.991 295.45 380.126 295.425C380.266 295.401 380.372 295.38 380.444 295.36L380.886 297.408C380.746 297.456 380.545 297.509 380.285 297.567C380.029 297.625 379.716 297.659 379.344 297.669C378.688 297.688 378.097 297.589 377.572 297.372C377.046 297.15 376.628 296.807 376.32 296.344C376.016 295.881 375.866 295.302 375.871 294.608V283.739ZM385.732 291.004V297.517H383.112V282.697H385.674V288.291H385.804C386.065 287.664 386.467 287.169 387.013 286.807C387.562 286.441 388.262 286.258 389.111 286.258C389.883 286.258 390.556 286.419 391.13 286.742C391.704 287.066 392.148 287.538 392.461 288.161C392.78 288.783 392.939 289.543 392.939 290.44V297.517H390.319V290.845C390.319 290.097 390.126 289.516 389.74 289.101C389.359 288.682 388.824 288.472 388.134 288.472C387.671 288.472 387.256 288.573 386.89 288.776C386.528 288.973 386.243 289.26 386.036 289.637C385.833 290.013 385.732 290.469 385.732 291.004Z" fill="black"/>
<path d="M98.6018 366.574C90.7642 366.574 84.4111 372.927 84.4111 380.764C84.4111 388.602 90.7642 394.955 98.6018 394.955C106.439 394.955 112.792 388.602 112.792 380.764C112.778 372.934 106.432 366.588 98.6018 366.574ZM105.356 378.281L97.3603 385.922C97.1536 386.116 96.88 386.224 96.5961 386.222C96.3152 386.227 96.046 386.119 95.8451 385.922L91.847 382.102C91.5457 381.838 91.4118 381.431 91.5006 381.039C91.5879 380.648 91.8834 380.336 92.2691 380.229C92.6548 380.12 93.0696 380.232 93.349 380.518L96.5961 383.616L103.854 376.698C104.295 376.314 104.962 376.346 105.365 376.769C105.767 377.194 105.764 377.861 105.356 378.281Z" fill="black"/>
<path d="M133.807 388.482H130.942L136.159 373.663H139.473L144.697 388.482H141.832L137.874 376.702H137.758L133.807 388.482ZM133.901 382.672H141.716V384.828H133.901V382.672ZM149.153 373.663V388.482H146.533V373.663H149.153ZM154.466 373.663V388.482H151.846V373.663H154.466ZM163.896 381.232V383.388H157.224V381.232H163.896ZM166.651 388.482V377.368H169.27V388.482H166.651ZM167.968 375.791C167.553 375.791 167.196 375.653 166.897 375.378C166.598 375.098 166.448 374.763 166.448 374.372C166.448 373.977 166.598 373.642 166.897 373.367C167.196 373.087 167.553 372.947 167.968 372.947C168.387 372.947 168.744 373.087 169.039 373.367C169.338 373.642 169.487 373.977 169.487 374.372C169.487 374.763 169.338 375.098 169.039 375.378C168.744 375.653 168.387 375.791 167.968 375.791ZM174.583 381.97V388.482H171.964V377.368H174.467V379.257H174.598C174.853 378.634 175.261 378.14 175.82 377.773C176.385 377.407 177.082 377.223 177.912 377.223C178.679 377.223 179.347 377.387 179.916 377.715C180.49 378.043 180.934 378.519 181.247 379.141C181.566 379.763 181.723 380.518 181.718 381.406V388.482H179.098V381.811C179.098 381.068 178.905 380.487 178.519 380.067C178.138 379.647 177.61 379.438 176.935 379.438C176.477 379.438 176.069 379.539 175.712 379.741C175.36 379.939 175.082 380.226 174.88 380.603C174.682 380.979 174.583 381.435 174.583 381.97ZM189.229 388.699C188.119 388.699 187.166 388.456 186.37 387.969C185.579 387.481 184.969 386.809 184.54 385.95C184.115 385.086 183.903 384.093 183.903 382.969C183.903 381.84 184.12 380.844 184.554 379.98C184.988 379.112 185.601 378.437 186.392 377.954C187.188 377.467 188.129 377.223 189.214 377.223C190.116 377.223 190.915 377.39 191.609 377.723C192.309 378.051 192.866 378.516 193.281 379.119C193.696 379.717 193.932 380.417 193.99 381.218H191.486C191.385 380.682 191.144 380.236 190.763 379.879C190.386 379.517 189.882 379.336 189.25 379.336C188.715 379.336 188.245 379.481 187.839 379.77C187.434 380.055 187.118 380.465 186.891 381.001C186.67 381.536 186.559 382.178 186.559 382.925C186.559 383.683 186.67 384.334 186.891 384.879C187.113 385.419 187.424 385.836 187.825 386.131C188.23 386.42 188.705 386.565 189.25 386.565C189.636 386.565 189.981 386.493 190.285 386.348C190.594 386.198 190.852 385.984 191.059 385.704C191.267 385.424 191.409 385.084 191.486 384.684H193.99C193.927 385.47 193.696 386.167 193.295 386.775C192.895 387.378 192.35 387.85 191.66 388.193C190.97 388.531 190.16 388.699 189.229 388.699ZM198.76 373.663V388.482H196.141V373.663H198.76ZM208.538 383.808V377.368H211.157V388.482H208.617V386.507H208.501C208.251 387.129 207.838 387.638 207.264 388.034C206.695 388.429 205.993 388.627 205.158 388.627C204.43 388.627 203.786 388.466 203.226 388.142C202.672 387.814 202.238 387.339 201.924 386.717C201.61 386.09 201.454 385.332 201.454 384.445V377.368H204.073V384.04C204.073 384.744 204.266 385.303 204.652 385.718C205.038 386.133 205.544 386.341 206.171 386.341C206.557 386.341 206.931 386.247 207.293 386.058C207.655 385.87 207.951 385.59 208.183 385.219C208.419 384.843 208.538 384.372 208.538 383.808ZM222.635 380.306L220.247 380.566C220.18 380.325 220.061 380.098 219.893 379.886C219.729 379.674 219.507 379.503 219.227 379.372C218.947 379.242 218.605 379.177 218.199 379.177C217.654 379.177 217.196 379.295 216.824 379.532C216.458 379.768 216.277 380.074 216.282 380.451C216.277 380.774 216.395 381.037 216.636 381.239C216.882 381.442 217.288 381.608 217.852 381.739L219.748 382.144C220.799 382.371 221.581 382.73 222.092 383.222C222.608 383.714 222.869 384.358 222.874 385.154C222.869 385.853 222.664 386.471 222.259 387.006C221.858 387.537 221.301 387.952 220.587 388.251C219.873 388.55 219.053 388.699 218.127 388.699C216.767 388.699 215.672 388.415 214.842 387.846C214.012 387.272 213.518 386.473 213.359 385.451L215.913 385.205C216.029 385.706 216.275 386.085 216.651 386.341C217.027 386.596 217.517 386.724 218.12 386.724C218.742 386.724 219.241 386.596 219.618 386.341C219.999 386.085 220.189 385.769 220.189 385.393C220.189 385.074 220.066 384.811 219.82 384.604C219.579 384.397 219.203 384.237 218.691 384.126L216.796 383.728C215.729 383.507 214.941 383.133 214.429 382.607C213.918 382.076 213.665 381.406 213.67 380.595C213.665 379.91 213.851 379.317 214.227 378.815C214.608 378.309 215.136 377.918 215.811 377.643C216.492 377.363 217.276 377.223 218.163 377.223C219.466 377.223 220.491 377.501 221.238 378.055C221.991 378.61 222.456 379.36 222.635 380.306ZM225.034 388.482V377.368H227.653V388.482H225.034ZM226.351 375.791C225.936 375.791 225.579 375.653 225.28 375.378C224.981 375.098 224.831 374.763 224.831 374.372C224.831 373.977 224.981 373.642 225.28 373.367C225.579 373.087 225.936 372.947 226.351 372.947C226.77 372.947 227.127 373.087 227.421 373.367C227.721 373.642 227.87 373.977 227.87 374.372C227.87 374.763 227.721 375.098 227.421 375.378C227.127 375.653 226.77 375.791 226.351 375.791ZM240.274 377.368L236.316 388.482H233.422L229.464 377.368H232.257L234.811 385.624H234.927L237.488 377.368H240.274ZM246.629 388.699C245.515 388.699 244.552 388.468 243.742 388.005C242.936 387.537 242.317 386.876 241.882 386.022C241.448 385.164 241.231 384.153 241.231 382.99C241.231 381.847 241.448 380.844 241.882 379.98C242.321 379.112 242.934 378.437 243.72 377.954C244.507 377.467 245.43 377.223 246.492 377.223C247.177 377.223 247.823 377.334 248.431 377.556C249.044 377.773 249.584 378.111 250.052 378.569C250.524 379.028 250.896 379.611 251.166 380.32C251.436 381.025 251.571 381.864 251.571 382.838V383.642H242.461V381.876H249.06C249.056 381.374 248.947 380.928 248.735 380.537C248.523 380.142 248.226 379.831 247.845 379.604C247.469 379.377 247.03 379.264 246.528 379.264C245.992 379.264 245.522 379.394 245.117 379.655C244.712 379.91 244.396 380.248 244.169 380.668C243.947 381.083 243.834 381.538 243.829 382.035V383.576C243.829 384.223 243.947 384.778 244.183 385.241C244.42 385.699 244.75 386.051 245.175 386.297C245.599 386.538 246.096 386.659 246.665 386.659C247.046 386.659 247.391 386.606 247.7 386.5C248.009 386.389 248.277 386.227 248.503 386.015C248.73 385.803 248.901 385.54 249.017 385.226L251.463 385.501C251.308 386.148 251.014 386.712 250.58 387.194C250.151 387.672 249.601 388.043 248.93 388.309C248.26 388.569 247.493 388.699 246.629 388.699ZM264.471 377.368V379.394H257.901V377.368H264.471ZM259.543 388.482V376.319C259.543 375.571 259.698 374.949 260.007 374.452C260.32 373.955 260.74 373.584 261.266 373.338C261.791 373.092 262.375 372.969 263.017 372.969C263.47 372.969 263.873 373.005 264.225 373.077C264.577 373.15 264.838 373.215 265.007 373.273L264.486 375.299C264.375 375.265 264.235 375.231 264.066 375.197C263.897 375.159 263.709 375.139 263.501 375.139C263.014 375.139 262.669 375.258 262.467 375.494C262.269 375.726 262.17 376.058 262.17 376.493V388.482H259.543ZM271.025 388.699C269.911 388.699 268.948 388.468 268.138 388.005C267.332 387.537 266.712 386.876 266.278 386.022C265.844 385.164 265.627 384.153 265.627 382.99C265.627 381.847 265.844 380.844 266.278 379.98C266.717 379.112 267.33 378.437 268.116 377.954C268.902 377.467 269.826 377.223 270.887 377.223C271.572 377.223 272.219 377.334 272.827 377.556C273.439 377.773 273.98 378.111 274.448 378.569C274.92 379.028 275.292 379.611 275.562 380.32C275.832 381.025 275.967 381.864 275.967 382.838V383.642H266.857V381.876H273.456C273.451 381.374 273.343 380.928 273.131 380.537C272.918 380.142 272.622 379.831 272.241 379.604C271.864 379.377 271.425 379.264 270.924 379.264C270.388 379.264 269.918 379.394 269.513 379.655C269.107 379.91 268.791 380.248 268.565 380.668C268.343 381.083 268.229 381.538 268.225 382.035V383.576C268.225 384.223 268.343 384.778 268.579 385.241C268.816 385.699 269.146 386.051 269.571 386.297C269.995 386.538 270.492 386.659 271.061 386.659C271.442 386.659 271.787 386.606 272.096 386.5C272.405 386.389 272.672 386.227 272.899 386.015C273.126 385.803 273.297 385.54 273.413 385.226L275.859 385.501C275.704 386.148 275.41 386.712 274.976 387.194C274.546 387.672 273.997 388.043 273.326 388.309C272.655 388.569 271.888 388.699 271.025 388.699ZM283.103 388.699C281.989 388.699 281.027 388.468 280.216 388.005C279.411 387.537 278.791 386.876 278.357 386.022C277.923 385.164 277.706 384.153 277.706 382.99C277.706 381.847 277.923 380.844 278.357 379.98C278.796 379.112 279.408 378.437 280.195 377.954C280.981 377.467 281.905 377.223 282.966 377.223C283.651 377.223 284.297 377.334 284.905 377.556C285.518 377.773 286.058 378.111 286.526 378.569C286.999 379.028 287.37 379.611 287.64 380.32C287.911 381.025 288.046 381.864 288.046 382.838V383.642H278.936V381.876H285.535C285.53 381.374 285.421 380.928 285.209 380.537C284.997 380.142 284.7 379.831 284.319 379.604C283.943 379.377 283.504 379.264 283.002 379.264C282.467 379.264 281.996 379.394 281.591 379.655C281.186 379.91 280.87 380.248 280.643 380.668C280.421 381.083 280.308 381.538 280.303 382.035V383.576C280.303 384.223 280.421 384.778 280.658 385.241C280.894 385.699 281.225 386.051 281.649 386.297C282.074 386.538 282.57 386.659 283.14 386.659C283.521 386.659 283.866 386.606 284.174 386.5C284.483 386.389 284.751 386.227 284.978 386.015C285.204 385.803 285.376 385.54 285.491 385.226L287.937 385.501C287.783 386.148 287.488 386.712 287.054 387.194C286.625 387.672 286.075 388.043 285.405 388.309C284.734 388.569 283.967 388.699 283.103 388.699Z" fill="black"/>
<path d="M98.6018 416.059C90.7642 416.059 84.4111 422.412 84.4111 430.25C84.4111 438.087 90.7642 444.44 98.6018 444.44C106.439 444.44 112.792 438.087 112.792 430.25C112.778 422.419 106.432 416.074 98.6018 416.059ZM105.356 427.767L97.3603 435.408C97.1536 435.601 96.88 435.709 96.5961 435.708C96.3152 435.712 96.046 435.604 95.8451 435.408L91.847 431.587C91.5457 431.324 91.4118 430.916 91.5006 430.525C91.5879 430.133 91.8834 429.822 92.2691 429.714C92.6548 429.605 93.0696 429.717 93.349 430.004L96.5961 433.101L103.854 426.183C104.295 425.799 104.962 425.831 105.365 426.254C105.767 426.679 105.764 427.346 105.356 427.767Z" fill="black"/>
<path d="M144.509 423.148V437.967H142.121L135.138 427.873H135.015V437.967H132.331V423.148H134.733L141.708 433.25H141.839V423.148H144.509ZM152.166 438.184C151.081 438.184 150.14 437.946 149.344 437.468C148.548 436.991 147.931 436.322 147.492 435.464C147.057 434.605 146.84 433.602 146.84 432.454C146.84 431.305 147.057 430.3 147.492 429.436C147.931 428.573 148.548 427.902 149.344 427.425C150.14 426.947 151.081 426.708 152.166 426.708C153.251 426.708 154.192 426.947 154.988 427.425C155.784 427.902 156.399 428.573 156.833 429.436C157.272 430.3 157.492 431.305 157.492 432.454C157.492 433.602 157.272 434.605 156.833 435.464C156.399 436.322 155.784 436.991 154.988 437.468C154.192 437.946 153.251 438.184 152.166 438.184ZM152.18 436.086C152.769 436.086 153.261 435.924 153.657 435.601C154.052 435.273 154.346 434.834 154.539 434.284C154.737 433.734 154.836 433.122 154.836 432.446C154.836 431.766 154.737 431.151 154.539 430.601C154.346 430.046 154.052 429.605 153.657 429.277C153.261 428.949 152.769 428.785 152.18 428.785C151.577 428.785 151.076 428.949 150.675 429.277C150.28 429.605 149.983 430.046 149.785 430.601C149.592 431.151 149.496 431.766 149.496 432.446C149.496 433.122 149.592 433.734 149.785 434.284C149.983 434.834 150.28 435.273 150.675 435.601C151.076 435.924 151.577 436.086 152.18 436.086ZM164.769 437.967V426.853H167.273V428.742H167.403C167.635 428.105 168.018 427.608 168.553 427.251C169.089 426.889 169.728 426.708 170.471 426.708C171.224 426.708 171.858 426.892 172.374 427.258C172.895 427.62 173.262 428.114 173.474 428.742H173.59C173.836 428.124 174.251 427.632 174.834 427.265C175.423 426.894 176.12 426.708 176.925 426.708C177.948 426.708 178.783 427.031 179.429 427.678C180.075 428.324 180.399 429.267 180.399 430.507V437.967H177.772V430.912C177.772 430.223 177.589 429.718 177.222 429.4C176.855 429.077 176.407 428.915 175.876 428.915C175.244 428.915 174.75 429.113 174.393 429.509C174.041 429.899 173.865 430.408 173.865 431.035V437.967H171.296V430.804C171.296 430.23 171.122 429.771 170.775 429.429C170.432 429.086 169.984 428.915 169.429 428.915C169.053 428.915 168.71 429.012 168.402 429.205C168.093 429.393 167.847 429.661 167.663 430.008C167.48 430.35 167.389 430.751 167.389 431.209V437.967H164.769ZM183.056 437.967V426.853H185.675V437.967H183.056ZM184.373 425.276C183.958 425.276 183.601 425.138 183.302 424.863C183.003 424.583 182.853 424.248 182.853 423.857C182.853 423.462 183.003 423.127 183.302 422.852C183.601 422.572 183.958 422.432 184.373 422.432C184.793 422.432 185.15 422.572 185.444 422.852C185.743 423.127 185.893 423.462 185.893 423.857C185.893 424.248 185.743 424.583 185.444 424.863C185.15 425.138 184.793 425.276 184.373 425.276ZM190.988 431.455V437.967H188.369V426.853H190.873V428.742H191.003C191.259 428.119 191.666 427.625 192.226 427.258C192.79 426.892 193.487 426.708 194.317 426.708C195.084 426.708 195.752 426.872 196.321 427.2C196.895 427.528 197.339 428.004 197.653 428.626C197.971 429.248 198.128 430.003 198.123 430.891V437.967H195.504V431.296C195.504 430.553 195.311 429.972 194.925 429.552C194.544 429.132 194.015 428.922 193.34 428.922C192.882 428.922 192.474 429.024 192.117 429.226C191.765 429.424 191.488 429.711 191.285 430.087C191.087 430.464 190.988 430.92 190.988 431.455ZM200.786 437.967V426.853H203.405V437.967H200.786ZM202.103 425.276C201.688 425.276 201.331 425.138 201.032 424.863C200.733 424.583 200.583 424.248 200.583 423.857C200.583 423.462 200.733 423.127 201.032 422.852C201.331 422.572 201.688 422.432 202.103 422.432C202.522 422.432 202.879 422.572 203.174 422.852C203.473 423.127 203.622 423.462 203.622 423.857C203.622 424.248 203.473 424.583 203.174 424.863C202.879 425.138 202.522 425.276 202.103 425.276ZM206.099 437.967V426.853H208.602V428.742H208.733C208.964 428.105 209.348 427.608 209.883 427.251C210.419 426.889 211.058 426.708 211.801 426.708C212.553 426.708 213.188 426.892 213.704 427.258C214.225 427.62 214.591 428.114 214.804 428.742H214.919C215.165 428.124 215.58 427.632 216.164 427.265C216.752 426.894 217.449 426.708 218.255 426.708C219.278 426.708 220.112 427.031 220.759 427.678C221.405 428.324 221.728 429.267 221.728 430.507V437.967H219.102V430.912C219.102 430.223 218.918 429.718 218.552 429.4C218.185 429.077 217.736 428.915 217.206 428.915C216.574 428.915 216.079 429.113 215.722 429.509C215.37 429.899 215.194 430.408 215.194 431.035V437.967H212.626V430.804C212.626 430.23 212.452 429.771 212.105 429.429C211.762 429.086 211.313 428.915 210.759 428.915C210.382 428.915 210.04 429.012 209.731 429.205C209.422 429.393 209.176 429.661 208.993 430.008C208.81 430.35 208.718 430.751 208.718 431.209V437.967H206.099ZM231.47 433.293V426.853H234.089V437.967H231.549V435.992H231.433C231.183 436.614 230.77 437.123 230.196 437.519C229.627 437.914 228.925 438.112 228.09 438.112C227.362 438.112 226.718 437.95 226.158 437.627C225.604 437.299 225.17 436.824 224.856 436.202C224.542 435.575 224.386 434.817 224.386 433.93V426.853H227.005V433.525C227.005 434.229 227.198 434.788 227.584 435.203C227.97 435.618 228.476 435.826 229.103 435.826C229.489 435.826 229.863 435.731 230.225 435.543C230.587 435.355 230.883 435.075 231.115 434.704C231.351 434.328 231.47 433.857 231.47 433.293ZM236.783 437.967V426.853H239.286V428.742H239.416C239.648 428.105 240.031 427.608 240.567 427.251C241.102 426.889 241.742 426.708 242.484 426.708C243.237 426.708 243.871 426.892 244.387 427.258C244.908 427.62 245.275 428.114 245.487 428.742H245.603C245.849 428.124 246.264 427.632 246.848 427.265C247.436 426.894 248.133 426.708 248.939 426.708C249.962 426.708 250.796 427.031 251.442 427.678C252.089 428.324 252.412 429.267 252.412 430.507V437.967H249.785V430.912C249.785 430.223 249.602 429.718 249.236 429.4C248.869 429.077 248.42 428.915 247.89 428.915C247.258 428.915 246.763 429.113 246.406 429.509C246.054 429.899 245.878 430.408 245.878 431.035V437.967H243.309V430.804C243.309 430.23 243.136 429.771 242.788 429.429C242.446 429.086 241.997 428.915 241.442 428.915C241.066 428.915 240.724 429.012 240.415 429.205C240.106 429.393 239.86 429.661 239.677 430.008C239.494 430.35 239.402 430.751 239.402 431.209V437.967H236.783ZM264.972 438.184C263.862 438.184 262.91 437.941 262.114 437.454C261.322 436.966 260.712 436.293 260.283 435.435C259.858 434.571 259.646 433.578 259.646 432.454C259.646 431.325 259.863 430.329 260.297 429.465C260.732 428.597 261.344 427.922 262.135 427.439C262.931 426.952 263.872 426.708 264.957 426.708C265.859 426.708 266.658 426.875 267.352 427.208C268.052 427.536 268.609 428.001 269.024 428.604C269.439 429.202 269.675 429.902 269.733 430.703H267.229C267.128 430.167 266.887 429.721 266.506 429.364C266.13 429.002 265.625 428.821 264.994 428.821C264.458 428.821 263.988 428.966 263.583 429.255C263.177 429.54 262.861 429.95 262.635 430.485C262.413 431.021 262.302 431.662 262.302 432.41C262.302 433.168 262.413 433.819 262.635 434.364C262.857 434.904 263.168 435.321 263.568 435.616C263.973 435.905 264.448 436.05 264.994 436.05C265.379 436.05 265.724 435.977 266.028 435.833C266.337 435.683 266.595 435.469 266.802 435.189C267.01 434.909 267.152 434.569 267.229 434.169H269.733C269.67 434.955 269.439 435.652 269.038 436.26C268.638 436.863 268.093 437.335 267.403 437.678C266.713 438.016 265.903 438.184 264.972 438.184ZM276.732 438.184C275.647 438.184 274.706 437.946 273.91 437.468C273.114 436.991 272.497 436.322 272.058 435.464C271.623 434.605 271.406 433.602 271.406 432.454C271.406 431.305 271.623 430.3 272.058 429.436C272.497 428.573 273.114 427.902 273.91 427.425C274.706 426.947 275.647 426.708 276.732 426.708C277.817 426.708 278.758 426.947 279.554 427.425C280.35 427.902 280.965 428.573 281.399 429.436C281.838 430.3 282.058 431.305 282.058 432.454C282.058 433.602 281.838 434.605 281.399 435.464C280.965 436.322 280.35 436.991 279.554 437.468C278.758 437.946 277.817 438.184 276.732 438.184ZM276.746 436.086C277.335 436.086 277.827 435.924 278.223 435.601C278.618 435.273 278.912 434.834 279.105 434.284C279.303 433.734 279.402 433.122 279.402 432.446C279.402 431.766 279.303 431.151 279.105 430.601C278.912 430.046 278.618 429.605 278.223 429.277C277.827 428.949 277.335 428.785 276.746 428.785C276.143 428.785 275.642 428.949 275.241 429.277C274.846 429.605 274.549 430.046 274.351 430.601C274.158 431.151 274.062 431.766 274.062 432.446C274.062 433.122 274.158 433.734 274.351 434.284C274.549 434.834 274.846 435.273 275.241 435.601C275.642 435.924 276.143 436.086 276.746 436.086ZM286.9 431.455V437.967H284.281V426.853H286.784V428.742H286.915C287.17 428.119 287.578 427.625 288.138 427.258C288.702 426.892 289.399 426.708 290.229 426.708C290.996 426.708 291.664 426.872 292.233 427.2C292.807 427.528 293.251 428.004 293.564 428.626C293.883 429.248 294.04 430.003 294.035 430.891V437.967H291.415V431.296C291.415 430.553 291.222 429.972 290.837 429.552C290.455 429.132 289.927 428.922 289.252 428.922C288.794 428.922 288.386 429.024 288.029 429.226C287.677 429.424 287.399 429.711 287.197 430.087C286.999 430.464 286.9 430.92 286.9 431.455ZM302.248 426.853V428.879H295.858V426.853H302.248ZM297.436 424.19H300.055V434.624C300.055 434.977 300.108 435.247 300.214 435.435C300.325 435.618 300.47 435.744 300.648 435.811C300.827 435.879 301.025 435.912 301.242 435.912C301.406 435.912 301.555 435.9 301.69 435.876C301.83 435.852 301.936 435.83 302.009 435.811L302.45 437.859C302.31 437.907 302.11 437.96 301.85 438.018C301.594 438.076 301.28 438.11 300.909 438.119C300.253 438.139 299.662 438.04 299.136 437.823C298.61 437.601 298.193 437.258 297.884 436.795C297.58 436.332 297.431 435.753 297.436 435.059V424.19ZM304.438 437.967V426.853H306.978V428.705H307.094C307.296 428.064 307.644 427.569 308.136 427.222C308.633 426.87 309.199 426.694 309.836 426.694C309.981 426.694 310.142 426.701 310.321 426.716C310.504 426.725 310.656 426.742 310.777 426.766V429.176C310.666 429.137 310.49 429.103 310.249 429.074C310.012 429.041 309.783 429.024 309.561 429.024C309.084 429.024 308.654 429.127 308.273 429.335C307.897 429.538 307.6 429.82 307.383 430.182C307.166 430.543 307.058 430.961 307.058 431.433V437.967H304.438ZM315.516 438.192C314.812 438.192 314.178 438.066 313.613 437.815C313.054 437.56 312.61 437.183 312.282 436.687C311.959 436.19 311.797 435.577 311.797 434.849C311.797 434.222 311.913 433.703 312.144 433.293C312.376 432.883 312.692 432.555 313.092 432.309C313.493 432.063 313.944 431.877 314.445 431.752C314.952 431.621 315.475 431.527 316.016 431.47C316.667 431.402 317.195 431.342 317.6 431.289C318.005 431.231 318.3 431.144 318.483 431.028C318.671 430.908 318.765 430.722 318.765 430.471V430.428C318.765 429.882 318.604 429.46 318.28 429.161C317.957 428.862 317.492 428.713 316.884 428.713C316.242 428.713 315.733 428.853 315.357 429.132C314.986 429.412 314.735 429.743 314.605 430.124L312.159 429.776C312.352 429.101 312.67 428.537 313.114 428.083C313.558 427.625 314.101 427.282 314.742 427.056C315.384 426.824 316.093 426.708 316.869 426.708C317.405 426.708 317.938 426.771 318.469 426.896C318.999 427.022 319.484 427.229 319.923 427.519C320.362 427.803 320.714 428.192 320.979 428.684C321.25 429.176 321.385 429.791 321.385 430.529V437.967H318.867V436.441H318.78C318.621 436.749 318.396 437.039 318.107 437.309C317.822 437.574 317.463 437.789 317.029 437.953C316.599 438.112 316.095 438.192 315.516 438.192ZM316.196 436.267C316.722 436.267 317.178 436.163 317.564 435.956C317.95 435.744 318.247 435.464 318.454 435.116C318.666 434.769 318.772 434.39 318.772 433.98V432.671C318.69 432.738 318.551 432.801 318.353 432.859C318.16 432.917 317.943 432.967 317.702 433.011C317.46 433.054 317.222 433.093 316.985 433.127C316.749 433.16 316.544 433.189 316.37 433.213C315.979 433.266 315.63 433.353 315.321 433.474C315.012 433.594 314.769 433.763 314.59 433.98C314.412 434.193 314.322 434.468 314.322 434.805C314.322 435.288 314.498 435.652 314.851 435.898C315.203 436.144 315.651 436.267 316.196 436.267ZM328.867 438.184C327.757 438.184 326.804 437.941 326.008 437.454C325.217 436.966 324.607 436.293 324.178 435.435C323.753 434.571 323.541 433.578 323.541 432.454C323.541 431.325 323.758 430.329 324.192 429.465C324.626 428.597 325.239 427.922 326.03 427.439C326.826 426.952 327.767 426.708 328.852 426.708C329.754 426.708 330.553 426.875 331.247 427.208C331.947 427.536 332.504 428.001 332.919 428.604C333.334 429.202 333.57 429.902 333.628 430.703H331.124C331.023 430.167 330.782 429.721 330.401 429.364C330.024 429.002 329.52 428.821 328.888 428.821C328.353 428.821 327.882 428.966 327.477 429.255C327.072 429.54 326.756 429.95 326.529 430.485C326.307 431.021 326.197 431.662 326.197 432.41C326.197 433.168 326.307 433.819 326.529 434.364C326.751 434.904 327.062 435.321 327.463 435.616C327.868 435.905 328.343 436.05 328.888 436.05C329.274 436.05 329.619 435.977 329.923 435.833C330.232 435.683 330.49 435.469 330.697 435.189C330.905 434.909 331.047 434.569 331.124 434.169H333.628C333.565 434.955 333.334 435.652 332.933 436.26C332.533 436.863 331.988 437.335 331.298 437.678C330.608 438.016 329.798 438.184 328.867 438.184ZM341.329 426.853V428.879H334.939V426.853H341.329ZM336.517 424.19H339.136V434.624C339.136 434.977 339.189 435.247 339.295 435.435C339.406 435.618 339.551 435.744 339.729 435.811C339.908 435.879 340.106 435.912 340.323 435.912C340.487 435.912 340.636 435.9 340.771 435.876C340.911 435.852 341.017 435.83 341.09 435.811L341.531 437.859C341.391 437.907 341.191 437.96 340.931 438.018C340.675 438.076 340.361 438.11 339.99 438.119C339.334 438.139 338.743 438.04 338.217 437.823C337.691 437.601 337.274 437.258 336.965 436.795C336.661 436.332 336.512 435.753 336.517 435.059V424.19Z" fill="black"/>
<path d="M98.6018 465.544C90.7642 465.544 84.4111 471.897 84.4111 479.735C84.4111 487.573 90.7642 493.926 98.6018 493.926C106.439 493.926 112.792 487.573 112.792 479.735C112.778 471.905 106.432 465.559 98.6018 465.544ZM105.356 477.252L97.3603 484.893C97.1536 485.087 96.88 485.194 96.5961 485.193C96.3152 485.197 96.046 485.09 95.8451 484.893L91.847 481.073C91.5457 480.809 91.4118 480.402 91.5006 480.01C91.5879 479.619 91.8834 479.307 92.2691 479.199C92.6548 479.09 93.0696 479.202 93.349 479.489L96.5961 482.586L103.854 475.669C104.295 475.284 104.962 475.316 105.365 475.74C105.767 476.165 105.764 476.831 105.356 477.252Z" fill="black"/>
<path d="M131.897 474.884V472.634H143.721V474.884H139.14V487.453H136.477V474.884H131.897ZM149.193 487.67C148.078 487.67 147.116 487.438 146.306 486.975C145.5 486.507 144.88 485.846 144.446 484.993C144.012 484.134 143.795 483.123 143.795 481.961C143.795 480.817 144.012 479.814 144.446 478.951C144.885 478.082 145.498 477.407 146.284 476.925C147.07 476.437 147.994 476.194 149.055 476.194C149.74 476.194 150.387 476.305 150.994 476.527C151.607 476.744 152.147 477.081 152.615 477.54C153.088 477.998 153.459 478.582 153.73 479.291C154 479.995 154.135 480.834 154.135 481.809V482.612H145.025V480.846H151.624C151.619 480.345 151.511 479.898 151.298 479.508C151.086 479.112 150.789 478.801 150.408 478.574C150.032 478.348 149.593 478.234 149.091 478.234C148.556 478.234 148.086 478.364 147.68 478.625C147.275 478.881 146.959 479.218 146.733 479.638C146.511 480.053 146.397 480.509 146.392 481.006V482.547C146.392 483.193 146.511 483.748 146.747 484.211C146.983 484.669 147.314 485.021 147.738 485.267C148.163 485.509 148.66 485.629 149.229 485.629C149.61 485.629 149.955 485.576 150.264 485.47C150.572 485.359 150.84 485.198 151.067 484.985C151.294 484.773 151.465 484.51 151.581 484.197L154.026 484.472C153.872 485.118 153.578 485.682 153.144 486.165C152.714 486.642 152.164 487.014 151.494 487.279C150.823 487.54 150.056 487.67 149.193 487.67ZM161.199 487.67C160.089 487.67 159.137 487.426 158.341 486.939C157.55 486.452 156.939 485.779 156.51 484.92C156.086 484.057 155.873 483.063 155.873 481.939C155.873 480.81 156.09 479.814 156.524 478.951C156.959 478.082 157.571 477.407 158.362 476.925C159.158 476.437 160.099 476.194 161.184 476.194C162.086 476.194 162.885 476.36 163.579 476.693C164.279 477.021 164.836 477.486 165.251 478.089C165.666 478.688 165.902 479.387 165.96 480.188H163.456C163.355 479.652 163.114 479.206 162.733 478.849C162.357 478.487 161.853 478.307 161.221 478.307C160.685 478.307 160.215 478.451 159.81 478.741C159.404 479.025 159.088 479.435 158.862 479.971C158.64 480.506 158.529 481.148 158.529 481.896C158.529 482.653 158.64 483.304 158.862 483.849C159.084 484.39 159.395 484.807 159.795 485.101C160.2 485.39 160.675 485.535 161.221 485.535C161.606 485.535 161.951 485.463 162.255 485.318C162.564 485.169 162.822 484.954 163.03 484.674C163.237 484.394 163.379 484.054 163.456 483.654H165.96C165.897 484.44 165.666 485.137 165.265 485.745C164.865 486.348 164.32 486.821 163.63 487.163C162.94 487.501 162.13 487.67 161.199 487.67ZM170.73 480.94V487.453H168.111V472.634H170.672V478.227H170.803C171.063 477.6 171.466 477.105 172.011 476.744C172.561 476.377 173.261 476.194 174.11 476.194C174.881 476.194 175.554 476.355 176.128 476.678C176.702 477.002 177.146 477.474 177.46 478.097C177.778 478.719 177.937 479.479 177.937 480.376V487.453H175.318V480.781C175.318 480.034 175.125 479.452 174.739 479.037C174.358 478.618 173.823 478.408 173.133 478.408C172.67 478.408 172.255 478.509 171.888 478.712C171.526 478.91 171.242 479.197 171.034 479.573C170.832 479.949 170.73 480.405 170.73 480.94ZM183.227 480.94V487.453H180.607V476.338H183.111V478.227H183.241C183.497 477.605 183.905 477.11 184.464 476.744C185.028 476.377 185.726 476.194 186.555 476.194C187.322 476.194 187.99 476.358 188.56 476.686C189.134 477.014 189.577 477.489 189.891 478.111C190.209 478.733 190.366 479.488 190.361 480.376V487.453H187.742V480.781C187.742 480.038 187.549 479.457 187.163 479.037C186.782 478.618 186.254 478.408 185.578 478.408C185.12 478.408 184.713 478.509 184.356 478.712C184.003 478.91 183.726 479.197 183.523 479.573C183.326 479.949 183.227 480.405 183.227 480.94ZM193.024 487.453V476.338H195.644V487.453H193.024ZM194.341 474.761C193.926 474.761 193.569 474.623 193.27 474.349C192.971 474.069 192.822 473.733 192.822 473.343C192.822 472.947 192.971 472.612 193.27 472.337C193.569 472.057 193.926 471.917 194.341 471.917C194.761 471.917 195.118 472.057 195.412 472.337C195.711 472.612 195.861 472.947 195.861 473.343C195.861 473.733 195.711 474.069 195.412 474.349C195.118 474.623 194.761 474.761 194.341 474.761ZM203.185 487.67C202.076 487.67 201.123 487.426 200.327 486.939C199.536 486.452 198.926 485.779 198.496 484.92C198.072 484.057 197.86 483.063 197.86 481.939C197.86 480.81 198.077 479.814 198.511 478.951C198.945 478.082 199.558 477.407 200.349 476.925C201.145 476.437 202.085 476.194 203.171 476.194C204.073 476.194 204.871 476.36 205.566 476.693C206.265 477.021 206.822 477.486 207.237 478.089C207.652 478.688 207.888 479.387 207.946 480.188H205.443C205.341 479.652 205.1 479.206 204.719 478.849C204.343 478.487 203.839 478.307 203.207 478.307C202.671 478.307 202.201 478.451 201.796 478.741C201.391 479.025 201.075 479.435 200.848 479.971C200.626 480.506 200.515 481.148 200.515 481.896C200.515 482.653 200.626 483.304 200.848 483.849C201.07 484.39 201.381 484.807 201.781 485.101C202.187 485.39 202.662 485.535 203.207 485.535C203.593 485.535 203.938 485.463 204.242 485.318C204.55 485.169 204.808 484.954 205.016 484.674C205.223 484.394 205.366 484.054 205.443 483.654H207.946C207.884 484.44 207.652 485.137 207.252 485.745C206.851 486.348 206.306 486.821 205.616 487.163C204.927 487.501 204.116 487.67 203.185 487.67ZM213.296 487.677C212.591 487.677 211.957 487.552 211.392 487.301C210.833 487.045 210.389 486.669 210.061 486.172C209.738 485.675 209.576 485.062 209.576 484.334C209.576 483.707 209.692 483.188 209.924 482.778C210.155 482.368 210.471 482.04 210.871 481.794C211.272 481.548 211.723 481.363 212.225 481.237C212.731 481.107 213.255 481.013 213.795 480.955C214.446 480.887 214.974 480.827 215.379 480.774C215.785 480.716 216.079 480.629 216.262 480.514C216.45 480.393 216.544 480.207 216.544 479.956V479.913C216.544 479.368 216.383 478.946 216.06 478.647C215.736 478.348 215.271 478.198 214.663 478.198C214.022 478.198 213.513 478.338 213.136 478.618C212.765 478.897 212.514 479.228 212.384 479.609L209.938 479.262C210.131 478.586 210.449 478.022 210.893 477.568C211.337 477.11 211.88 476.768 212.521 476.541C213.163 476.309 213.872 476.194 214.649 476.194C215.184 476.194 215.717 476.256 216.248 476.382C216.778 476.507 217.263 476.715 217.702 477.004C218.141 477.289 218.493 477.677 218.759 478.169C219.029 478.661 219.164 479.276 219.164 480.014V487.453H216.646V485.926H216.559C216.4 486.235 216.175 486.524 215.886 486.794C215.601 487.06 215.242 487.274 214.808 487.438C214.378 487.597 213.874 487.677 213.296 487.677ZM213.976 485.752C214.501 485.752 214.957 485.649 215.343 485.441C215.729 485.229 216.026 484.949 216.233 484.602C216.446 484.254 216.552 483.876 216.552 483.466V482.156C216.47 482.224 216.33 482.286 216.132 482.344C215.939 482.402 215.722 482.453 215.481 482.496C215.24 482.54 215.001 482.578 214.764 482.612C214.528 482.646 214.323 482.675 214.149 482.699C213.759 482.752 213.409 482.839 213.1 482.959C212.791 483.08 212.548 483.249 212.369 483.466C212.191 483.678 212.102 483.953 212.102 484.291C212.102 484.773 212.278 485.137 212.63 485.383C212.982 485.629 213.431 485.752 213.976 485.752ZM224.417 472.634V487.453H221.798V472.634H224.417ZM229.73 472.634V487.453H227.111V472.634H229.73ZM234.052 491.621C233.695 491.621 233.364 491.592 233.06 491.534C232.761 491.481 232.522 491.418 232.344 491.346L232.952 489.305C233.333 489.416 233.673 489.469 233.972 489.464C234.271 489.459 234.534 489.365 234.761 489.182C234.992 489.004 235.188 488.705 235.347 488.285L235.571 487.684L231.541 476.338H234.319L236.881 484.732H236.997L239.565 476.338H242.351L237.901 488.799C237.694 489.387 237.419 489.891 237.076 490.311C236.734 490.735 236.314 491.059 235.817 491.281C235.325 491.507 234.737 491.621 234.052 491.621ZM259.146 476.338L255.188 487.453H252.293L248.335 476.338H251.128L253.683 484.595H253.798L256.36 476.338H259.146ZM265.501 487.67C264.386 487.67 263.424 487.438 262.614 486.975C261.808 486.507 261.188 485.846 260.754 484.993C260.32 484.134 260.103 483.123 260.103 481.961C260.103 480.817 260.32 479.814 260.754 478.951C261.193 478.082 261.806 477.407 262.592 476.925C263.378 476.437 264.302 476.194 265.363 476.194C266.048 476.194 266.695 476.305 267.302 476.527C267.915 476.744 268.455 477.081 268.923 477.54C269.396 477.998 269.767 478.582 270.038 479.291C270.308 479.995 270.443 480.834 270.443 481.809V482.612H261.333V480.846H267.932C267.927 480.345 267.819 479.898 267.606 479.508C267.394 479.112 267.097 478.801 266.716 478.574C266.34 478.348 265.901 478.234 265.399 478.234C264.864 478.234 264.394 478.364 263.988 478.625C263.583 478.881 263.267 479.218 263.04 479.638C262.819 480.053 262.705 480.509 262.7 481.006V482.547C262.7 483.193 262.819 483.748 263.055 484.211C263.291 484.669 263.622 485.021 264.046 485.267C264.471 485.509 264.968 485.629 265.537 485.629C265.918 485.629 266.263 485.576 266.572 485.47C266.88 485.359 267.148 485.198 267.375 484.985C267.602 484.773 267.773 484.51 267.889 484.197L270.334 484.472C270.18 485.118 269.886 485.682 269.451 486.165C269.022 486.642 268.472 487.014 267.802 487.279C267.131 487.54 266.364 487.67 265.501 487.67ZM278.209 476.338V478.364H271.819V476.338H278.209ZM273.397 473.676H276.016V484.11C276.016 484.462 276.069 484.732 276.175 484.92C276.286 485.103 276.431 485.229 276.61 485.296C276.788 485.364 276.986 485.398 277.203 485.398C277.367 485.398 277.516 485.386 277.652 485.362C277.791 485.337 277.898 485.316 277.97 485.296L278.411 487.344C278.271 487.392 278.071 487.445 277.811 487.503C277.555 487.561 277.242 487.595 276.87 487.605C276.214 487.624 275.623 487.525 275.097 487.308C274.571 487.086 274.154 486.744 273.845 486.281C273.542 485.817 273.392 485.239 273.397 484.544V473.676ZM285.949 476.338V478.364H279.56V476.338H285.949ZM281.137 473.676H283.757V484.11C283.757 484.462 283.81 484.732 283.916 484.92C284.027 485.103 284.172 485.229 284.35 485.296C284.529 485.364 284.726 485.398 284.944 485.398C285.108 485.398 285.257 485.386 285.392 485.362C285.532 485.337 285.638 485.316 285.711 485.296L286.152 487.344C286.012 487.392 285.812 487.445 285.551 487.503C285.296 487.561 284.982 487.595 284.611 487.605C283.955 487.624 283.364 487.525 282.838 487.308C282.312 487.086 281.895 486.744 281.586 486.281C281.282 485.817 281.133 485.239 281.137 484.544V473.676ZM292.941 487.67C291.827 487.67 290.864 487.438 290.054 486.975C289.248 486.507 288.628 485.846 288.194 484.993C287.76 484.134 287.543 483.123 287.543 481.961C287.543 480.817 287.76 479.814 288.194 478.951C288.633 478.082 289.246 477.407 290.032 476.925C290.818 476.437 291.742 476.194 292.804 476.194C293.489 476.194 294.135 476.305 294.743 476.527C295.355 476.744 295.896 477.081 296.364 477.54C296.836 477.998 297.208 478.582 297.478 479.291C297.748 479.995 297.883 480.834 297.883 481.809V482.612H288.773V480.846H295.372C295.367 480.345 295.259 479.898 295.047 479.508C294.834 479.112 294.538 478.801 294.157 478.574C293.78 478.348 293.341 478.234 292.84 478.234C292.304 478.234 291.834 478.364 291.429 478.625C291.024 478.881 290.708 479.218 290.481 479.638C290.259 480.053 290.146 480.509 290.141 481.006V482.547C290.141 483.193 290.259 483.748 290.495 484.211C290.732 484.669 291.062 485.021 291.487 485.267C291.911 485.509 292.408 485.629 292.977 485.629C293.358 485.629 293.703 485.576 294.012 485.47C294.321 485.359 294.588 485.198 294.815 484.985C295.042 484.773 295.213 484.51 295.329 484.197L297.775 484.472C297.62 485.118 297.326 485.682 296.892 486.165C296.462 486.642 295.913 487.014 295.242 487.279C294.572 487.54 293.804 487.67 292.941 487.67ZM304.224 487.648C303.35 487.648 302.569 487.424 301.879 486.975C301.189 486.527 300.644 485.875 300.244 485.021C299.843 484.168 299.643 483.13 299.643 481.91C299.643 480.675 299.846 479.633 300.251 478.784C300.661 477.93 301.213 477.286 301.908 476.852C302.603 476.413 303.377 476.194 304.231 476.194C304.882 476.194 305.417 476.305 305.837 476.527C306.257 476.744 306.59 477.007 306.836 477.315C307.082 477.619 307.272 477.906 307.407 478.176H307.516V472.634H310.143V487.453H307.567V485.702H307.407C307.272 485.972 307.077 486.259 306.821 486.563C306.566 486.862 306.228 487.117 305.808 487.33C305.389 487.542 304.86 487.648 304.224 487.648ZM304.954 485.499C305.509 485.499 305.982 485.349 306.373 485.05C306.763 484.747 307.06 484.324 307.263 483.784C307.465 483.244 307.567 482.614 307.567 481.896C307.567 481.177 307.465 480.552 307.263 480.021C307.065 479.491 306.771 479.078 306.38 478.784C305.994 478.49 305.519 478.343 304.954 478.343C304.371 478.343 303.883 478.495 303.493 478.799C303.102 479.103 302.808 479.522 302.61 480.058C302.412 480.593 302.313 481.206 302.313 481.896C302.313 482.59 302.412 483.21 302.61 483.755C302.813 484.295 303.109 484.722 303.5 485.036C303.896 485.345 304.38 485.499 304.954 485.499Z" fill="black"/>
<rect x="0.845161" y="73.8452" width="451.316" height="522.31" rx="21.6925" stroke="white" stroke-width="1.69032"/>
</g>
<defs>
<filter id="filter0_b_2_249" x="-65.3591" y="-64.4796" width="622.4" height="726.839" filterUnits="userSpaceOnUse" color-interpolation-filters="sRGB">
<feFlood flood-opacity="0" result="BackgroundImageFix"/>
<feGaussianBlur in="BackgroundImageFix" stdDeviation="32.6796"/>
<feComposite in2="SourceAlpha" operator="in" result="effect1_backgroundBlur_2_249"/>
<feBlend mode="normal" in="SourceGraphic" in2="effect1_backgroundBlur_2_249" result="shape"/>
</filter>
<linearGradient id="paint0_linear_2_249" x1="438.599" y1="73.4503" x2="13.2715" y2="608.01" gradientUnits="userSpaceOnUse">
<stop stop-color="#B7B7B7"/>
<stop offset="1" stop-color="#9D9D9D" stop-opacity="0"/>
</linearGradient>
</defs>
</svg>
