<svg width="75" height="75" viewBox="0 0 75 75" fill="none" xmlns="http://www.w3.org/2000/svg">
<g filter="url(#filter0_d_2_160)">
<g clip-path="url(#clip0_2_160)">
<rect x="6.67293" y="4.46558" width="61.9541" height="61.9541" rx="30.977" fill="white" fill-opacity="0.01" shape-rendering="crispEdges"/>
<g clip-path="url(#clip1_2_160)">
<g clip-path="url(#clip2_2_160)">
<path d="M37.65 66.4197C54.7581 66.4197 68.627 52.5508 68.627 35.4426C68.627 18.3345 54.7581 4.46558 37.65 4.46558C20.5418 4.46558 6.67293 18.3345 6.67293 35.4426C6.67293 52.5508 20.5418 66.4197 37.65 66.4197Z" fill="#896BFF" fill-opacity="0.6"/>
<path d="M37.6499 65.9359C54.4908 65.9359 68.143 52.2837 68.143 35.4429C68.143 18.602 54.4908 4.94983 37.6499 4.94983C20.8091 4.94983 7.15689 18.602 7.15689 35.4429C7.15689 52.2837 20.8091 65.9359 37.6499 65.9359Z" stroke="url(#paint0_linear_2_160)" stroke-opacity="0.3" stroke-width="0.968033"/>
<mask id="mask0_2_160" style="mask-type:alpha" maskUnits="userSpaceOnUse" x="6" y="4" width="63" height="63">
<path d="M37.65 66.4197C54.7581 66.4197 68.627 52.5508 68.627 35.4426C68.627 18.3345 54.7581 4.46558 37.65 4.46558C20.5418 4.46558 6.67293 18.3345 6.67293 35.4426C6.67293 52.5508 20.5418 66.4197 37.65 66.4197Z" fill="#896BFF"/>
<path d="M37.6499 65.9359C54.4908 65.9359 68.143 52.2837 68.143 35.4429C68.143 18.602 54.4908 4.94983 37.6499 4.94983C20.8091 4.94983 7.15689 18.602 7.15689 35.4429C7.15689 52.2837 20.8091 65.9359 37.6499 65.9359Z" stroke="url(#paint1_linear_2_160)" stroke-opacity="0.3" stroke-width="0.968033"/>
</mask>
<g mask="url(#mask0_2_160)">
<path d="M52.9485 21.4253H18.9586C16.2854 21.4253 14.1184 23.5923 14.1184 26.2655V65.5742C14.1184 68.2473 16.2854 70.4143 18.9586 70.4143H52.9485C55.6217 70.4143 57.7887 68.2473 57.7887 65.5742V26.2655C57.7887 23.5923 55.6217 21.4253 52.9485 21.4253Z" fill="url(#paint2_linear_2_160)"/>
<path d="M51.3372 56.2108H46.6044C46.3797 56.2108 46.1643 56.1215 46.0055 55.9627C45.8466 55.8038 45.7574 55.5885 45.7574 55.3638V50.631C45.757 50.521 45.7783 50.412 45.8201 50.3103C45.8619 50.2085 45.9233 50.1161 46.0009 50.038L58.7064 37.3326C58.7852 37.2527 58.8791 37.1891 58.9827 37.1457C59.0863 37.1023 59.1975 37.08 59.3098 37.08C59.4221 37.08 59.5334 37.1023 59.6369 37.1457C59.7406 37.1891 59.8345 37.2527 59.9133 37.3326L64.6356 42.0549C64.7155 42.1337 64.7791 42.2276 64.8225 42.3312C64.8659 42.4348 64.8882 42.5461 64.8882 42.6583C64.8882 42.7706 64.8659 42.8819 64.8225 42.9854C64.7791 43.0891 64.7155 43.183 64.6356 43.2618L51.9301 55.9672C51.8521 56.0449 51.7597 56.1063 51.6579 56.1481C51.5562 56.1899 51.4472 56.2112 51.3372 56.2108Z" fill="#896BFF"/>
<path d="M47.6285 40.7C48.4204 40.7 49.0623 40.0581 49.0623 39.2662C49.0623 38.4743 48.4204 37.8324 47.6285 37.8324H20.1884C19.3965 37.8324 18.7546 38.4743 18.7546 39.2662C18.7546 40.0581 19.3965 40.7 20.1884 40.7H47.6285Z" fill="#CBD0EA"/>
<path d="M38.0691 34.3247C38.861 34.3247 39.503 33.6827 39.503 32.8909C39.503 32.099 38.861 31.457 38.0691 31.457H20.1884C19.3965 31.457 18.7545 32.099 18.7545 32.8909C18.7545 33.6827 19.3965 34.3247 20.1884 34.3247H38.0691Z" fill="#CBD0EA"/>
<path d="M51.8258 34.3247C52.6177 34.3247 53.2596 33.6827 53.2596 32.8909C53.2596 32.099 52.6177 31.457 51.8258 31.457H44.1094C43.3175 31.457 42.6755 32.099 42.6755 32.8909C42.6755 33.6827 43.3175 34.3247 44.1094 34.3247H51.8258Z" fill="#896BFF"/>
<path d="M35.6112 47.0774C36.4031 47.0774 37.0451 46.4354 37.0451 45.6435C37.0451 44.8517 36.4031 44.2097 35.6112 44.2097H20.1884C19.3965 44.2097 18.7546 44.8517 18.7546 45.6435C18.7546 46.4354 19.3965 47.0774 20.1884 47.0774H35.6112Z" fill="#896BFF"/>
</g>
</g>
</g>
</g>
</g>
<defs>
<filter id="filter0_d_2_160" x="0.864731" y="0.593445" width="73.5705" height="73.5705" filterUnits="userSpaceOnUse" color-interpolation-filters="sRGB">
<feFlood flood-opacity="0" result="BackgroundImageFix"/>
<feColorMatrix in="SourceAlpha" type="matrix" values="0 0 0 0 0 0 0 0 0 0 0 0 0 0 0 0 0 0 127 0" result="hardAlpha"/>
<feOffset dy="1.93607"/>
<feGaussianBlur stdDeviation="2.9041"/>
<feComposite in2="hardAlpha" operator="out"/>
<feColorMatrix type="matrix" values="0 0 0 0 0.152941 0 0 0 0 0.223529 0 0 0 0 0.576471 0 0 0 0.06 0"/>
<feBlend mode="normal" in2="BackgroundImageFix" result="effect1_dropShadow_2_160"/>
<feBlend mode="normal" in="SourceGraphic" in2="effect1_dropShadow_2_160" result="shape"/>
</filter>
<linearGradient id="paint0_linear_2_160" x1="37.6499" y1="4.46581" x2="37.6499" y2="66.4199" gradientUnits="userSpaceOnUse">
<stop stop-color="#663AE7" stop-opacity="0"/>
<stop offset="1" stop-color="#663AE7"/>
</linearGradient>
<linearGradient id="paint1_linear_2_160" x1="37.6499" y1="4.46581" x2="37.6499" y2="66.4199" gradientUnits="userSpaceOnUse">
<stop stop-color="#663AE7" stop-opacity="0"/>
<stop offset="1" stop-color="#663AE7"/>
</linearGradient>
<linearGradient id="paint2_linear_2_160" x1="35.9535" y1="21.4253" x2="35.9535" y2="70.4144" gradientUnits="userSpaceOnUse">
<stop stop-color="white"/>
<stop offset="1" stop-color="#F9FAFF"/>
</linearGradient>
<clipPath id="clip0_2_160">
<rect x="6.67293" y="4.46558" width="61.9541" height="61.9541" rx="30.977" fill="white"/>
</clipPath>
<clipPath id="clip1_2_160">
<rect width="61.9541" height="61.9541" fill="white" transform="translate(6.67293 4.46558)"/>
</clipPath>
<clipPath id="clip2_2_160">
<rect width="61.9541" height="61.9541" fill="white" transform="translate(6.67293 4.46558)"/>
</clipPath>
</defs>
</svg>
