<svg width="39" height="41" viewBox="0 0 39 41" fill="none" xmlns="http://www.w3.org/2000/svg">
<path fill-rule="evenodd" clip-rule="evenodd" d="M25.5495 30.2574C26.2682 30.0649 26.9112 29.746 27.4659 29.3336C29.2793 27.9856 30.1653 25.637 29.5541 23.3558C28.7533 20.3672 25.6665 18.5688 22.6352 19.3811L21.1435 13.8142C27.2066 12.1896 33.4648 15.7777 35.0974 21.8705C36.3455 26.5286 34.5172 31.2689 30.8889 33.9661C29.764 34.8023 28.4675 35.4421 27.0411 35.8243C20.9781 37.4489 14.7199 33.8608 13.0873 27.768C12.7435 26.4849 12.6327 25.1882 12.7318 23.9268L18.4545 24.3918C18.4061 25.0074 18.4594 25.644 18.6306 26.2827C19.4314 29.2713 22.5182 31.0697 25.5495 30.2574Z" fill="white"/>
<circle cx="8.52462" cy="8.52462" r="8.52462" transform="matrix(0.977851 -0.2093 -0.2093 -0.977851 4.81763 24.3813)" fill="white"/>
</svg>
