<svg width="563" height="650" viewBox="0 0 563 650" fill="none" xmlns="http://www.w3.org/2000/svg">
<g filter="url(#filter0_d_2_95)">
<path d="M522.793 22H40.2069C32.3607 22 26 29.1181 26 37.8988V604.101C26 612.882 32.3607 620 40.2069 620H522.793C530.639 620 537 612.882 537 604.101V37.8988C537 29.1181 530.639 22 522.793 22Z" fill="white"/>
</g>
<path d="M100.562 174.049C100.562 173.208 99.8807 172.526 99.04 172.526C98.1993 172.526 97.5178 173.208 97.5178 174.049V543.775C97.5178 544.615 98.1993 545.297 99.04 545.297C99.8807 545.297 100.562 544.615 100.562 543.775V174.049Z" fill="#E4E6EE"/>
<path d="M490.613 149.851H72.9129C66.6078 149.851 61.4966 154.962 61.4966 161.267V224.017C61.4966 230.322 66.6078 235.433 72.9129 235.433H490.613C496.918 235.433 502.029 230.322 502.029 224.017V161.267C502.029 154.962 496.918 149.851 490.613 149.851Z" fill="white" stroke="#E5ECF5" stroke-width="1.52217"/>
<path d="M291.403 183.515H137.991C135.25 183.515 133.028 185.738 133.028 188.479C133.028 191.22 135.25 193.442 137.991 193.442H291.403C294.145 193.442 296.367 191.22 296.367 188.479C296.367 185.738 294.145 183.515 291.403 183.515Z" fill="#E4E6EE"/>
<path d="M240.489 165.152H139.507C136.985 165.152 134.94 167.197 134.94 169.719C134.94 172.241 136.985 174.285 139.507 174.285H240.489C243.011 174.285 245.055 172.241 245.055 169.719C245.055 167.197 243.011 165.152 240.489 165.152Z" fill="#A9AFC0"/>
<path d="M489.107 166.731H445.524C442.783 166.731 440.561 168.953 440.561 171.695C440.561 174.436 442.783 176.658 445.524 176.658H489.107C491.848 176.658 494.07 174.436 494.07 171.695C494.07 168.953 491.848 166.731 489.107 166.731Z" fill="#D3D7E3"/>
<path d="M350.666 200.362H137.991C135.25 200.362 133.028 202.584 133.028 205.325C133.028 208.067 135.25 210.289 137.991 210.289H350.666C353.407 210.289 355.629 208.067 355.629 205.325C355.629 202.584 353.407 200.362 350.666 200.362Z" fill="#E4E6EE"/>
<path d="M104.053 198.202C113.58 198.202 121.304 190.479 121.304 180.951C121.304 171.424 113.58 163.7 104.053 163.7C94.5249 163.7 86.8013 171.424 86.8013 180.951C86.8013 190.479 94.5249 198.202 104.053 198.202Z" fill="#9FB4FF"/>
<path d="M96.9487 181.213L100.95 185.215L110.286 175.878" stroke="white" stroke-width="2.53695" stroke-linecap="round" stroke-linejoin="round"/>
<path d="M490.613 269.427H72.9129C66.6078 269.427 61.4966 274.539 61.4966 280.844V343.593C61.4966 349.898 66.6078 355.01 72.9129 355.01H490.613C496.918 355.01 502.029 349.898 502.029 343.593V280.844C502.029 274.539 496.918 269.427 490.613 269.427Z" fill="white" stroke="#E5ECF5" stroke-width="1.52217"/>
<path d="M336.89 303.092H137.991C135.25 303.092 133.028 305.314 133.028 308.055C133.028 310.797 135.25 313.019 137.991 313.019H336.89C339.631 313.019 341.853 310.797 341.853 308.055C341.853 305.314 339.631 303.092 336.89 303.092Z" fill="#E4E6EE"/>
<path d="M283.992 284.73H139.507C136.985 284.73 134.94 286.775 134.94 289.297C134.94 291.819 136.985 293.863 139.507 293.863H283.992C286.514 293.863 288.559 291.819 288.559 289.297C288.559 286.775 286.514 284.73 283.992 284.73Z" fill="#A9AFC0"/>
<path d="M489.107 286.308H421.106C418.365 286.308 416.143 288.53 416.143 291.271C416.143 294.012 418.365 296.235 421.106 296.235H489.107C491.848 296.235 494.07 294.012 494.07 291.271C494.07 288.53 491.848 286.308 489.107 286.308Z" fill="#D3D7E3"/>
<path d="M215.767 319.94H137.991C135.25 319.94 133.028 322.162 133.028 324.903C133.028 327.644 135.25 329.867 137.991 329.867H215.767C218.508 329.867 220.731 327.644 220.731 324.903C220.731 322.162 218.508 319.94 215.767 319.94Z" fill="#E4E6EE"/>
<path d="M104.053 316.932C113.58 316.932 121.304 309.208 121.304 299.681C121.304 290.153 113.58 282.429 104.053 282.429C94.5249 282.429 86.8013 290.153 86.8013 299.681C86.8013 309.208 94.5249 316.932 104.053 316.932Z" fill="#A19FFF"/>
<path d="M109.753 301.404C109.568 301.219 109.348 301.072 109.107 300.972C108.865 300.872 108.607 300.82 108.345 300.82C108.084 300.82 107.825 300.872 107.584 300.972C107.342 301.072 107.122 301.219 106.937 301.404L106.633 301.711C104.965 300.312 103.423 298.768 102.024 297.1L102.331 296.794C102.703 296.421 102.912 295.915 102.912 295.387C102.912 294.86 102.703 294.354 102.331 293.98L100.639 292.29C100.26 291.928 99.7557 291.726 99.2311 291.726C98.7074 291.726 98.2031 291.928 97.8236 292.29L96.8971 293.216C96.4455 293.671 96.1634 294.268 96.0994 294.906C96.0355 295.544 96.1928 296.185 96.546 296.719C99.3001 300.871 102.858 304.43 107.008 307.185C107.546 307.532 108.186 307.686 108.822 307.622C109.458 307.558 110.054 307.28 110.511 306.833L111.438 305.907C111.811 305.534 112.02 305.027 112.02 304.5C112.02 303.972 111.811 303.466 111.438 303.092L109.753 301.404Z" fill="white"/>
<path d="M490.613 389.006H72.9129C66.6078 389.006 61.4966 394.117 61.4966 400.422V463.172C61.4966 469.477 66.6078 474.588 72.9129 474.588H490.613C496.918 474.588 502.029 469.477 502.029 463.172V400.422C502.029 394.117 496.918 389.006 490.613 389.006Z" fill="white" stroke="#E5ECF5" stroke-width="1.52217"/>
<path d="M228.58 422.67H137.991C135.25 422.67 133.028 424.892 133.028 427.633C133.028 430.374 135.25 432.597 137.991 432.597H228.58C231.321 432.597 233.543 430.374 233.543 427.633C233.543 424.892 231.321 422.67 228.58 422.67Z" fill="#E4E6EE"/>
<path d="M332.485 404.308H139.507C136.985 404.308 134.94 406.353 134.94 408.875C134.94 411.397 136.985 413.441 139.507 413.441H332.485C335.007 413.441 337.051 411.397 337.051 408.875C337.051 406.353 335.007 404.308 332.485 404.308Z" fill="#A9AFC0"/>
<path d="M489.105 405.886H453.489C450.748 405.886 448.525 408.108 448.525 410.849C448.525 413.591 450.748 415.813 453.489 415.813H489.105C491.846 415.813 494.068 413.591 494.068 410.849C494.068 408.108 491.846 405.886 489.105 405.886Z" fill="#D3D7E3"/>
<path d="M300.21 439.518H137.991C135.25 439.518 133.028 441.74 133.028 444.481C133.028 447.222 135.25 449.444 137.991 449.444H300.21C302.951 449.444 305.173 447.222 305.173 444.481C305.173 441.74 302.951 439.518 300.21 439.518Z" fill="#E4E6EE"/>
<path d="M104.053 436.677C113.58 436.677 121.304 428.953 121.304 419.425C121.304 409.898 113.58 402.174 104.053 402.174C94.5249 402.174 86.8013 409.898 86.8013 419.425C86.8013 428.953 94.5249 436.677 104.053 436.677Z" fill="#C39FFF"/>
<path d="M490.613 508.582H72.9129C66.6078 508.582 61.4966 513.693 61.4966 519.998V582.748C61.4966 589.053 66.6078 594.164 72.9129 594.164H490.613C496.918 594.164 502.029 589.053 502.029 582.748V519.998C502.029 513.693 496.918 508.582 490.613 508.582Z" fill="white" stroke="#E5ECF5" stroke-width="1.52217"/>
<path d="M228.58 542.247H137.991C135.25 542.247 133.028 544.469 133.028 547.21C133.028 549.951 135.25 552.173 137.991 552.173H228.58C231.321 552.173 233.543 549.951 233.543 547.21C233.543 544.469 231.321 542.247 228.58 542.247Z" fill="#E4E6EE"/>
<path d="M266.227 523.885H139.507C136.985 523.885 134.94 525.929 134.94 528.451C134.94 530.973 136.985 533.018 139.507 533.018H266.227C268.75 533.018 270.794 530.973 270.794 528.451C270.794 525.929 268.75 523.885 266.227 523.885Z" fill="#A9AFC0"/>
<path d="M489.105 525.463H421.912C419.17 525.463 416.948 527.685 416.948 530.426C416.948 533.167 419.17 535.389 421.912 535.389H489.105C491.846 535.389 494.068 533.167 494.068 530.426C494.068 527.685 491.846 525.463 489.105 525.463Z" fill="#D3D7E3"/>
<path d="M104.053 556.421C113.58 556.421 121.304 548.697 121.304 539.169C121.304 529.642 113.58 521.918 104.053 521.918C94.5249 521.918 86.8013 529.642 86.8013 539.169C86.8013 548.697 94.5249 556.421 104.053 556.421Z" fill="#A19FFF"/>
<path d="M110.859 533.359C110.719 533.264 110.555 533.208 110.386 533.197C110.216 533.187 110.048 533.222 109.897 533.3C109.116 533.617 108.285 533.795 107.443 533.826C106.482 533.755 105.534 533.559 104.624 533.244C102.627 532.66 101.935 532.522 100.403 532.72C100.188 532.748 99.9914 532.854 99.8483 533.016C99.7052 533.18 99.6261 533.39 99.6271 533.606V542.541C99.6271 542.667 99.6535 542.791 99.7052 542.905C99.756 543.02 99.8311 543.124 99.9254 543.207C100.02 543.291 100.129 543.354 100.25 543.391C100.37 543.429 100.497 543.441 100.622 543.427C101.963 543.273 102.587 543.404 104.453 543.95C105.418 544.285 106.424 544.489 107.443 544.558C108.484 544.519 109.509 544.287 110.465 543.873C110.865 543.72 111.226 543.515 111.226 542.963V534.088C111.227 533.946 111.195 533.806 111.131 533.679C111.067 533.552 110.973 533.443 110.859 533.359Z" fill="white"/>
<path d="M97.8407 532.066C97.6042 532.066 97.3769 532.161 97.2105 532.328C97.043 532.495 96.9487 532.722 96.9487 532.959V545.45C96.9487 545.687 97.043 545.914 97.2105 546.081C97.3769 546.249 97.6042 546.342 97.8407 546.342C98.0771 546.342 98.3044 546.249 98.4719 546.081C98.6393 545.914 98.7337 545.687 98.7337 545.45V532.959C98.7337 532.722 98.6393 532.495 98.4719 532.328C98.3044 532.161 98.0771 532.066 97.8407 532.066Z" fill="white"/>
<path d="M136.656 124.668H66.7143C63.9731 124.668 61.7509 126.89 61.7509 129.631C61.7509 132.372 63.9731 134.595 66.7143 134.595H136.656C139.397 134.595 141.619 132.372 141.619 129.631C141.619 126.89 139.397 124.668 136.656 124.668Z" fill="#C5C9D4"/>
<path d="M253.839 42.9417H66.8251C63.4624 42.9417 60.7365 45.6676 60.7365 49.0303C60.7365 52.393 63.4624 55.119 66.8251 55.119H253.839C257.202 55.119 259.928 52.393 259.928 49.0303C259.928 45.6676 257.202 42.9417 253.839 42.9417Z" fill="#A9AFC0"/>
<path d="M496.137 36.8533H412.166C408.453 36.8533 405.442 39.8637 405.442 43.5772V55.4988C405.442 59.2124 408.453 62.2228 412.166 62.2228H496.137C499.851 62.2228 502.861 59.2124 502.861 55.4988V43.5772C502.861 39.8637 499.851 36.8533 496.137 36.8533Z" fill="#9FB4FF"/>
<path d="M500.825 86.7444H60.7998" stroke="#E5ECF5" stroke-width="1.01478" stroke-linecap="round"/>
<defs>
<filter id="filter0_d_2_95" x="0" y="0" width="563" height="650" filterUnits="userSpaceOnUse" color-interpolation-filters="sRGB">
<feFlood flood-opacity="0" result="BackgroundImageFix"/>
<feColorMatrix in="SourceAlpha" type="matrix" values="0 0 0 0 0 0 0 0 0 0 0 0 0 0 0 0 0 0 127 0" result="hardAlpha"/>
<feOffset dy="4"/>
<feGaussianBlur stdDeviation="13"/>
<feComposite in2="hardAlpha" operator="out"/>
<feColorMatrix type="matrix" values="0 0 0 0 0.483333 0 0 0 0 0.628 0 0 0 0 1 0 0 0 0.25 0"/>
<feBlend mode="normal" in2="BackgroundImageFix" result="effect1_dropShadow_2_95"/>
<feBlend mode="normal" in="SourceGraphic" in2="effect1_dropShadow_2_95" result="shape"/>
</filter>
</defs>
</svg>
